<svg width="48" height="48" viewBox="0 0 48 48" fill="none"
     xmlns="http://www.w3.org/2000/svg">
    <path d="M13.8661 21.4219H15.094V27.1668" stroke="#0284BE"
          stroke-miterlimit="10" stroke-linecap="round"
          stroke-linejoin="round"/>
    <path d="M31.7385 21.2579L29.4167 26.7902" stroke="#0284BE"
          stroke-miterlimit="10" stroke-linecap="round"
          stroke-linejoin="round"/>
    <path d="M28.9723 23.3842C29.5389 23.3842 29.9982 22.8505 29.9982 22.1921C29.9982 21.5337 29.5389 21 28.9723 21C28.4057 21 27.9464 21.5337 27.9464 22.1921C27.9464 22.8505 28.4057 23.3842 28.9723 23.3842Z"
          stroke="#0284BE" stroke-miterlimit="10" stroke-linecap="round"
          stroke-linejoin="round"/>
    <path d="M32.108 27.1668C32.6746 27.1668 33.1339 26.6331 33.1339 25.9747C33.1339 25.3163 32.6746 24.7826 32.108 24.7826C31.5415 24.7826 31.0822 25.3163 31.0822 25.9747C31.0822 26.6331 31.5415 27.1668 32.108 27.1668Z"
          stroke="#0284BE" stroke-miterlimit="10" stroke-linecap="round"
          stroke-linejoin="round"/>
    <path d="M20.4873 25.5056C20.4873 26.4231 19.7435 27.1669 18.826 27.1669C17.9085 27.1669 17.1648 26.4231 17.1648 25.5056V22.8487C17.1648 21.9312 17.9086 21.1875 18.826 21.1875C19.7435 21.1875 20.4873 21.9313 20.4873 22.8487V25.5056Z"
          stroke="#0284BE" stroke-miterlimit="10" stroke-linecap="round"
          stroke-linejoin="round"/>
    <path d="M25.8807 25.5056C25.8807 26.4231 25.137 27.1669 24.2195 27.1669C23.302 27.1669 22.5582 26.4231 22.5582 25.5056V22.8487C22.5582 21.9312 23.302 21.1875 24.2195 21.1875C25.137 21.1875 25.8807 21.9313 25.8807 22.8487V25.5056Z"
          stroke="#0284BE" stroke-miterlimit="10" stroke-linecap="round"
          stroke-linejoin="round"/>
    <path d="M12.7153 14.3553C12.6735 14.5234 12.6512 14.6996 12.6512 14.8813V15.0949C12.6512 15.9461 12.1556 16.7134 11.3955 17.0391L11.2047 17.1209C10.1667 17.5656 9.67386 18.7966 10.1038 19.8703L10.1828 20.0677C10.4976 20.854 10.3236 21.7591 9.74184 22.3609L9.59578 22.512C8.80141 23.3337 8.80141 24.6661 9.59578 25.4879L9.74184 25.639C10.3236 26.2408 10.4976 27.1459 10.1828 27.9323L10.1038 28.1297C9.67386 29.2034 10.1667 30.4344 11.2047 30.8791L11.3955 30.9608C12.1556 31.2866 12.6512 32.0539 12.6512 32.905V33.1187C12.6512 34.2808 13.5619 35.223 14.6853 35.223H14.8919C15.7146 35.223 16.4564 35.7357 16.7712 36.522L16.8503 36.7194C17.2802 37.7931 18.4702 38.303 19.508 37.8582L19.6988 37.7764C20.459 37.4507 21.3339 37.6308 21.9156 38.2326L22.0617 38.3837C22.856 39.2054 24.144 39.2054 24.9384 38.3837L25.0844 38.2326C25.6662 37.6308 26.5412 37.4507 27.3012 37.7764L27.492 37.8582C28.53 38.303 29.7198 37.7931 30.1498 36.7194L30.2288 36.522C30.5436 35.7356 31.2854 35.223 32.1081 35.223H32.3147C33.4381 35.223 34.3488 34.2808 34.3488 33.1187V32.905C34.3488 32.0539 34.8445 31.2866 35.6045 30.9608L35.7953 30.8791C36.8333 30.4343 37.3261 29.2033 36.8962 28.1297L36.8172 27.9323C36.5024 27.1459 36.6764 26.2409 37.2582 25.639L37.4042 25.488C38.1986 24.6662 38.1986 23.3338 37.4042 22.512L37.2582 22.3609C36.6764 21.7591 36.5024 20.854 36.8172 20.0677L36.8963 19.8703C37.3262 18.7966 36.8333 17.5656 35.7954 17.1209L35.6046 17.0392C34.8445 16.7134 34.3488 15.9462 34.3488 15.095V14.8813C34.3488 13.7192 33.4381 12.777 32.3147 12.777H32.1081C31.2854 12.777 30.5436 12.2643 30.2288 11.478L30.1497 11.2806C29.7198 10.2069 28.5299 9.69704 27.492 10.1418L27.3012 10.2236C26.541 10.5493 25.6661 10.3692 25.0844 9.76742L24.9383 9.61633C24.144 8.79456 22.856 8.79456 22.0616 9.61633L21.9156 9.76742C21.3338 10.3692 20.4588 10.5493 19.6988 10.2236L19.508 10.1418C18.47 9.69704 17.2802 10.2069 16.8502 11.2806L16.7712 11.478C16.4563 12.2644 15.7146 12.777 14.8918 12.777H14.6853C14.4982 12.777 14.317 12.8032 14.1449 12.8521"
          stroke="#0284BE" stroke-miterlimit="10" stroke-linecap="round"
          stroke-linejoin="round"/>
</svg>
