<svg width="48" height="48" viewBox="0 0 48 48" fill="none" xmlns="http://www.w3.org/2000/svg">
    <path d="M35.9357 32.8587C35.3934 32.8591 34.8632 32.6986 34.4122 32.3976C33.9611 32.0967 33.6094 31.6687 33.4016 31.1678C33.1938 30.6669 33.1393 30.1157 33.2448 29.5838C33.3504 29.0519 33.6113 28.5632 33.9946 28.1796C34.3779 27.7961 34.8664 27.5348 35.3982 27.4288C35.93 27.3229 36.4813 27.3771 36.9823 27.5845C37.4833 27.7919 37.9116 28.1433 38.2129 28.5941C38.5142 29.045 38.6751 29.5751 38.6751 30.1173C38.6747 30.8439 38.386 31.5407 37.8725 32.0547C37.3589 32.5686 36.6623 32.8578 35.9357 32.8587ZM35.9357 28.376C35.5912 28.3756 35.2544 28.4774 34.9677 28.6685C34.6811 28.8596 34.4576 29.1314 34.3255 29.4496C34.1934 29.7677 34.1586 30.1179 34.2256 30.4558C34.2926 30.7937 34.4583 31.1042 34.7017 31.3479C34.9452 31.5917 35.2554 31.7577 35.5933 31.8251C35.9311 31.8924 36.2813 31.8581 36.5996 31.7263C36.9179 31.5946 37.19 31.3714 37.3814 31.085C37.5729 30.7986 37.6751 30.4618 37.6751 30.1173C37.6749 29.6559 37.4916 29.2134 37.1655 28.8869C36.8394 28.5605 36.3971 28.3767 35.9357 28.376Z" fill="#0284BE"/>
    <path d="M20.0281 32.8587C19.4858 32.8592 18.9555 32.6989 18.5043 32.398C18.0532 32.0971 17.7014 31.6691 17.4935 31.1683C17.2856 30.6674 17.2309 30.1161 17.3364 29.5842C17.4419 29.0522 17.7028 28.5635 18.086 28.1799C18.4693 27.7962 18.9578 27.5349 19.4896 27.4289C20.0214 27.3229 20.5728 27.377 21.0738 27.5844C21.5749 27.7918 22.0032 28.1432 22.3045 28.5941C22.6059 29.0449 22.7667 29.575 22.7667 30.1173C22.7662 30.8438 22.4776 31.5403 21.9642 32.0542C21.4508 32.5681 20.7545 32.8574 20.0281 32.8587ZM20.0281 28.376C19.6835 28.3755 19.3466 28.4772 19.0599 28.6682C18.7732 28.8592 18.5496 29.131 18.4174 29.4491C18.2852 29.7673 18.2503 30.1175 18.3172 30.4554C18.3841 30.7934 18.5497 31.1039 18.7931 31.3477C19.0366 31.5915 19.3468 31.7576 19.6847 31.825C20.0226 31.8924 20.3728 31.8581 20.6912 31.7264C21.0095 31.5947 21.2816 31.3715 21.4731 31.085C21.6645 30.7986 21.7667 30.4619 21.7667 30.1173C21.7664 29.6561 21.5832 29.2138 21.2573 28.8874C20.9313 28.561 20.4893 28.3771 20.0281 28.376Z" fill="#0284BE"/>
    <path d="M39.5423 30.6173H38.175C38.0424 30.6173 37.9152 30.5647 37.8215 30.4709C37.7277 30.3771 37.675 30.2499 37.675 30.1173C37.675 29.9847 37.7277 29.8575 37.8215 29.7638C37.9152 29.67 38.0424 29.6173 38.175 29.6173H39.401V26.966C39.4007 26.6075 39.3089 26.2551 39.1343 25.942L36.4277 21.0893C36.4046 21.0479 36.3708 21.0134 36.3299 20.9894C36.289 20.9654 36.2424 20.9527 36.195 20.9527H32.5063V29.6193H33.697C33.8296 29.6193 33.9568 29.672 34.0506 29.7658C34.1443 29.8595 34.197 29.9867 34.197 30.1193C34.197 30.2519 34.1443 30.3791 34.0506 30.4729C33.9568 30.5667 33.8296 30.6193 33.697 30.6193H32.0063C31.8737 30.6193 31.7466 30.5667 31.6528 30.4729C31.559 30.3791 31.5063 30.2519 31.5063 30.1193V20.4527C31.5063 20.3201 31.559 20.1929 31.6528 20.0991C31.7466 20.0053 31.8737 19.9527 32.0063 19.9527H36.195C36.4206 19.9526 36.6421 20.0127 36.8366 20.1268C37.0312 20.241 37.1917 20.405 37.3017 20.602L40.0077 25.4553C40.2649 25.9173 40.4001 26.4372 40.4003 26.966V29.7593C40.4 29.9868 40.3095 30.2048 40.1487 30.3656C39.9878 30.5265 39.7698 30.617 39.5423 30.6173Z" fill="#0284BE"/>
    <path d="M17.7886 30.6173H12.9946C12.862 30.6173 12.7348 30.5646 12.6411 30.4709C12.5473 30.3771 12.4946 30.2499 12.4946 30.1173L12.4946 26.8535C12.4946 26.7209 12.5473 26.5938 12.6411 26.5C12.7348 26.4062 12.862 26.3535 12.9946 26.3535C13.1272 26.3535 13.2544 26.4062 13.3482 26.5C13.442 26.5938 13.4946 26.7209 13.4946 26.8535V29.6173H17.7886C17.9212 29.6173 18.0484 29.67 18.1422 29.7638C18.236 29.8575 18.2886 29.9847 18.2886 30.1173C18.2886 30.2499 18.236 30.3771 18.1422 30.4709C18.0484 30.5646 17.9212 30.6173 17.7886 30.6173Z" fill="#0284BE"/>
    <path d="M32 30.6173H22.2666C22.134 30.6173 22.0068 30.5647 21.9131 30.4709C21.8193 30.3771 21.7666 30.25 21.7666 30.1173C21.7666 29.9847 21.8193 29.8576 21.9131 29.7638C22.0068 29.67 22.134 29.6173 22.2666 29.6173H31.5V16.5367H13.4946V18.596C13.4946 18.7286 13.442 18.8558 13.3482 18.9496C13.2544 19.0433 13.1272 19.096 12.9946 19.096C12.862 19.096 12.7348 19.0433 12.6411 18.9496C12.5473 18.8558 12.4946 18.7286 12.4946 18.596V16.4447C12.495 16.2039 12.5909 15.973 12.7612 15.8028C12.9316 15.6326 13.1625 15.5369 13.4033 15.5367H31.592C31.8327 15.537 32.0635 15.6328 32.2337 15.803C32.4039 15.9732 32.4996 16.204 32.5 16.4447V30.1173C32.5 30.25 32.4473 30.3771 32.3536 30.4709C32.2598 30.5647 32.1326 30.6173 32 30.6173Z" fill="#0284BE"/>
    <path d="M14.9751 27H10.6256C10.493 27 10.3657 26.9473 10.2719 26.8536C10.1781 26.7598 10.1254 26.6326 10.1254 26.5C10.1254 26.3674 10.1781 26.2402 10.2719 26.1464C10.3657 26.0527 10.493 26 10.6256 26H14.9751C15.1078 26 15.235 26.0527 15.3288 26.1464C15.4227 26.2402 15.4754 26.3674 15.4754 26.5C15.4754 26.6326 15.4227 26.7598 15.3288 26.8536C15.235 26.9473 15.1078 27 14.9751 27Z" fill="#0284BE"/>
    <path d="M10.958 22.858H7.5C7.36739 22.858 7.24021 22.8053 7.14645 22.7116C7.05268 22.6178 7 22.4906 7 22.358C7 22.2254 7.05268 22.0982 7.14645 22.0044C7.24021 21.9107 7.36739 21.858 7.5 21.858H10.958C11.0906 21.858 11.2178 21.9107 11.3116 22.0044C11.4053 22.0982 11.458 22.2254 11.458 22.358C11.458 22.4906 11.4053 22.6178 11.3116 22.7116C11.2178 22.8053 11.0906 22.858 10.958 22.858Z" fill="#0284BE"/>
    <path d="M13.6003 19.096H9.49972C9.36718 19.096 9.24008 19.0433 9.14636 18.9496C9.05265 18.8558 9 18.7286 9 18.596C9 18.4634 9.05265 18.3362 9.14636 18.2425C9.24008 18.1487 9.36718 18.096 9.49972 18.096H13.6003C13.7328 18.096 13.8599 18.1487 13.9536 18.2425C14.0474 18.3362 14.1 18.4634 14.1 18.596C14.1 18.7286 14.0474 18.8558 13.9536 18.9496C13.8599 19.0433 13.7328 19.096 13.6003 19.096Z" fill="#0284BE"/>
    <path d="M17.9834 20H15.8455C15.5689 20 15.3445 20.2243 15.3445 20.5011V24.7766C15.3445 25.0533 15.5688 25.2777 15.8455 25.2777C16.1223 25.2777 16.3466 25.0534 16.3466 24.7766V23.1399H17.4489C17.7256 23.1399 17.95 22.9156 17.95 22.6388C17.95 22.3621 17.7257 22.1377 17.4489 22.1377H16.3466V21.0021H17.9834C18.26 21.0021 18.4844 20.7778 18.4844 20.5011C18.4844 20.2244 18.26 20 17.9834 20Z" fill="#0284BE"/>
    <path d="M21.9264 23.3748C22.4278 23.0464 22.7599 22.48 22.7599 21.8372C22.7599 20.8241 21.9358 20 20.9228 20H19.5866C19.3099 20 19.0856 20.2243 19.0856 20.5011V24.7766C19.0856 25.0533 19.3099 25.2777 19.5866 25.2777C19.8634 25.2777 20.0877 25.0534 20.0877 24.7766V23.6743H20.9218L21.8419 25.0545C21.9385 25.1993 22.0973 25.2777 22.2593 25.2777C22.3548 25.2777 22.4513 25.2504 22.5367 25.1934C22.767 25.04 22.8292 24.7289 22.6756 24.4987L21.9264 23.3748ZM20.9228 22.6722H20.0877V21.0021H20.9228C21.3833 21.0021 21.7578 21.3767 21.7578 21.8372C21.7578 22.2977 21.3833 22.6722 20.9228 22.6722Z" fill="#0284BE"/>
    <path d="M26 24.2756H24.3632V23.1382C24.3743 23.139 24.3853 23.1399 24.3966 23.1399H25.4655C25.7421 23.1399 25.9665 22.9156 25.9665 22.6389C25.9665 22.3621 25.7422 22.1378 25.4655 22.1378H24.3966C24.3853 22.1378 24.3743 22.1387 24.3632 22.1395V21.0021H26C26.2766 21.0021 26.501 20.7778 26.501 20.5011C26.501 20.2244 26.2767 20 26 20H23.8621C23.5855 20 23.3611 20.2243 23.3611 20.5011V24.7766C23.3611 25.0533 23.5854 25.2777 23.8621 25.2777H26C26.2766 25.2777 26.501 25.0534 26.501 24.7766C26.501 24.4999 26.2766 24.2756 26 24.2756Z" fill="#0284BE"/>
    <path d="M29.7412 24.2756H28.1044V23.1399H28.6723C28.949 23.1399 29.1734 22.9156 29.1734 22.6389C29.1734 22.3621 28.949 22.1378 28.6723 22.1378H28.1044V21.0021H29.7412C30.0179 21.0021 30.2422 20.7778 30.2422 20.5011C30.2422 20.2244 30.0179 20 29.7412 20H27.6034C27.3267 20 27.1023 20.2243 27.1023 20.5011V24.7766C27.1023 25.0533 27.3266 25.2777 27.6034 25.2777H29.7412C30.0179 25.2777 30.2422 25.0534 30.2422 24.7766C30.2422 24.4999 30.0179 24.2756 29.7412 24.2756Z" fill="#0284BE"/>
</svg>
