<svg width="48" height="48" viewBox="0 0 48 48" fill="none" xmlns="http://www.w3.org/2000/svg">
    <g clip-path="url(#clip0_2860_16498)">
        <path d="M40.0606 41.8332C35.8079 45.6673 30.1769 47.9999 23.9995 47.9999C17.8221 47.9999 12.1625 45.6548 7.90527 41.8037C7.98934 41.6954 8.07789 41.5336 8.17985 41.3117C10.1993 36.9258 13.5541 33.935 18.0313 32.1623C18.5054 31.9745 18.8712 32.0434 19.296 32.2384C22.3878 33.6622 25.4984 33.715 28.5903 32.258C29.1394 31.9996 29.5974 32.0747 30.1018 32.267C34.5853 33.9761 37.8005 37.0617 39.8021 41.3833C39.8969 41.5881 39.981 41.7357 40.0606 41.8332Z"
              fill="#BDBDBD"/>
        <path d="M48 23.9996C48 31.0785 44.9359 37.4411 40.0607 41.8333C39.9811 41.7358 39.897 41.5883 39.8022 41.3834C37.8006 37.0618 34.5853 33.9763 30.1018 32.2671C29.5974 32.0748 29.1395 31.9997 28.5904 32.2582C25.4985 33.7151 22.3879 33.6623 19.2961 32.2385C18.8712 32.0435 18.5054 31.9747 18.0314 32.1625C13.5542 33.9351 10.1994 36.9259 8.17992 41.3119C8.07796 41.5337 7.98942 41.6956 7.90535 41.8038C3.0507 37.4124 0 31.0624 0 23.9996C0 16.2418 3.68123 9.3426 9.39179 4.9566C9.41862 4.93603 9.44456 4.91546 9.47139 4.89579C13.5041 1.82362 18.5394 0 23.9996 0C24.0344 0 24.0684 0 24.1033 0.000894371C26.3419 0.00983808 28.5072 0.325551 30.5616 0.907787C30.5642 0.908681 30.5678 0.909575 30.5705 0.91047C34.8617 2.1295 38.6637 4.5121 41.6124 7.69696C45.5763 11.9774 48 17.705 48 23.9996Z"
              fill="#F4F4F4"/>
        <path d="M33.005 21.998C32.9254 27.3392 28.8005 31.1179 24.047 31.0955C18.8972 31.0723 14.9378 27.2256 14.9754 21.9094C15.0093 17.0494 18.8346 13.1366 24.0094 13.0498C28.7925 13.0489 33.0765 17.2435 33.005 21.998Z"
              fill="#BDBDBD"/>
    </g>
    <defs>
        <clipPath id="clip0_2860_16498">
            <rect width="48" height="48" fill="white"/>
        </clipPath>
    </defs>
</svg>
