<svg width="120" height="80" viewBox="0 0 120 80" fill="none" xmlns="http://www.w3.org/2000/svg">
    <defs>
        <clipPath id="clip0_1041_10552">
            <rect width="49.2" height="42.735" fill="white" transform="translate(35.3142)"/>
        </clipPath>
    </defs>
    <path d="M0 79.7266V65.2582H3.97565L4.06271 68.0206L3.45331 68.13C3.66611 67.656 3.94663 67.2275 4.29487 66.8446C4.6431 66.4617 5.04937 66.1335 5.51368 65.86C5.99734 65.5865 6.50034 65.3768 7.02269 65.2309C7.54504 65.0668 8.06739 64.9847 8.58974 64.9847C9.38293 64.9847 10.0987 65.1033 10.7372 65.3403C11.3756 65.5773 11.9173 65.9511 12.3623 66.4617C12.8072 66.954 13.1555 67.6104 13.407 68.4309L12.7685 68.3762L12.9717 67.9386C13.2232 67.501 13.5424 67.109 13.9293 66.7625C14.3162 66.3978 14.7515 66.0879 15.2352 65.8326C15.7188 65.5591 16.2218 65.3494 16.7442 65.2035C17.2665 65.0577 17.7792 64.9847 18.2822 64.9847C19.4817 64.9847 20.478 65.2127 21.2712 65.6685C22.0644 66.1061 22.6545 66.7716 23.0414 67.6651C23.4477 68.5585 23.6508 69.6525 23.6508 70.9471V79.7266H19.53V71.2206C19.53 70.5642 19.4333 70.0263 19.2398 69.607C19.0464 69.1876 18.7659 68.8776 18.3983 68.677C18.0307 68.4582 17.5567 68.3488 16.9763 68.3488C16.5314 68.3488 16.1154 68.4218 15.7285 68.5676C15.3609 68.6953 15.032 68.8867 14.7418 69.142C14.471 69.379 14.2582 69.6617 14.1034 69.9899C13.9486 70.3181 13.8713 70.6827 13.8713 71.0839V79.7266H9.75051V71.1933C9.75051 70.5916 9.6441 70.081 9.4313 69.6617C9.23783 69.2241 8.95731 68.8959 8.58974 68.677C8.22216 68.4582 7.76752 68.3488 7.22582 68.3488C6.78086 68.3488 6.36492 68.4218 5.97799 68.5676C5.61041 68.6953 5.2912 68.8867 5.02035 69.142C4.7495 69.379 4.52702 69.6617 4.35291 69.9899C4.19814 70.3181 4.12075 70.6736 4.12075 71.0565V79.7266H0Z" fill="#19AAEB"/>
    <path d="M32.2759 80.0001C31.1538 80.0001 30.1865 79.7722 29.374 79.3164C28.5808 78.8423 27.9617 78.1768 27.5167 77.3198C27.0911 76.4446 26.8783 75.3961 26.8783 74.1745V65.2582H30.999V73.5454C30.999 74.2018 31.1151 74.7762 31.3473 75.2685C31.5794 75.7426 31.9083 76.1072 32.3339 76.3625C32.7595 76.6178 33.2819 76.7454 33.901 76.7454C34.3459 76.7454 34.7619 76.6816 35.1488 76.554C35.5357 76.4081 35.8646 76.2075 36.1355 75.9523C36.4063 75.697 36.6191 75.3961 36.7739 75.0497C36.9287 74.7033 37.006 74.3295 37.006 73.9283V65.2582H41.1268V79.7266H37.2092L37.0641 76.7454L37.8186 76.4172C37.5864 77.0919 37.1995 77.7027 36.6578 78.2497C36.1161 78.7967 35.468 79.2252 34.7135 79.5352C33.959 79.8451 33.1465 80.0001 32.2759 80.0001Z" fill="#19AAEB"/>
    <path d="M44.7218 79.7266V59.4873H48.8426V79.7266H44.7218Z" fill="#19AAEB"/>
    <path d="M57.6096 80.0001C56.178 80.0001 54.9011 79.7813 53.779 79.3437C52.6763 78.8879 51.7864 78.2679 51.1092 77.4839L53.6629 75.4053C54.2627 76.007 54.9301 76.4446 55.6653 76.7181C56.4004 76.9733 57.1356 77.101 57.8708 77.101C58.1609 77.101 58.4221 77.0736 58.6543 77.0189C58.9058 76.946 59.1186 76.8548 59.2927 76.7454C59.4668 76.6178 59.5926 76.4719 59.67 76.3078C59.7667 76.1255 59.815 75.934 59.815 75.7335C59.815 75.3323 59.6409 75.0132 59.2927 74.7762C59.0992 74.685 58.7994 74.5756 58.3931 74.448C57.9868 74.3021 57.4645 74.1471 56.826 73.983C55.8394 73.746 54.9978 73.4725 54.3014 73.1625C53.6242 72.8343 53.0826 72.4696 52.6763 72.0685C52.328 71.6856 52.0572 71.2753 51.8637 70.8377C51.6896 70.3819 51.6026 69.8805 51.6026 69.3335C51.6026 68.677 51.7573 68.0845 52.0669 67.5557C52.3764 67.0087 52.802 66.5437 53.3437 66.1608C53.9048 65.7779 54.5432 65.4862 55.259 65.2856C55.9748 65.0668 56.7293 64.9574 57.5225 64.9574C58.3157 64.9574 59.0896 65.0486 59.8441 65.2309C60.5986 65.4132 61.295 65.6776 61.9335 66.0241C62.5912 66.3523 63.1619 66.7443 63.6456 67.2001L61.4401 69.4976C61.0919 69.1876 60.6953 68.905 60.2503 68.6497C59.8247 68.3944 59.3798 68.1939 58.9154 68.048C58.4511 67.9021 58.0352 67.8292 57.6676 67.8292C57.3387 67.8292 57.0389 67.8565 56.768 67.9112C56.5165 67.9659 56.3037 68.048 56.1296 68.1574C55.9555 68.2668 55.82 68.4127 55.7233 68.595C55.6459 68.7591 55.6072 68.9414 55.6072 69.142C55.6072 69.3426 55.6556 69.534 55.7523 69.7164C55.8684 69.8987 56.0232 70.0537 56.2167 70.1813C56.4295 70.2907 56.739 70.4184 57.1453 70.5642C57.5709 70.7101 58.1416 70.8742 58.8574 71.0565C59.786 71.2936 60.5695 71.558 61.208 71.8497C61.8657 72.1414 62.3881 72.4788 62.775 72.8617C63.1039 73.1899 63.3457 73.5637 63.5005 73.983C63.6553 74.4024 63.7327 74.8674 63.7327 75.3779C63.7327 76.2714 63.4618 77.0736 62.9201 77.7847C62.3978 78.4776 61.6723 79.0246 60.7437 79.4258C59.815 79.8087 58.7704 80.0001 57.6096 80.0001Z" fill="#19AAEB"/>
    <path d="M67.57 79.7266V61.5933H71.6908V79.7266H67.57ZM64.6971 68.7317V65.2582H74.8249V68.7317H64.6971Z" fill="#19AAEB"/>
    <path d="M83.9274 80.0001C82.3604 80.0001 80.9578 79.681 79.7196 79.0429C78.5008 78.3864 77.5335 77.493 76.8177 76.3625C76.1212 75.232 75.773 73.9374 75.773 72.4788C75.773 71.0201 76.1212 69.7346 76.8177 68.6223C77.5335 67.4919 78.5008 66.5984 79.7196 65.942C80.9578 65.2856 82.3604 64.9574 83.9274 64.9574C85.4751 64.9574 86.8584 65.2856 88.0772 65.942C89.3154 66.5984 90.2827 67.4919 90.9791 68.6223C91.6756 69.7346 92.0238 71.0201 92.0238 72.4788C92.0238 73.9374 91.6756 75.232 90.9791 76.3625C90.2827 77.493 89.3154 78.3864 88.0772 79.0429C86.8584 79.681 85.4751 80.0001 83.9274 80.0001ZM83.9274 76.6087C84.6819 76.6087 85.359 76.4355 85.9588 76.089C86.5585 75.7243 87.0228 75.232 87.3517 74.6121C87.6999 73.9739 87.8741 73.2628 87.8741 72.4788C87.8741 71.6765 87.6999 70.9654 87.3517 70.3454C87.0228 69.7072 86.5585 69.2149 85.9588 68.8685C85.359 68.5038 84.6819 68.3215 83.9274 68.3215C83.1536 68.3215 82.4668 68.5038 81.8671 68.8685C81.2673 69.2332 80.7933 69.7255 80.4451 70.3454C80.0969 70.9654 79.9324 71.6765 79.9518 72.4788C79.9324 73.2628 80.0969 73.9739 80.4451 74.6121C80.7933 75.232 81.2673 75.7243 81.8671 76.089C82.4668 76.4355 83.1536 76.6087 83.9274 76.6087Z" fill="#19AAEB"/>
    <path d="M94.5437 79.7266V65.2582H98.5194L98.6645 69.9078L97.968 68.9506C98.2002 68.203 98.5774 67.5283 99.0998 66.9266C99.6221 66.3067 100.232 65.8235 100.928 65.477C101.644 65.1306 102.389 64.9574 103.163 64.9574C103.491 64.9574 103.811 64.9847 104.12 65.0394C104.43 65.0941 104.691 65.158 104.904 65.2309L103.801 69.4976C103.569 69.3882 103.288 69.297 102.959 69.2241C102.63 69.1329 102.292 69.0873 101.944 69.0873C101.479 69.0873 101.044 69.1694 100.638 69.3335C100.251 69.4793 99.9123 69.6981 99.6221 69.9899C99.3319 70.2634 99.0998 70.5916 98.9257 70.9745C98.7709 71.3574 98.6935 71.7768 98.6935 72.2326V79.7266H94.5437Z" fill="#19AAEB"/>
    <path d="M113.32 80.0001C111.656 80.0001 110.205 79.681 108.967 79.0429C107.729 78.4047 106.761 77.5295 106.065 76.4172C105.368 75.305 105.02 74.0286 105.02 72.5882C105.02 71.4759 105.214 70.4548 105.601 69.5249C105.988 68.595 106.529 67.7927 107.226 67.1181C107.922 66.4252 108.744 65.8964 109.692 65.5317C110.66 65.1488 111.704 64.9574 112.826 64.9574C113.871 64.9574 114.838 65.1397 115.728 65.5044C116.618 65.8508 117.382 66.3523 118.021 67.0087C118.679 67.6468 119.182 68.4035 119.53 69.2788C119.878 70.154 120.033 71.1112 119.994 72.1506L119.965 73.354H107.632L106.964 70.9745H116.57L116.106 71.4668V70.8651C116.067 70.3728 115.893 69.9261 115.583 69.5249C115.293 69.1238 114.916 68.8138 114.451 68.595C113.987 68.3762 113.465 68.2668 112.884 68.2668C112.033 68.2668 111.308 68.4218 110.708 68.7317C110.128 69.0417 109.683 69.4976 109.373 70.0993C109.064 70.701 108.909 71.4303 108.909 72.2873C108.909 73.1625 109.102 73.9192 109.489 74.5574C109.895 75.1956 110.456 75.697 111.172 76.0617C111.907 76.4081 112.768 76.5813 113.755 76.5813C114.432 76.5813 115.051 76.481 115.612 76.2805C116.173 76.0799 116.773 75.7335 117.411 75.2412L119.385 77.8394C118.824 78.3135 118.205 78.7147 117.528 79.0429C116.85 79.3528 116.154 79.5899 115.438 79.754C114.722 79.9181 114.016 80.0001 113.32 80.0001Z" fill="#19AAEB"/>
    <path d="M0 79.7263V65.2579H3.97565L4.06271 68.0203L3.45331 68.1297C3.66611 67.6556 3.94663 67.2271 4.29487 66.8442C4.6431 66.4613 5.04937 66.1331 5.51368 65.8596C5.99734 65.5861 6.50034 65.3764 7.02269 65.2305C7.54504 65.0664 8.06739 64.9844 8.58974 64.9844C9.38293 64.9844 10.0987 65.1029 10.7372 65.3399C11.3756 65.577 11.9173 65.9508 12.3623 66.4613C12.8072 66.9536 13.1555 67.61 13.407 68.4305L12.7685 68.3758L12.9717 67.9382C13.2232 67.5006 13.5424 67.1086 13.9293 66.7622C14.3162 66.3975 14.7515 66.0875 15.2352 65.8322C15.7188 65.5587 16.2218 65.349 16.7442 65.2032C17.2665 65.0573 17.7792 64.9844 18.2822 64.9844C19.4817 64.9844 20.478 65.2123 21.2712 65.6681C22.0644 66.1057 22.6545 66.7713 23.0414 67.6647C23.4477 68.5582 23.6508 69.6522 23.6508 70.9468V79.7263H19.53V71.2203C19.53 70.5639 19.4333 70.026 19.2398 69.6066C19.0464 69.1872 18.7659 68.8773 18.3983 68.6767C18.0307 68.4579 17.5567 68.3485 16.9763 68.3485C16.5314 68.3485 16.1154 68.4214 15.7285 68.5673C15.3609 68.6949 15.032 68.8864 14.7418 69.1416C14.471 69.3787 14.2582 69.6613 14.1034 69.9895C13.9486 70.3177 13.8713 70.6824 13.8713 71.0835V79.7263H9.75051V71.1929C9.75051 70.5912 9.6441 70.0807 9.4313 69.6613C9.23783 69.2237 8.95731 68.8955 8.58974 68.6767C8.22216 68.4579 7.76752 68.3485 7.22582 68.3485C6.78086 68.3485 6.36492 68.4214 5.97799 68.5673C5.61041 68.6949 5.2912 68.8864 5.02035 69.1416C4.7495 69.3787 4.52702 69.6613 4.35291 69.9895C4.19814 70.3177 4.12075 70.6733 4.12075 71.0562V79.7263H0Z" fill="#59CD56"/>
    <g clip-path="url(#clip0_1041_10552)">
        <path d="M84.5142 15.5859V40.8611C84.5142 41.8953 83.6769 42.735 82.6455 42.735H68.6161C67.5819 42.735 66.7473 41.8953 66.7473 40.8611V31.8587C66.9303 31.7169 67.1078 31.564 67.2824 31.4083L83.0558 17.1846C83.5993 16.6953 84.0872 16.1587 84.5142 15.5859Z" fill="#19AAEB"/>
        <path d="M48.9499 25.1749C49.3076 27.1239 50.1893 28.9978 51.6061 30.5769C52.058 31.083 52.5543 31.5417 53.0839 31.9504V40.861C53.0839 41.8953 52.2465 42.7349 51.2151 42.7349H37.1829C36.1515 42.7349 35.3142 41.8953 35.3142 40.861V8.90499C35.3142 6.78089 36.0684 4.65123 37.5933 2.94972C40.8761 -0.709074 46.4934 -1.00656 50.1394 2.28524L58.2576 9.60561L53.0839 14.2709L52.4351 14.8575C49.4573 17.5432 48.2679 21.4883 48.9499 25.1749Z" fill="#19AAEB"/>
        <path d="M53.142 28.9562L53.084 28.9034V28.8867C53.0978 28.909 53.1172 28.934 53.142 28.9562Z" fill="#A8D735"/>
        <path d="M82.2352 2.94983C82.1798 2.88867 82.1243 2.8275 82.0689 2.76912C82.0134 2.71073 81.9552 2.65235 81.897 2.59396C81.7833 2.47719 81.6668 2.36876 81.5476 2.26311C80.7713 1.56527 79.8979 1.02869 78.9719 0.653356C78.5449 0.480981 78.1068 0.341969 77.6632 0.23632C76.995 0.0778467 76.3129 0 75.6281 0C74.0394 0 72.4479 0.422596 71.0339 1.28169C70.7982 1.42626 70.5709 1.58196 70.3463 1.74599C70.1217 1.9128 69.9027 2.09352 69.6892 2.28536L59.9157 11.1015L53.9185 16.5091C53.6163 16.7815 53.3391 17.0707 53.084 17.3709C51.6866 19.0196 50.9768 21.0742 50.9768 23.1344C50.9768 25.1945 51.67 27.2213 53.084 28.8867C53.0979 28.9089 53.1173 28.9339 53.1422 28.9562C53.1783 29.0007 53.2171 29.0451 53.2559 29.0896C53.694 29.579 54.1736 30.0071 54.6866 30.3769C54.7891 30.4492 54.8917 30.5215 54.9971 30.591C55.4795 30.9079 55.9897 31.1748 56.5193 31.3889C56.6607 31.4473 56.8048 31.5001 56.949 31.5529C57.0932 31.603 57.2401 31.6502 57.3871 31.6919C57.6061 31.7559 57.8279 31.8087 58.0525 31.856C58.6486 31.9811 59.2558 32.0422 59.863 32.0422H59.9656C61.2549 32.0256 62.5441 31.7309 63.7336 31.1526C63.9776 31.033 64.216 30.9023 64.4517 30.7606C64.923 30.4742 65.375 30.1378 65.7992 29.7569L66.6975 28.9478C66.7169 28.9284 66.7336 28.9061 66.7474 28.8867V28.9006L81.5726 15.5304C83.519 13.7761 84.5115 11.3517 84.5143 8.91622V8.9051C84.5143 6.78378 83.7629 4.65134 82.2352 2.94983ZM68.7271 24.6301L66.7474 26.415L65.192 27.8191C63.8473 29.034 62.1615 29.6318 60.4841 29.6318C58.5571 29.6318 56.6357 28.845 55.2466 27.2936C52.6459 24.3938 52.8816 19.9287 55.7734 17.3209L61.2909 12.3443L63.0349 10.7706L66.7474 14.9076L72.4535 21.2688L68.7271 24.6301Z" fill="#59CD56"/>
        <path d="M66.7473 28.8867V28.9006L66.6975 28.9479C66.7169 28.9284 66.7335 28.9062 66.7473 28.8867Z" fill="#A8D735"/>
        <path d="M78.9718 0.653364C78.5448 0.480989 78.1067 0.341977 77.6631 0.236328C78.1067 0.339197 78.5448 0.478209 78.9718 0.653364Z" fill="#A8D735"/>
        <path d="M77.6632 0.236328C78.1068 0.341977 78.5449 0.480989 78.9719 0.653364C78.5449 0.478209 78.1068 0.339197 77.6632 0.236328ZM53.084 28.8867V28.9034L53.1422 28.9562C53.1173 28.9339 53.0978 28.9089 53.084 28.8867Z" fill="#A8D735"/>
        <path d="M72.4532 21.2687L68.7268 24.63L66.7472 26.4149L65.1918 27.8189C63.8471 29.0339 62.1613 29.6316 60.4839 29.6316C58.5569 29.6316 56.6355 28.8448 55.2464 27.2935C52.6457 24.3937 52.8814 19.9286 55.7732 17.3207L61.2907 12.3441L63.0347 10.7705L66.7472 14.9075L72.4532 21.2687Z" fill="white"/>
    </g>
</svg>
