<svg width="123" height="80" viewBox="0 0 123 80" fill="none" xmlns="http://www.w3.org/2000/svg">
    <g clip-path="url(#clip0_1557_14194)">
        <path d="M86.0487 15.5859V40.8611C86.0487 41.8953 85.2131 42.735 84.1838 42.735H70.1837C69.1517 42.735 68.3188 41.8953 68.3188 40.8611V31.8587C68.5015 31.7169 68.6785 31.564 68.8528 31.4083L84.5933 17.1846C85.1356 16.6953 85.6226 16.1587 86.0487 15.5859Z" fill="#19AAEB"/>
        <path d="M50.5587 25.1749C50.9156 27.1239 51.7954 28.9978 53.2093 30.5769C53.6603 31.083 54.1556 31.5417 54.684 31.9504V40.861C54.684 41.8953 53.8484 42.7349 52.8192 42.7349H38.8163C37.787 42.7349 36.9514 41.8953 36.9514 40.861V8.90499C36.9514 6.78089 37.704 4.65123 39.2257 2.94972C42.5017 -0.709074 48.1073 -1.00656 51.7456 2.28524L59.8469 9.60561L54.684 14.2709L54.0366 14.8575C51.065 17.5432 49.878 21.4883 50.5587 25.1749Z" fill="#19AAEB"/>
        <path d="M54.7422 28.9562L54.6841 28.9034V28.8867C54.6979 28.909 54.7173 28.934 54.7422 28.9562Z" fill="#A8D735"/>
        <path d="M83.7745 2.94983C83.7192 2.88867 83.6638 2.8275 83.6085 2.76912C83.5532 2.71073 83.4951 2.65235 83.437 2.59396C83.3235 2.47719 83.2073 2.36876 83.0883 2.26311C82.3136 1.56527 81.4421 1.02869 80.518 0.653356C80.0919 0.480981 79.6547 0.341969 79.212 0.23632C78.5452 0.0778467 77.8646 0 77.1812 0C75.5958 0 74.0076 0.422596 72.5965 1.28169C72.3613 1.42626 72.1345 1.58196 71.9104 1.74599C71.6862 1.9128 71.4677 2.09352 71.2546 2.28536L61.5016 11.1015L55.5169 16.5091C55.2153 16.7815 54.9386 17.0707 54.6841 17.3709C53.2896 19.0196 52.5813 21.0742 52.5813 23.1344C52.5813 25.1945 53.273 27.2213 54.6841 28.8867C54.6979 28.9089 54.7173 28.9339 54.7422 28.9562C54.7782 29.0007 54.8169 29.0451 54.8556 29.0896C55.2928 29.579 55.7715 30.0071 56.2833 30.3769C56.3857 30.4492 56.4881 30.5215 56.5932 30.591C57.0746 30.9079 57.5837 31.1748 58.1122 31.3889C58.2533 31.4473 58.3972 31.5001 58.541 31.5529C58.6849 31.603 58.8316 31.6502 58.9782 31.6919C59.1968 31.7559 59.4181 31.8087 59.6422 31.856C60.2371 31.9811 60.843 32.0422 61.449 32.0422H61.5514C62.8379 32.0256 64.1245 31.7309 65.3115 31.1526C65.555 31.033 65.7929 30.9023 66.0281 30.7606C66.4984 30.4742 66.9494 30.1378 67.3728 29.7569L68.2692 28.9478C68.2886 28.9284 68.3052 28.9061 68.319 28.8867V28.9006L83.1132 15.5304C85.0556 13.7761 86.0461 11.3517 86.0488 8.91622V8.9051C86.0488 6.78378 85.299 4.65134 83.7745 2.94983ZM70.2945 24.6301L68.319 26.415L66.7668 27.8191C65.4249 29.034 63.7427 29.6318 62.0688 29.6318C60.1458 29.6318 58.2284 28.845 56.8422 27.2936C54.2469 24.3938 54.4821 19.9287 57.3679 17.3209L62.8739 12.3443L64.6142 10.7706L68.319 14.9076L74.0131 21.2688L70.2945 24.6301Z" fill="#44C542"/>
        <path d="M68.3191 28.8867V28.9006L68.2693 28.9479C68.2887 28.9284 68.3053 28.9062 68.3191 28.8867Z" fill="#A8D735"/>
        <path d="M80.5179 0.653364C80.0918 0.480989 79.6546 0.341977 79.2119 0.236328C79.6546 0.339197 80.0918 0.478209 80.5179 0.653364Z" fill="#A8D735"/>
        <path d="M79.212 0.236328C79.6547 0.341977 80.0919 0.480989 80.518 0.653364C80.0919 0.478209 79.6547 0.339197 79.212 0.236328ZM54.6841 28.8867V28.9034L54.7422 28.9562C54.7173 28.9339 54.6979 28.9089 54.6841 28.8867Z" fill="#A8D735"/>
        <path d="M74.0132 21.2687L70.2946 24.63L68.319 26.4149L66.7669 27.8189C65.4249 29.0339 63.7427 29.6316 62.0688 29.6316C60.1458 29.6316 58.2284 28.8448 56.8422 27.2935C54.247 24.3937 54.4821 19.9286 57.3679 17.3207L62.8739 12.3441L64.6143 10.7705L68.319 14.9075L74.0132 21.2687Z" fill="white"/>
    </g>
    <path d="M31.6954 80.0001C30.5757 80.0001 29.6104 79.7722 28.7995 79.3164C28.008 78.8423 27.3902 78.1768 26.9462 77.3198C26.5214 76.4446 26.3091 75.3961 26.3091 74.1745V65.2582H30.4212V73.5454C30.4212 74.2018 30.5371 74.7762 30.7687 75.2685C31.0004 75.7426 31.3286 76.1072 31.7533 76.3625C32.1781 76.6178 32.6993 76.7454 33.3171 76.7454C33.7612 76.7454 34.1762 76.6816 34.5624 76.554C34.9485 76.4081 35.2767 76.2075 35.547 75.9523C35.8172 75.697 36.0296 75.3961 36.184 75.0497C36.3385 74.7033 36.4157 74.3295 36.4157 73.9283V65.2582H40.5279V79.7266H36.6184L36.4736 76.7454L37.2266 76.4172C36.9949 77.0919 36.6088 77.7027 36.0682 78.2497C35.5276 78.7967 34.8809 79.2252 34.128 79.5352C33.375 79.8451 32.5642 80.0001 31.6954 80.0001Z" fill="#19AAEB"/>
    <path d="M44.1154 79.7266V59.4873H48.2275V79.7266H44.1154Z" fill="#19AAEB"/>
    <path d="M70.1663 79.7266V61.5933H74.2784V79.7266H70.1663ZM67.2994 68.7317V65.2582H77.406V68.7317H67.2994Z" fill="#19AAEB"/>
    <path d="M86.4895 80.0001C84.9258 80.0001 83.5261 79.681 82.2905 79.0429C81.0742 78.3864 80.109 77.493 79.3946 76.3625C78.6996 75.232 78.3521 73.9374 78.3521 72.4788C78.3521 71.0201 78.6996 69.7346 79.3946 68.6223C80.109 67.4919 81.0742 66.5984 82.2905 65.942C83.5261 65.2856 84.9258 64.9574 86.4895 64.9574C88.034 64.9574 89.4144 65.2856 90.6307 65.942C91.8662 66.5984 92.8315 67.4919 93.5265 68.6223C94.2216 69.7346 94.5691 71.0201 94.5691 72.4788C94.5691 73.9374 94.2216 75.232 93.5265 76.3625C92.8315 77.493 91.8662 78.3864 90.6307 79.0429C89.4144 79.681 88.034 80.0001 86.4895 80.0001ZM86.4895 76.6087C87.2425 76.6087 87.9182 76.4355 88.5167 76.089C89.1152 75.7243 89.5785 75.232 89.9067 74.6121C90.2542 73.9739 90.428 73.2628 90.428 72.4788C90.428 71.6765 90.2542 70.9654 89.9067 70.3454C89.5785 69.7072 89.1152 69.2149 88.5167 68.8685C87.9182 68.5038 87.2425 68.3215 86.4895 68.3215C85.7173 68.3215 85.032 68.5038 84.4335 68.8685C83.835 69.2332 83.362 69.7255 83.0145 70.3454C82.667 70.9654 82.5029 71.6765 82.5222 72.4788C82.5029 73.2628 82.667 73.9739 83.0145 74.6121C83.362 75.232 83.835 75.7243 84.4335 76.089C85.032 76.4355 85.7173 76.6087 86.4895 76.6087Z" fill="#19AAEB"/>
    <path d="M97.0837 79.7266V65.2582H101.051L101.196 69.9078L100.501 68.9506C100.733 68.203 101.109 67.5283 101.63 66.9266C102.152 66.3067 102.76 65.8235 103.455 65.477C104.169 65.1306 104.912 64.9574 105.685 64.9574C106.013 64.9574 106.331 64.9847 106.64 65.0394C106.949 65.0941 107.21 65.158 107.422 65.2309L106.322 69.4976C106.09 69.3882 105.81 69.297 105.482 69.2241C105.154 69.1329 104.816 69.0873 104.468 69.0873C104.005 69.0873 103.571 69.1694 103.165 69.3335C102.779 69.4793 102.441 69.6981 102.152 69.9899C101.862 70.2634 101.63 70.5916 101.457 70.9745C101.302 71.3574 101.225 71.7768 101.225 72.2326V79.7266H97.0837Z" fill="#19AAEB"/>
    <path d="M115.821 80.0001C114.16 80.0001 112.712 79.681 111.477 79.0429C110.241 78.4047 109.276 77.5295 108.581 76.4172C107.886 75.305 107.538 74.0286 107.538 72.5882C107.538 71.4759 107.731 70.4548 108.118 69.5249C108.504 68.595 109.044 67.7927 109.739 67.1181C110.434 66.4252 111.255 65.8964 112.201 65.5317C113.166 65.1488 114.209 64.9574 115.328 64.9574C116.371 64.9574 117.336 65.1397 118.224 65.5044C119.112 65.8508 119.875 66.3523 120.512 67.0087C121.168 67.6468 121.67 68.4035 122.018 69.2788C122.365 70.154 122.52 71.1112 122.481 72.1506L122.452 73.354H110.145L109.479 70.9745H119.064L118.601 71.4668V70.8651C118.562 70.3728 118.388 69.9261 118.079 69.5249C117.79 69.1238 117.413 68.8138 116.95 68.595C116.487 68.3762 115.965 68.2668 115.386 68.2668C114.537 68.2668 113.813 68.4218 113.214 68.7317C112.635 69.0417 112.191 69.4976 111.882 70.0993C111.573 70.701 111.419 71.4303 111.419 72.2873C111.419 73.1625 111.612 73.9192 111.998 74.5574C112.403 75.1956 112.963 75.697 113.678 76.0617C114.411 76.4081 115.27 76.5813 116.255 76.5813C116.931 76.5813 117.548 76.481 118.108 76.2805C118.668 76.0799 119.267 75.7335 119.904 75.2412L121.873 77.8394C121.313 78.3135 120.695 78.7147 120.02 79.0429C119.344 79.3528 118.649 79.5899 117.935 79.754C117.22 79.9181 116.516 80.0001 115.821 80.0001Z" fill="#19AAEB"/>
    <path d="M23.4367 59.4873V79.6582H18.506V67.5614L13.9789 79.6582H9.99977L5.4439 67.5327V79.6582H0.513184V59.4873H6.33777L12.0182 73.4518L17.6409 59.4873H23.4367Z" fill="#44C542"/>
    <path d="M51.4924 73.3421L55.3923 72.5325C55.7107 75.2312 57.0371 76.5806 59.3718 76.5806C61.1227 76.5206 62.0513 75.741 62.1574 74.2417C62.1574 73.1022 61.5472 72.2626 60.3268 71.7229C59.0534 71.2431 57.8861 70.8533 56.8249 70.5534C53.5883 69.7738 52.023 67.8847 52.1291 64.8861C52.4475 61.5277 54.5964 59.7286 58.5759 59.4887C62.7145 59.4287 65.1552 61.2879 65.8981 65.0661L61.9982 65.9656C61.7329 63.9866 60.6452 62.997 58.735 62.997C57.1963 63.057 56.3739 63.6867 56.2678 64.8861C56.1617 66.0256 57.1963 66.8652 59.3718 67.4049C60.9105 67.7648 62.29 68.3045 63.5104 69.0242C65.3675 70.1037 66.3225 71.7829 66.3756 74.0618C66.2164 77.8999 63.9083 79.879 59.4513 79.9989C54.9413 80.0589 52.2883 77.84 51.4924 73.3421Z" fill="#19AAEB"/>
    <defs>
        <clipPath id="clip0_1557_14194">
            <rect width="49.0974" height="42.735" fill="white" transform="translate(36.9514)"/>
        </clipPath>
    </defs>
</svg>
