<svg width="28" height="28" viewBox="0 0 28 28" fill="none" xmlns="http://www.w3.org/2000/svg">
<path d="M22.75 6.125H19.7176L18.2274 3.88965C18.1475 3.76979 18.0392 3.67151 17.9122 3.60354C17.7852 3.53556 17.6434 3.5 17.4994 3.5H10.4994C10.3553 3.5 10.2135 3.53556 10.0865 3.60354C9.95948 3.67151 9.85123 3.76979 9.77133 3.88965L8.2811 6.125H5.25C4.55405 6.1258 3.88683 6.40261 3.39472 6.89472C2.90261 7.38683 2.6258 8.05405 2.625 8.75V21C2.6258 21.6959 2.90261 22.3632 3.39472 22.8553C3.88683 23.3474 4.55405 23.6242 5.25 23.625H22.75C23.4459 23.6242 24.1132 23.3474 24.6053 22.8553C25.0974 22.3632 25.3742 21.6959 25.375 21V8.75C25.3742 8.05405 25.0974 7.38683 24.6053 6.89472C24.1132 6.40261 23.4459 6.1258 22.75 6.125ZM17.9375 14.4375C17.9375 15.2163 17.7066 15.9775 17.2739 16.6251C16.8413 17.2726 16.2263 17.7773 15.5068 18.0753C14.7873 18.3733 13.9956 18.4513 13.2318 18.2993C12.468 18.1474 11.7664 17.7724 11.2158 17.2217C10.6651 16.6711 10.2901 15.9695 10.1382 15.2057C9.98623 14.4419 10.0642 13.6502 10.3622 12.9307C10.6602 12.2112 11.1649 11.5962 11.8124 11.1636C12.46 10.7309 13.2212 10.5 14 10.5C15.0439 10.5012 16.0448 10.9164 16.7829 11.6546C17.5211 12.3927 17.9363 13.3936 17.9375 14.4375Z" fill="#19AAEB"/>
</svg>
