<svg width="24" height="24" viewBox="0 0 24 24" fill="none" xmlns="http://www.w3.org/2000/svg">
<path d="M12 2.25C10.0716 2.25 8.18657 2.82183 6.58319 3.89317C4.97982 4.96452 3.73013 6.48726 2.99218 8.26884C2.25422 10.0504 2.06114 12.0108 2.43735 13.9021C2.81355 15.7934 3.74215 17.5307 5.10571 18.8943C6.46928 20.2579 8.20656 21.1865 10.0979 21.5627C11.9892 21.9389 13.9496 21.7458 15.7312 21.0078C17.5127 20.2699 19.0355 19.0202 20.1068 17.4168C21.1782 15.8134 21.75 13.9284 21.75 12C21.747 9.41506 20.7188 6.93684 18.891 5.10901C17.0632 3.28118 14.5849 2.25299 12 2.25ZM15.375 9C15.5975 9 15.815 9.06598 16 9.1896C16.185 9.31321 16.3292 9.48891 16.4144 9.69448C16.4995 9.90005 16.5218 10.1262 16.4784 10.3445C16.435 10.5627 16.3278 10.7632 16.1705 10.9205C16.0132 11.0778 15.8127 11.185 15.5945 11.2284C15.3763 11.2718 15.1501 11.2495 14.9445 11.1644C14.7389 11.0792 14.5632 10.935 14.4396 10.75C14.316 10.565 14.25 10.3475 14.25 10.125C14.25 9.82664 14.3686 9.5405 14.5795 9.32952C14.7905 9.11855 15.0766 9.00002 15.375 9ZM8.625 9C8.84751 9 9.06502 9.06598 9.25002 9.1896C9.43503 9.31321 9.57922 9.48891 9.66437 9.69448C9.74952 9.90005 9.7718 10.1262 9.72839 10.3445C9.68498 10.5627 9.57783 10.7632 9.4205 10.9205C9.26317 11.0778 9.06271 11.185 8.84448 11.2284C8.62625 11.2718 8.40005 11.2495 8.19449 11.1644C7.98892 11.0792 7.81322 10.935 7.6896 10.75C7.56598 10.565 7.5 10.3475 7.5 10.125C7.50002 9.82664 7.61855 9.5405 7.82953 9.32952C8.0405 9.11855 8.32664 9.00002 8.625 9ZM16.5473 14.6253C16.0863 15.4233 15.4234 16.086 14.6252 16.5467C13.827 17.0074 12.9216 17.25 12 17.25C11.0784 17.25 10.173 17.0075 9.37479 16.5468C8.57658 16.086 7.91367 15.4234 7.45267 14.6253C7.40336 14.5401 7.37132 14.4459 7.35839 14.3483C7.34546 14.2506 7.35189 14.1514 7.37731 14.0563C7.40273 13.9611 7.44664 13.8719 7.50654 13.7937C7.56644 13.7155 7.64115 13.6499 7.72641 13.6006C7.81168 13.5513 7.90581 13.5192 8.00345 13.5063C8.10109 13.4934 8.20033 13.4998 8.29548 13.5252C8.39064 13.5506 8.47986 13.5945 8.55804 13.6544C8.63623 13.7143 8.70185 13.7891 8.75116 13.8743C9.08044 14.4446 9.55402 14.9182 10.1243 15.2474C10.6946 15.5767 11.3415 15.75 12.0001 15.75C12.6586 15.75 13.3055 15.5767 13.8758 15.2474C14.4461 14.9181 14.9197 14.4446 15.2489 13.8743C15.2982 13.789 15.3639 13.7143 15.4421 13.6544C15.5202 13.5945 15.6095 13.5506 15.7046 13.5252C15.7998 13.4998 15.899 13.4934 15.9966 13.5063C16.0943 13.5192 16.1884 13.5513 16.2736 13.6006C16.3589 13.6499 16.4336 13.7155 16.4935 13.7937C16.5534 13.8719 16.5973 13.9611 16.6227 14.0562C16.6481 14.1514 16.6546 14.2506 16.6416 14.3483C16.6287 14.4459 16.5967 14.54 16.5473 14.6253Z" fill="#19AAEB"/>
</svg>
