<svg width="28" height="28" viewBox="0 0 28 28" fill="none" xmlns="http://www.w3.org/2000/svg">
<path d="M24.4393 12.4729L5.96419 2.1269C5.65334 1.95283 5.29676 1.87779 4.94211 1.9118C4.58746 1.94581 4.25164 2.08726 3.97953 2.31723C3.70742 2.5472 3.51199 2.85475 3.41934 3.19877C3.32669 3.54278 3.34125 3.90688 3.46107 4.2424L6.63337 13.1249H14.8751C15.1071 13.1249 15.3297 13.217 15.4938 13.3811C15.6579 13.5452 15.7501 13.7678 15.7501 13.9999C15.7501 14.2319 15.6579 14.4545 15.4938 14.6186C15.3297 14.7827 15.1071 14.8749 14.8751 14.8749H6.63337L3.46107 23.7573C3.36728 24.0213 3.33811 24.304 3.37598 24.5816C3.41385 24.8592 3.51768 25.1238 3.67875 25.353C3.83983 25.5823 4.05349 25.7696 4.30183 25.8994C4.55017 26.0292 4.82598 26.0975 5.10617 26.0988C5.40686 26.0983 5.70235 26.0204 5.9643 25.8728L24.4392 15.5268C24.7106 15.3748 24.9366 15.1532 25.0939 14.8848C25.2512 14.6164 25.3341 14.311 25.3341 13.9999C25.3342 13.6888 25.2512 13.3833 25.094 13.1149C24.9367 12.8465 24.7107 12.6249 24.4393 12.4729Z" fill="#19AAEB"/>
</svg>
