<svg width="28" height="28" viewBox="0 0 28 28" fill="none" xmlns="http://www.w3.org/2000/svg">
<path d="M13.9993 19.2495C15.3911 19.248 16.7254 18.6946 17.7097 17.7105C18.6939 16.7264 19.2476 15.3922 19.2493 14.0004V6.99951C19.2493 5.60713 18.6961 4.27177 17.7116 3.2872C16.727 2.30264 15.3917 1.74951 13.9993 1.74951C12.6069 1.74951 11.2715 2.30264 10.287 3.2872C9.30239 4.27177 8.74927 5.60713 8.74927 6.99951V13.9995C8.75079 15.3914 9.3044 16.7259 10.2886 17.7101C11.2729 18.6944 12.6073 19.248 13.9993 19.2495Z" fill="#19AAEB"/>
<path d="M21.9222 14.0054C21.692 13.9823 21.4618 14.0504 21.2813 14.1952C21.1007 14.34 20.9841 14.5498 20.9567 14.7796C20.7646 16.4904 19.9489 18.0705 18.6654 19.2179C17.3819 20.3653 15.7206 20.9995 13.999 20.9994C12.2774 20.9993 10.6162 20.3649 9.33286 19.2173C8.0495 18.0698 7.23397 16.4896 7.0421 14.7787C7.01386 14.5493 6.89707 14.3401 6.71667 14.1956C6.53627 14.0511 6.30655 13.9828 6.07653 14.0054C5.84577 14.031 5.63463 14.1472 5.48947 14.3284C5.34431 14.5096 5.27701 14.741 5.30236 14.9718C5.52509 16.9574 6.42401 18.806 7.84827 20.2073C9.27252 21.6086 11.1354 22.4774 13.1244 22.6679V25.3744C13.1244 25.6065 13.2166 25.829 13.3807 25.9931C13.5448 26.1572 13.7673 26.2494 13.9994 26.2494C14.2314 26.2494 14.454 26.1572 14.6181 25.9931C14.7822 25.829 14.8744 25.6065 14.8744 25.3744V22.668C16.8636 22.478 18.7269 21.6092 20.1513 20.2076C21.5756 18.806 22.4743 16.9569 22.6964 14.971C22.7217 14.7403 22.6544 14.509 22.5092 14.3279C22.364 14.1468 22.1529 14.0308 21.9222 14.0054Z" fill="#19AAEB"/>
</svg>
