<svg width="24" height="24" viewBox="0 0 24 24" fill="none" xmlns="http://www.w3.org/2000/svg">
<path d="M7.71695 12.0688C8.61339 13.9201 10.1103 15.4131 11.9638 16.3048C12.1005 16.3696 12.2518 16.3976 12.4026 16.3861C12.5535 16.3747 12.6987 16.3241 12.8241 16.2395L15.5464 14.421C15.6667 14.3394 15.8057 14.2896 15.9504 14.2763C16.0951 14.2629 16.2409 14.2865 16.374 14.3447L21.4703 16.5335C21.6445 16.606 21.79 16.7337 21.8844 16.8971C21.9789 17.0604 22.017 17.2502 21.993 17.4373C21.8315 18.698 21.2161 19.8567 20.2621 20.6965C19.308 21.5363 18.0806 21.9997 16.8096 22C12.8819 22 9.11498 20.4397 6.33764 17.6624C3.5603 14.885 2 11.1181 2 7.19038C2.00029 5.91936 2.46369 4.692 3.30349 3.73795C4.1433 2.7839 5.30196 2.16854 6.56267 2.00701C6.74979 1.98298 6.93963 2.02112 7.10294 2.11557C7.26626 2.21001 7.394 2.35553 7.46649 2.5297L9.65527 7.63685C9.71219 7.7679 9.736 7.91094 9.7246 8.05336C9.71321 8.19578 9.66696 8.33322 9.58993 8.45355L7.7714 11.2195C7.69043 11.3446 7.64292 11.4883 7.63338 11.6371C7.62385 11.7858 7.65262 11.9344 7.71695 12.0688Z" fill="#19AAEB"/>
</svg>
