<svg width="28" height="28" viewBox="0 0 28 28" fill="none" xmlns="http://www.w3.org/2000/svg">

    <path d="M24.6788 4.48577H19.8038V2.62863C19.8038 2.50095 19.6993 2.39648 19.5716 2.39648H17.9466C17.819 2.39648 17.7145 2.50095 17.7145 2.62863V4.48577H10.2859V2.62863C10.2859 2.50095 10.1815 2.39648 10.0538 2.39648H8.42878C8.3011 2.39648 8.19664 2.50095 8.19664 2.62863V4.48577H3.32164C2.80802 4.48577 2.39307 4.90073 2.39307 5.41434V24.6822C2.39307 25.1958 2.80802 25.6108 3.32164 25.6108H24.6788C25.1924 25.6108 25.6074 25.1958 25.6074 24.6822V5.41434C25.6074 4.90073 25.1924 4.48577 24.6788 4.48577ZM23.5181 23.5215H4.48235V6.57506H8.19664V7.96791C8.19664 8.09559 8.3011 8.20006 8.42878 8.20006H10.0538C10.1815 8.20006 10.2859 8.09559 10.2859 7.96791V6.57506H17.7145V7.96791C17.7145 8.09559 17.819 8.20006 17.9466 8.20006H19.5716C19.6993 8.20006 19.8038 8.09559 19.8038 7.96791V6.57506H23.5181V23.5215ZM19.1074 11.334H17.5056C17.3576 11.334 17.2154 11.4065 17.1283 11.5255L12.7495 17.5554L10.8721 14.9728C10.785 14.8539 10.6457 14.7813 10.4949 14.7813H8.89307C8.70445 14.7813 8.59418 14.996 8.70445 15.1498L12.3723 20.1989C12.4157 20.2583 12.4724 20.3066 12.538 20.3399C12.6035 20.3732 12.676 20.3905 12.7495 20.3905C12.8231 20.3905 12.8955 20.3732 12.9611 20.3399C13.0266 20.3066 13.0834 20.2583 13.1268 20.1989L19.296 11.7054C19.4062 11.5487 19.296 11.334 19.1074 11.334Z"
          fill="#7CB305"/>
</svg>
