<svg width="28" height="28" viewBox="0 0 28 28" fill="none" xmlns="http://www.w3.org/2000/svg">
<path d="M25.7495 19.248H24.062V14.873H15.062V11.998H22.4995C22.7745 11.998 22.9995 11.773 22.9995 11.498V3.24805C22.9995 2.97305 22.7745 2.74805 22.4995 2.74805H5.49951C5.22451 2.74805 4.99951 2.97305 4.99951 3.24805V11.498C4.99951 11.773 5.22451 11.998 5.49951 11.998H12.937V14.873H3.93701V19.248H2.24951C2.11201 19.248 1.99951 19.3605 1.99951 19.498V24.998C1.99951 25.1355 2.11201 25.248 2.24951 25.248H7.74951C7.88701 25.248 7.99951 25.1355 7.99951 24.998V19.498C7.99951 19.3605 7.88701 19.248 7.74951 19.248H6.06201V16.998H12.937V19.248H11.2495C11.112 19.248 10.9995 19.3605 10.9995 19.498V24.998C10.9995 25.1355 11.112 25.248 11.2495 25.248H16.7495C16.887 25.248 16.9995 25.1355 16.9995 24.998V19.498C16.9995 19.3605 16.887 19.248 16.7495 19.248H15.062V16.998H21.937V19.248H20.2495C20.112 19.248 19.9995 19.3605 19.9995 19.498V24.998C19.9995 25.1355 20.112 25.248 20.2495 25.248H25.7495C25.887 25.248 25.9995 25.1355 25.9995 24.998V19.498C25.9995 19.3605 25.887 19.248 25.7495 19.248ZM5.99951 23.1637C5.99951 23.2105 5.96201 23.248 5.91514 23.248H4.08076C4.03389 23.248 3.99639 23.2105 3.99639 23.1637V21.3293C3.99639 21.2824 4.03389 21.2449 4.08076 21.2449H5.91514C5.96201 21.2449 5.99951 21.2824 5.99951 21.3293V23.1637ZM14.9995 23.1637C14.9995 23.2105 14.962 23.248 14.9151 23.248H13.0808C13.0339 23.248 12.9964 23.2105 12.9964 23.1637V21.3293C12.9964 21.2824 13.0339 21.2449 13.0808 21.2449H14.9151C14.962 21.2449 14.9995 21.2824 14.9995 21.3293V23.1637ZM6.99951 9.99805V4.74805H20.9995V9.99805H6.99951ZM23.9995 23.1637C23.9995 23.2105 23.962 23.248 23.9151 23.248H22.0808C22.0339 23.248 21.9964 23.2105 21.9964 23.1637V21.3293C21.9964 21.2824 22.0339 21.2449 22.0808 21.2449H23.9151C23.962 21.2449 23.9995 21.2824 23.9995 21.3293V23.1637ZM9.24951 7.37305C9.24951 7.70457 9.38121 8.02251 9.61563 8.25693C9.85005 8.49135 10.168 8.62305 10.4995 8.62305C10.831 8.62305 11.149 8.49135 11.3834 8.25693C11.6178 8.02251 11.7495 7.70457 11.7495 7.37305C11.7495 7.04153 11.6178 6.72358 11.3834 6.48916C11.149 6.25474 10.831 6.12305 10.4995 6.12305C10.168 6.12305 9.85005 6.25474 9.61563 6.48916C9.38121 6.72358 9.24951 7.04153 9.24951 7.37305Z" fill="#F5222D"/>
</svg>
