<svg width="28" height="28" viewBox="0 0 28 28" fill="none" xmlns="http://www.w3.org/2000/svg">
<path d="M5.85049 10.0977H8.00049V12.2477C8.00049 12.3039 8.05674 12.3477 8.12549 12.3477H9.62549C9.69424 12.3477 9.75049 12.3039 9.75049 12.2445V10.0977H11.9005C11.9567 10.0977 12.0005 10.0414 12.0005 9.97266V8.47266C12.0005 8.40391 11.9567 8.34766 11.8974 8.34766H9.75049V6.19766C9.75049 6.14141 9.69424 6.09766 9.62549 6.09766H8.12549C8.05674 6.09766 8.00049 6.14141 8.00049 6.19766V8.34766H5.85049C5.79424 8.34766 5.75049 8.40391 5.75049 8.47266V9.97266C5.75049 10.0414 5.79424 10.0977 5.85049 10.0977ZM16.1005 10.0977H22.1505C22.2067 10.0977 22.2505 10.0414 22.2505 9.97266V8.47266C22.2505 8.40391 22.2067 8.34766 22.1474 8.34766H16.1005C16.0442 8.34766 16.0005 8.40391 16.0005 8.47266V9.97266C16.0005 10.0414 16.0442 10.0977 16.1005 10.0977ZM16.1005 18.3789H22.1505C22.2067 18.3789 22.2505 18.3227 22.2505 18.2539V16.7539C22.2505 16.6852 22.2067 16.6289 22.1474 16.6289H16.1005C16.0442 16.6289 16.0005 16.6852 16.0005 16.7539V18.2539C16.0005 18.3227 16.0442 18.3789 16.1005 18.3789ZM16.1005 21.6289H22.1505C22.2067 21.6289 22.2505 21.5727 22.2505 21.5039V20.0039C22.2505 19.9352 22.2067 19.8789 22.1474 19.8789H16.1005C16.0442 19.8789 16.0005 19.9352 16.0005 20.0039V21.5039C16.0005 21.5727 16.0442 21.6289 16.1005 21.6289ZM9.98486 19.0977L11.8974 16.757C12.0317 16.5945 11.9192 16.3477 11.713 16.3477H10.1255C10.0536 16.3477 9.98486 16.3789 9.94111 16.4383L8.87861 17.7383L7.81611 16.4383C7.79376 16.4107 7.7657 16.3884 7.73387 16.3727C7.70204 16.3571 7.6672 16.3485 7.63174 16.3477H6.04111C5.83486 16.3477 5.72236 16.5945 5.85674 16.757L7.76924 19.0977L5.80986 21.4977C5.67236 21.6602 5.78486 21.907 5.99111 21.907H7.57861C7.65049 21.907 7.71924 21.8758 7.76299 21.8164L8.87236 20.457L9.98174 21.8164C10.0286 21.8727 10.0974 21.907 10.1661 21.907H11.7536C11.9599 21.907 12.0724 21.6602 11.938 21.4977L9.98486 19.0977ZM25.5005 1.50391H2.50049C1.94736 1.50391 1.50049 1.95078 1.50049 2.50391V25.5039C1.50049 26.057 1.94736 26.5039 2.50049 26.5039H25.5005C26.0536 26.5039 26.5005 26.057 26.5005 25.5039V2.50391C26.5005 1.95078 26.0536 1.50391 25.5005 1.50391ZM24.3755 24.3789H3.62549V3.62891H24.3755V24.3789Z" fill="#0050B3"/>
</svg>
