<svg width="28" height="28" viewBox="0 0 28 28" fill="none" xmlns="http://www.w3.org/2000/svg">
    <path d="M14 1.99609C7.37188 1.99609 2 7.36797 2 13.9961V25.2461C2 25.6617 2.33438 25.9961 2.75 25.9961H8.5C9.60313 25.9961 10.5 25.0992 10.5 23.9961V17.4961C10.5 16.393 9.60313 15.4961 8.5 15.4961H4.25V13.9961C4.25 8.61172 8.61563 4.24609 14 4.24609C19.3844 4.24609 23.75 8.61172 23.75 13.9961V15.4961H19.5C18.3969 15.4961 17.5 16.393 17.5 17.4961V23.9961C17.5 25.0992 18.3969 25.9961 19.5 25.9961H25.25C25.6656 25.9961 26 25.6617 26 25.2461V13.9961C26 7.36797 20.6281 1.99609 14 1.99609ZM8.25 17.7461V23.7461H4.25V17.7461H8.25ZM23.75 23.7461H19.75V17.7461H23.75V23.7461Z"
          fill="#9254DE"/>
</svg>
