<svg width="28" height="28" viewBox="0 0 28 28" fill="none" xmlns="http://www.w3.org/2000/svg">

    <path d="M21.1676 8.85658C21.1676 4.88114 17.9466 1.66016 13.9711 1.66016C9.99568 1.66016 6.7747 4.88114 6.7747 8.85658C6.7747 11.2593 7.95282 13.3892 9.76354 14.695C9.75193 14.7008 9.74322 14.7037 9.73742 14.7066C8.44032 15.255 7.2767 16.0414 6.27559 17.0454C5.28025 18.039 4.48784 19.2167 3.94255 20.5131C3.40605 21.7825 3.11651 23.1426 3.08943 24.5204C3.08865 24.5514 3.09409 24.5822 3.1054 24.611C3.11672 24.6399 3.1337 24.6662 3.15533 24.6883C3.17697 24.7105 3.20282 24.7281 3.23137 24.7402C3.25992 24.7522 3.29059 24.7584 3.32157 24.7584H5.05974C5.18452 24.7584 5.28898 24.6568 5.29188 24.532C5.34992 22.2919 6.24657 20.1939 7.83385 18.6037C9.47336 16.9584 11.6497 16.053 13.9711 16.053C17.9466 16.053 21.1676 12.832 21.1676 8.85658ZM13.9711 13.8477C11.2144 13.8477 8.98005 11.6133 8.98005 8.85658C8.98005 6.09989 11.2144 3.86551 13.9711 3.86551C16.7278 3.86551 18.9622 6.09989 18.9622 8.85658C18.9622 11.6133 16.7278 13.8477 13.9711 13.8477ZM17.018 20.2606H24.6787C24.8064 20.2606 24.9109 20.1561 24.9109 20.0285V18.4035C24.9109 18.2758 24.8064 18.1713 24.6787 18.1713H19.5571L20.9267 16.4273C20.9583 16.3866 20.9756 16.3367 20.976 16.2852C20.976 16.1575 20.8716 16.053 20.7439 16.053H18.6372C18.495 16.053 18.3615 16.1198 18.2716 16.23L16.2838 18.7575C16.1562 18.92 16.0865 19.1231 16.0865 19.332C16.0894 19.8456 16.5044 20.2606 17.018 20.2606V20.2606ZM23.9823 22.1177H16.3216C16.1939 22.1177 16.0894 22.2222 16.0894 22.3499V23.9749C16.0894 24.1026 16.1939 24.207 16.3216 24.207H21.4432L20.0736 25.951C20.042 25.9917 20.0247 26.0417 20.0242 26.0932C20.0242 26.2209 20.1287 26.3253 20.2564 26.3253H22.3631C22.5053 26.3253 22.6388 26.2586 22.7287 26.1483L24.7164 23.6209C24.8441 23.4584 24.9138 23.2552 24.9138 23.0463C24.9109 22.5327 24.4959 22.1177 23.9823 22.1177V22.1177Z"
          fill="#08979C"/>
</svg>
