<svg width="28" height="28" viewBox="0 0 28 28" fill="none" xmlns="http://www.w3.org/2000/svg">
<g clip-path="url(#clip0_6430_13097)">
<path d="M14 0C6.26875 0 0 6.26875 0 14C0 21.7313 6.26875 28 14 28C21.7313 28 28 21.7313 28 14C28 6.26875 21.7313 0 14 0ZM14 25.625C7.58125 25.625 2.375 20.4188 2.375 14C2.375 7.58125 7.58125 2.375 14 2.375C20.4188 2.375 25.625 7.58125 25.625 14C25.625 20.4188 20.4188 25.625 14 25.625ZM15.4906 13.275L14.6969 13.0906V8.89375C15.8844 9.05625 16.6187 9.8 16.7437 10.7125C16.7594 10.8375 16.8656 10.9281 16.9906 10.9281H18.3937C18.5406 10.9281 18.6562 10.8 18.6437 10.6531C18.4531 8.70625 16.85 7.45625 14.7094 7.24063V6.21875C14.7094 6.08125 14.5969 5.96875 14.4594 5.96875H13.5813C13.4438 5.96875 13.3313 6.08125 13.3313 6.21875V7.25C11.1187 7.46562 9.3875 8.6875 9.3875 10.9688C9.3875 13.0813 10.9438 14.1 12.5781 14.4906L13.35 14.6875V19.1469C11.9688 18.9625 11.1938 18.225 11.0344 17.2313C11.0156 17.1125 10.9094 17.025 10.7875 17.025H9.34375C9.19687 17.025 9.08125 17.15 9.09375 17.2969C9.23438 19.0156 10.5375 20.5969 13.3188 20.8V21.7812C13.3188 21.9188 13.4313 22.0312 13.5688 22.0312H14.4562C14.5937 22.0312 14.7062 21.9188 14.7062 21.7781L14.7 20.7875C17.1469 20.5719 18.8969 19.2625 18.8969 16.9125C18.8938 14.7438 17.5156 13.775 15.4906 13.275ZM13.3469 12.7688C13.1719 12.7188 13.025 12.6719 12.8781 12.6125C11.8219 12.2312 11.3313 11.6156 11.3313 10.8219C11.3313 9.6875 12.1906 9.04063 13.3469 8.89375V12.7688ZM14.6969 19.1562V14.9781C14.7937 15.0062 14.8812 15.0281 14.9719 15.0469C16.45 15.4969 16.9469 16.1219 16.9469 17.0812C16.9469 18.3031 16.0281 19.0375 14.6969 19.1562Z" fill="#08979C"/>
</g>
<defs>
<clipPath id="clip0_6430_13097">
<rect width="28" height="28" fill="white"/>
</clipPath>
</defs>
</svg>
