<svg width="28" height="28" viewBox="0 0 28 28" fill="none" xmlns="http://www.w3.org/2000/svg">
<path d="M23.7563 19.8765C22.9741 19.0937 22.0602 18.4548 21.0563 17.989C22.472 16.8421 23.3751 15.0921 23.3751 13.1296C23.3751 9.66714 20.4876 6.82652 17.0251 6.87964C13.6157 6.93277 10.8688 9.71089 10.8688 13.1296C10.8688 15.0921 11.7751 16.8421 13.1876 17.989C12.1835 18.4544 11.2695 19.0934 10.4876 19.8765C8.78133 21.5859 7.81258 23.8421 7.75008 26.2484C7.74924 26.2817 7.75509 26.3149 7.76728 26.346C7.77947 26.377 7.79776 26.4053 7.82105 26.4292C7.84435 26.4531 7.8722 26.4721 7.90294 26.485C7.93369 26.498 7.96672 26.5047 8.00008 26.5046H9.75008C9.88445 26.5046 9.99695 26.3984 10.0001 26.264C10.0595 24.4515 10.7938 22.7546 12.0845 21.4671C12.7449 20.8032 13.5305 20.2768 14.3957 19.9185C15.2609 19.5602 16.1886 19.377 17.1251 19.3796C19.0282 19.3796 20.8188 20.1203 22.1657 21.4671C23.4532 22.7546 24.1876 24.4515 24.2501 26.264C24.2532 26.3984 24.3657 26.5046 24.5001 26.5046H26.2501C26.2834 26.5047 26.3165 26.498 26.3472 26.485C26.378 26.4721 26.4058 26.4531 26.4291 26.4292C26.4524 26.4053 26.4707 26.377 26.4829 26.346C26.4951 26.3149 26.5009 26.2817 26.5001 26.2484C26.4376 23.8421 25.4688 21.5859 23.7563 19.8765ZM17.1251 17.1296C16.0563 17.1296 15.0501 16.714 14.297 15.9578C13.919 15.5828 13.6204 15.1355 13.4191 14.6426C13.2178 14.1498 13.1178 13.6214 13.1251 13.089C13.1345 12.064 13.5438 11.0734 14.2595 10.339C15.0095 9.57027 16.0126 9.14214 17.0845 9.12964C18.1438 9.12027 19.172 9.53277 19.9282 10.2734C20.7032 11.0328 21.1282 12.0484 21.1282 13.1296C21.1282 14.1984 20.7126 15.2015 19.9563 15.9578C19.5853 16.3306 19.144 16.6261 18.6581 16.8272C18.1721 17.0284 17.651 17.1312 17.1251 17.1296ZM9.29695 13.9546C9.26883 13.6828 9.2532 13.4078 9.2532 13.1296C9.2532 12.6328 9.30008 12.1484 9.38758 11.6765C9.40945 11.564 9.35008 11.4484 9.24695 11.4015C8.82195 11.2109 8.43133 10.9484 8.09383 10.6171C7.69614 10.2315 7.3832 9.76727 7.17497 9.25396C6.96674 8.74065 6.8678 8.18958 6.88445 7.63589C6.91258 6.63277 7.3157 5.67964 8.01883 4.96089C8.7907 4.17026 9.8282 3.73901 10.9313 3.75151C11.9282 3.76089 12.8907 4.14526 13.6188 4.82651C13.8657 5.05777 14.0782 5.31401 14.2563 5.58902C14.3188 5.68589 14.4407 5.72651 14.547 5.68901C15.097 5.49839 15.6782 5.36401 16.2751 5.30151C16.4501 5.28276 16.5501 5.09526 16.472 4.93901C15.4563 2.92964 13.3813 1.54214 10.9813 1.50464C7.5157 1.45151 4.6282 4.29214 4.6282 7.75152C4.6282 9.71402 5.53133 11.464 6.94695 12.6109C5.9532 13.0703 5.03758 13.7046 4.24383 14.4984C2.53133 16.2078 1.56258 18.464 1.50008 20.8734C1.49924 20.9067 1.50509 20.9399 1.51728 20.971C1.52947 21.002 1.54776 21.0303 1.57105 21.0542C1.59435 21.0781 1.6222 21.0971 1.65294 21.11C1.68369 21.123 1.71672 21.1297 1.75008 21.1296H3.5032C3.63758 21.1296 3.75008 21.0234 3.7532 20.889C3.81258 19.0765 4.54695 17.3796 5.83758 16.0921C6.75633 15.1734 7.88133 14.5359 9.10945 14.2265C9.23133 14.1953 9.31258 14.0796 9.29695 13.9546Z" fill="#876800"/>
</svg>
