<svg width="28" height="28" viewBox="0 0 28 28" fill="none" xmlns="http://www.w3.org/2000/svg">

    <path d="M24.6305 10.5252L17.4805 3.37522C17.2919 3.18661 17.0452 3.09375 16.7986 3.09375C16.5519 3.09375 16.3053 3.18661 16.1167 3.37522L11.4419 8.0529C11.0879 8.01228 10.7309 7.99487 10.374 7.99487C8.24991 7.99487 6.1258 8.6942 4.38183 10.0929C4.27622 10.1777 4.18966 10.2838 4.12779 10.4042C4.06592 10.5247 4.03012 10.6569 4.02273 10.7921C4.01534 10.9273 4.03652 11.0626 4.08489 11.1891C4.13326 11.3156 4.20774 11.4305 4.30348 11.5263L9.57603 16.7989L3.32558 23.0435C3.24899 23.1196 3.20172 23.2203 3.1921 23.3279L3.09344 24.4074C3.06732 24.6801 3.28496 24.9123 3.55482 24.9123C3.56933 24.9123 3.58384 24.9123 3.59835 24.9094L4.67781 24.8107C4.78518 24.802 4.88674 24.7527 4.96219 24.6772L11.2126 18.4268L16.4852 23.6993C16.6738 23.8879 16.9204 23.9808 17.1671 23.9808C17.4486 23.9808 17.7271 23.8589 17.9187 23.621C19.5524 21.581 20.2314 19.0275 19.9557 16.558L24.6305 11.8833C25.0048 11.5118 25.0048 10.9025 24.6305 10.5252ZM18.4758 15.0868L17.7649 15.7978L17.8751 16.796C18.048 18.3399 17.74 19.8996 16.993 21.2618L6.74679 11.0098C7.12112 10.8038 7.50995 10.6297 7.9162 10.4904C8.70549 10.2176 9.5325 10.0812 10.374 10.0812C10.6526 10.0812 10.9341 10.0958 11.2126 10.1277L12.2108 10.2379L12.9218 9.52701L16.8015 5.64732L22.3584 11.2042L18.4758 15.0868Z"
          fill="#D4B106"/>
</svg>
