<svg width="28" height="28" viewBox="0 0 28 28" fill="none" xmlns="http://www.w3.org/2000/svg">

    <path d="M25.3752 13.9978H23.7502C23.6225 13.9978 23.5181 14.1022 23.5181 14.2299V23.5156H4.48235V4.47991H13.7681C13.8957 4.47991 14.0002 4.37545 14.0002 4.24777V2.62277C14.0002 2.49509 13.8957 2.39062 13.7681 2.39062H3.32164C2.80802 2.39062 2.39307 2.80558 2.39307 3.3192V24.6763C2.39307 25.19 2.80802 25.6049 3.32164 25.6049H24.6788C25.1924 25.6049 25.6074 25.19 25.6074 24.6763V14.2299C25.6074 14.1022 25.5029 13.9978 25.3752 13.9978Z"
          fill="#FA541C"/>
    <path d="M9.47033 14.6623L9.4152 18.1125C9.4123 18.3708 9.62122 18.5826 9.87948 18.5826H9.89109L13.3152 18.4984C13.3732 18.4955 13.4313 18.4723 13.4719 18.4317L25.5404 6.38929C25.6304 6.29933 25.6304 6.15134 25.5404 6.06138L21.9335 2.45737C21.8871 2.41094 21.829 2.39062 21.7681 2.39062C21.7072 2.39062 21.6491 2.41384 21.6027 2.45737L9.53707 14.4998C9.49516 14.5436 9.47133 14.6016 9.47033 14.6623ZM11.313 15.3471L21.7681 4.91518L23.0797 6.22388L12.6188 16.6616L11.2927 16.6935L11.313 15.3471Z"
          fill="#FA541C"/>
</svg>
