<svg width="28" height="28" viewBox="0 0 28 28" fill="none" xmlns="http://www.w3.org/2000/svg">

    <path d="M23.4757 12.3268L23.4707 12.3064L20.6218 5.06758C20.4949 4.65879 20.1166 4.37695 19.6875 4.37695H8.13981C7.70817 4.37695 7.32477 4.66387 7.20289 5.07773L4.53942 12.243L4.5318 12.2607L4.52672 12.2811C4.49371 12.4055 4.48356 12.5324 4.50133 12.6568C4.49879 12.6975 4.49625 12.7381 4.49625 12.7787V22.0691C4.49692 22.4784 4.65978 22.8706 4.94915 23.16C5.23851 23.4494 5.63078 23.6122 6.04 23.6129H21.965C22.8156 23.6129 23.5088 22.9197 23.5113 22.0691V12.7787C23.5113 12.7457 23.5113 12.7127 23.5088 12.6848C23.5189 12.5604 23.5088 12.441 23.4757 12.3268ZM15.9652 11.235L15.9576 11.6336C15.9373 12.7736 15.1502 13.5404 14 13.5404C13.4388 13.5404 12.9564 13.3602 12.6086 13.0174C12.2607 12.6746 12.0703 12.1973 12.0601 11.6336L12.0525 11.235H6.82711L8.84567 6.32695H18.9816L21.056 11.235H15.9652ZM6.44371 13.185H10.4377C11.0547 14.6348 12.3673 15.4904 14.0025 15.4904C14.8582 15.4904 15.6529 15.2518 16.2953 14.7998C16.8589 14.4037 17.2982 13.8502 17.5826 13.185H21.5562V21.6629H6.44371V13.185Z"
          fill="#5B8C00"/>
</svg>
