<svg width="28" height="28" viewBox="0 0 28 28" fill="none" xmlns="http://www.w3.org/2000/svg">

    <path d="M24.6788 2.39648C24.5685 2.39648 24.4553 2.4168 24.3422 2.46323L7.61628 9.18376H2.85735C2.60199 9.18376 2.39307 9.39849 2.39307 9.66546V18.3418C2.39307 18.6088 2.60199 18.8235 2.85735 18.8235H5.80847C5.7011 19.1601 5.64307 19.517 5.64307 19.8797C5.64307 21.792 7.20423 23.3474 9.12521 23.3474C10.7328 23.3474 12.0879 22.2563 12.4884 20.7822L24.3451 25.5469C24.4582 25.5905 24.5714 25.6137 24.6817 25.6137C25.1721 25.6137 25.6103 25.2016 25.6103 24.6503V3.35988C25.6074 2.80854 25.1721 2.39648 24.6788 2.39648ZM9.12521 21.2668C8.35624 21.2668 7.73235 20.6458 7.73235 19.8797C7.73235 19.5547 7.84552 19.2443 8.05155 18.9976L10.5152 19.9871C10.4571 20.701 9.85646 21.2668 9.12521 21.2668ZM23.5181 22.9614L8.39396 16.8851L8.01963 16.7342H4.48235V11.273H8.01963L8.39396 11.1222L23.5181 5.04581V22.9614Z"
          fill="#13C2C2"/>
</svg>
