<svg width="28" height="28" viewBox="0 0 28 28" fill="none" xmlns="http://www.w3.org/2000/svg">

    <path d="M25.9269 7.36788C25.5379 6.46727 24.9771 5.65115 24.2758 4.9652C23.5739 4.2772 22.7464 3.73046 21.8383 3.35471C20.8966 2.96353 19.8866 2.7633 18.8669 2.76565C17.4363 2.76565 16.0405 3.15739 14.8276 3.89734C14.5374 4.07435 14.2617 4.26877 14.0006 4.4806C13.7394 4.26877 13.4637 4.07435 13.1736 3.89734C11.9606 3.15739 10.5648 2.76565 9.13426 2.76565C8.10413 2.76565 7.10592 2.96297 6.16284 3.35471C5.25167 3.73194 4.43047 4.27457 3.72533 4.9652C3.02309 5.65038 2.46212 6.46669 2.07422 7.36788C1.67087 8.30516 1.46484 9.30047 1.46484 10.3248C1.46484 11.2911 1.66217 12.298 2.05391 13.3223C2.38181 14.1784 2.8519 15.0663 3.45257 15.963C4.40435 17.3819 5.71306 18.8619 7.33806 20.3621C10.0309 22.8489 12.6977 24.5668 12.8108 24.6364L13.4986 25.0775C13.8032 25.2719 14.195 25.2719 14.4997 25.0775L15.1874 24.6364C15.3006 24.5639 17.9644 22.8489 20.6602 20.3621C22.2852 18.8619 23.5939 17.3819 24.5457 15.963C25.1463 15.0663 25.6193 14.1784 25.9443 13.3223C26.3361 12.298 26.5334 11.2911 26.5334 10.3248C26.5363 9.30047 26.3302 8.30516 25.9269 7.36788V7.36788ZM14.0006 22.7822C14.0006 22.7822 3.6702 16.1632 3.6702 10.3248C3.6702 7.36788 6.11641 4.971 9.13426 4.971C11.2555 4.971 13.0952 6.15493 14.0006 7.8844C14.9059 6.15493 16.7456 4.971 18.8669 4.971C21.8847 4.971 24.3309 7.36788 24.3309 10.3248C24.3309 16.1632 14.0006 22.7822 14.0006 22.7822Z"
          fill="#F5222D"/>
</svg>
