<svg width="28" height="29" viewBox="0 0 28 29" fill="none" xmlns="http://www.w3.org/2000/svg">
<rect y="0.00195312" width="28" height="28" rx="4" fill="white"/>
<path d="M23.2856 12.6127H21.3124V6.11272C21.3124 4.06116 19.6497 2.39844 17.5981 2.39844H10.4017C8.35015 2.39844 6.68743 4.06116 6.68743 6.11272V12.6127H4.71422C4.2006 12.6127 3.78564 13.0277 3.78564 13.5413V24.6842C3.78564 25.1978 4.2006 25.6127 4.71422 25.6127H23.2856C23.7993 25.6127 24.2142 25.1978 24.2142 24.6842V13.5413C24.2142 13.0277 23.7993 12.6127 23.2856 12.6127ZM8.77672 6.11272C8.77672 5.21607 9.50506 4.48772 10.4017 4.48772H17.5981C18.4948 4.48772 19.2231 5.21607 19.2231 6.11272V12.6127H8.77672V6.11272ZM22.1249 23.5234H5.87493V14.702H22.1249V23.5234ZM13.1874 19.49V21.0279C13.1874 21.1556 13.2919 21.26 13.4196 21.26H14.5803C14.708 21.26 14.8124 21.1556 14.8124 21.0279V19.49C15.052 19.318 15.2308 19.0744 15.3231 18.7944C15.4154 18.5143 15.4164 18.2122 15.3261 17.9315C15.2358 17.6508 15.0587 17.406 14.8204 17.2324C14.5821 17.0587 14.2948 16.9651 13.9999 16.9651C13.7051 16.9651 13.4178 17.0587 13.1795 17.2324C12.9412 17.406 12.7641 17.6508 12.6738 17.9315C12.5834 18.2122 12.5845 18.5143 12.6768 18.7944C12.7691 19.0744 12.9479 19.318 13.1874 19.49Z" fill="#389E0D"/>
</svg>
