<svg width="28" height="28" viewBox="0 0 28 28" fill="none" xmlns="http://www.w3.org/2000/svg">

    <path d="M25.0845 12.5477C25.9811 12.5477 26.3555 11.3956 25.6271 10.8646L14.5452 2.80346C14.3869 2.68751 14.1959 2.625 13.9997 2.625C13.8035 2.625 13.6124 2.68751 13.4541 2.80346L2.37221 10.8646C1.64386 11.3927 2.0182 12.5477 2.91775 12.5477H4.71395V23.4003H2.62467C2.49699 23.4003 2.39253 23.5048 2.39253 23.6325V25.1414C2.39253 25.2691 2.49699 25.3736 2.62467 25.3736H25.3747C25.5023 25.3736 25.6068 25.2691 25.6068 25.1414V23.6325C25.6068 23.5048 25.5023 23.4003 25.3747 23.4003H23.2854V12.5477H25.0845ZM13.9997 4.84922L21.8664 10.5715H6.13293L13.9997 4.84922ZM6.80324 12.5477H10.1983V23.4003H6.80324V12.5477ZM12.2876 12.5477H15.6827V23.4003H12.2876V12.5477ZM21.1961 23.4003H17.772V12.5477H21.1961V23.4003Z"
          fill="#EB2F96"/>
</svg>
