<svg width="28" height="28" viewBox="0 0 28 28" fill="none" xmlns="http://www.w3.org/2000/svg">

    <path d="M24.0539 21.2973C23.5065 20.0007 22.7121 18.8229 21.715 17.8296C20.721 16.8335 19.5434 16.0392 18.2474 15.4908C18.2358 15.485 18.2242 15.4821 18.2126 15.4763C20.0204 14.1705 21.1956 12.0435 21.1956 9.6437C21.1956 5.66825 17.9746 2.44727 13.9992 2.44727C10.0237 2.44727 6.80274 5.66825 6.80274 9.6437C6.80274 12.0435 7.97796 14.1705 9.78577 15.4792C9.77417 15.485 9.76256 15.4879 9.75095 15.4937C8.45095 16.0421 7.28443 16.8285 6.28332 17.8325C5.28716 18.8266 4.49293 20.0041 3.94448 21.3002C3.40568 22.569 3.1151 23.9293 3.08845 25.3075C3.08768 25.3385 3.09311 25.3693 3.10443 25.3982C3.11575 25.427 3.13272 25.4533 3.15436 25.4755C3.17599 25.4976 3.20185 25.5152 3.2304 25.5273C3.25895 25.5393 3.28961 25.5455 3.32059 25.5455H5.06167C5.18934 25.5455 5.29091 25.4439 5.29381 25.3191C5.35184 23.079 6.2514 20.981 7.84158 19.3908C9.48689 17.7455 11.6719 16.8401 13.9992 16.8401C16.3264 16.8401 18.5114 17.7455 20.1568 19.3908C21.7469 20.981 22.6465 23.079 22.7045 25.3191C22.7074 25.4468 22.809 25.5455 22.9367 25.5455H24.6777C24.7087 25.5455 24.7394 25.5393 24.7679 25.5273C24.7965 25.5152 24.8223 25.4976 24.844 25.4755C24.8656 25.4533 24.8826 25.427 24.8939 25.3982C24.9052 25.3693 24.9107 25.3385 24.9099 25.3075C24.8809 23.9205 24.5936 22.5712 24.0539 21.2973V21.2973ZM13.9992 14.6348C12.6672 14.6348 11.4137 14.1153 10.4706 13.1723C9.52751 12.2292 9.00809 10.9756 9.00809 9.6437C9.00809 8.31178 9.52751 7.0582 10.4706 6.11512C11.4137 5.17204 12.6672 4.65262 13.9992 4.65262C15.3311 4.65262 16.5847 5.17204 17.5277 6.11512C18.4708 7.0582 18.9902 8.31178 18.9902 9.6437C18.9902 10.9756 18.4708 12.2292 17.5277 13.1723C16.5847 14.1153 15.3311 14.6348 13.9992 14.6348Z"
          fill="#056DD9"/>
</svg>
