<svg width="28" height="28" viewBox="0 0 28 28" fill="none" xmlns="http://www.w3.org/2000/svg">

    <path d="M24.4343 18.8217H9.31416L10.0733 17.2754L22.6874 17.2525C23.114 17.2525 23.4796 16.9479 23.5558 16.5264L25.3026 6.74844C25.3483 6.49199 25.2798 6.22793 25.1122 6.02734C25.0294 5.92863 24.9261 5.84911 24.8094 5.7943C24.6928 5.7395 24.5657 5.71072 24.4368 5.70996L8.38994 5.65664L8.25283 5.01172C8.1665 4.60039 7.7958 4.30078 7.37432 4.30078H3.45146C3.21375 4.30078 2.98578 4.39521 2.81769 4.5633C2.64961 4.73138 2.55518 4.95936 2.55518 5.19707C2.55518 5.43478 2.64961 5.66276 2.81769 5.83084C2.98578 5.99893 3.21375 6.09336 3.45146 6.09336H6.64814L7.24736 8.94219L8.72256 16.0846L6.82334 19.1848C6.72471 19.3179 6.6653 19.4759 6.65184 19.6411C6.63838 19.8062 6.6714 19.9718 6.74717 20.1191C6.89951 20.4213 7.20674 20.6117 7.54697 20.6117H9.1415C8.80157 21.0632 8.61796 21.6132 8.61846 22.1783C8.61846 23.6154 9.78643 24.7834 11.2235 24.7834C12.6606 24.7834 13.8286 23.6154 13.8286 22.1783C13.8286 21.6121 13.6407 21.0611 13.3056 20.6117H17.396C17.0561 21.0632 16.8724 21.6132 16.8729 22.1783C16.8729 23.6154 18.0409 24.7834 19.478 24.7834C20.9151 24.7834 22.0831 23.6154 22.0831 22.1783C22.0831 21.6121 21.8952 21.0611 21.5601 20.6117H24.4368C24.9294 20.6117 25.3331 20.2105 25.3331 19.7154C25.3316 19.478 25.2363 19.2507 25.0679 19.0833C24.8995 18.9159 24.6717 18.8218 24.4343 18.8217V18.8217ZM8.76318 7.42383L23.3831 7.47207L21.9511 15.4904L10.4669 15.5107L8.76318 7.42383ZM11.2235 22.9807C10.7817 22.9807 10.4212 22.6201 10.4212 22.1783C10.4212 21.7365 10.7817 21.376 11.2235 21.376C11.6653 21.376 12.0259 21.7365 12.0259 22.1783C12.0259 22.3911 11.9413 22.5952 11.7909 22.7457C11.6404 22.8961 11.4363 22.9807 11.2235 22.9807V22.9807ZM19.478 22.9807C19.0362 22.9807 18.6757 22.6201 18.6757 22.1783C18.6757 21.7365 19.0362 21.376 19.478 21.376C19.9198 21.376 20.2804 21.7365 20.2804 22.1783C20.2804 22.3911 20.1958 22.5952 20.0454 22.7457C19.8949 22.8961 19.6908 22.9807 19.478 22.9807V22.9807Z"
          fill="#FFA940"/>
</svg>
