<svg width="28" height="28" viewBox="0 0 28 28" fill="none" xmlns="http://www.w3.org/2000/svg">
<g clip-path="url(#clip0_6430_13218)">
<path d="M25 14.1845H13.8125V2.99704C13.8125 2.85954 13.7 2.74704 13.5625 2.74704H12.75C11.1085 2.74436 9.48256 3.06628 7.96588 3.6943C6.44919 4.32232 5.07166 5.24403 3.91252 6.40642C2.77099 7.54442 1.86143 8.89337 1.23439 10.3783C0.58191 11.9184 0.247096 13.5744 0.250019 15.247C0.247331 16.8886 0.569257 18.5145 1.19728 20.0312C1.82529 21.5479 2.74701 22.9254 3.90939 24.0845C5.05627 25.2314 6.39377 26.1345 7.88127 26.7627C9.42139 27.4152 11.0774 27.75 12.75 27.747C14.3916 27.7497 16.0175 27.4278 17.5342 26.7998C19.0508 26.1718 20.4284 25.2501 21.5875 24.0877C22.7344 22.9408 23.6375 21.6033 24.2656 20.1158C24.9181 18.5757 25.2529 16.9197 25.25 15.247V14.4345C25.25 14.297 25.1375 14.1845 25 14.1845ZM20.0531 22.6158C19.0855 23.5759 17.9379 24.3357 16.6761 24.8515C15.4143 25.3674 14.0632 25.6292 12.7 25.622C9.94689 25.6095 7.35939 24.5314 5.41252 22.5845C3.45314 20.6252 2.37502 18.0189 2.37502 15.247C2.37502 12.4752 3.45314 9.86892 5.41252 7.90954C7.11877 6.20329 9.31564 5.16267 11.6875 4.92517V16.3095H23.0719C22.8313 18.6939 21.7813 20.9033 20.0531 22.6158ZM27.75 12.447L27.6688 11.5658C27.4031 8.68767 26.125 5.97204 24.0688 3.92204C22.0111 1.86828 19.301 0.597247 16.4063 0.328293L15.5219 0.247043C15.375 0.234543 15.25 0.347043 15.25 0.493918V12.497C15.25 12.6345 15.3625 12.747 15.5 12.747L27.5 12.7158C27.6469 12.7158 27.7625 12.5908 27.75 12.447ZM17.3688 10.6283V2.60954C19.3373 3.02157 21.1438 3.99647 22.5688 5.41579C23.9969 6.84079 24.975 8.65329 25.3813 10.6064L17.3688 10.6283Z" fill="#389E0D"/>
</g>
<defs>
<clipPath id="clip0_6430_13218">
<rect width="28" height="28" fill="white"/>
</clipPath>
</defs>
</svg>
