<svg width="28" height="28" viewBox="0 0 28 28" fill="none" xmlns="http://www.w3.org/2000/svg">

    <g clip-path="url(#clip0_6430_9459)">
        <path d="M7.96395 7.26786H9.58895C9.71663 7.26786 9.82109 7.16339 9.82109 7.03571C9.82109 6.21451 9.9923 5.49196 10.3173 4.9029C10.6249 4.33996 11.0718 3.89308 11.6347 3.58549C12.2267 3.26339 12.9463 3.08929 13.7675 3.08929H14.2318C15.053 3.08929 15.7756 3.26049 16.3646 3.58549C16.9276 3.89308 17.3744 4.33996 17.682 4.9029C18.0041 5.49487 18.1782 6.21451 18.1782 7.03571C18.1782 7.16339 18.2827 7.26786 18.4104 7.26786H20.0354C20.1631 7.26786 20.2675 7.16339 20.2675 7.03571C20.2675 5.875 20.0122 4.81004 19.516 3.89888C19.0227 2.99067 18.2769 2.24482 17.3686 1.75156C16.4575 1.25536 15.3925 1 14.2318 1H13.7675C12.6068 1 11.5418 1.25536 10.6307 1.75156C9.72247 2.24482 8.97663 2.99067 8.48337 3.89888C7.98716 4.81004 7.73181 5.875 7.73181 7.03571C7.73181 7.16339 7.83627 7.26786 7.96395 7.26786Z"
              fill="#D48806"/>
        <path d="M26.4191 13.9947H22.1244V11.0929C24.353 11.0929 26.1579 9.28801 26.1579 7.05944C26.1579 6.93176 26.0535 6.8273 25.9258 6.8273H24.1847C24.057 6.8273 23.9526 6.93176 23.9526 7.05944C23.9526 7.54429 23.76 8.00928 23.4171 8.35212C23.0743 8.69496 22.6093 8.88757 22.1244 8.88757H5.87444C5.38959 8.88757 4.9246 8.69496 4.58176 8.35212C4.23892 8.00928 4.04632 7.54429 4.04632 7.05944C4.04632 6.93176 3.94185 6.8273 3.81417 6.8273H2.0731C1.94542 6.8273 1.84096 6.93176 1.84096 7.05944C1.84096 9.28801 3.64587 11.0929 5.87444 11.0929V13.9947H1.5798C1.45212 13.9947 1.34766 14.0992 1.34766 14.2269V15.8519C1.34766 15.9795 1.45212 16.084 1.5798 16.084H5.87444V18.8697C5.87444 19.0583 5.88025 19.2469 5.89475 19.4298C3.90413 20.28 2.50837 22.2561 2.50837 24.5572C2.50837 24.6849 2.61283 24.7894 2.74051 24.7894H4.36551C4.49319 24.7894 4.59766 24.6849 4.59766 24.5572C4.59766 23.2746 5.29118 22.1516 6.32712 21.5481C6.49916 22.0426 6.7198 22.5189 6.98583 22.9699C7.69096 24.1742 8.69788 25.1811 9.90212 25.8862C11.1064 26.5914 12.505 26.9947 13.9994 26.9947C15.4939 26.9947 16.8954 26.5914 18.0997 25.8862C19.7672 24.9089 21.034 23.3717 21.6747 21.5481C22.2004 21.855 22.6364 22.2943 22.9394 22.8223C23.2423 23.3503 23.4016 23.9485 23.4012 24.5572C23.4012 24.6849 23.5057 24.7894 23.6334 24.7894H25.2584C25.3861 24.7894 25.4905 24.6849 25.4905 24.5572C25.4905 22.2561 24.0948 20.28 22.1041 19.4298C22.1157 19.244 22.1244 19.0583 22.1244 18.8697V16.084H26.4191C26.5468 16.084 26.6512 15.9795 26.6512 15.8519V14.2269C26.6512 14.0992 26.5468 13.9947 26.4191 13.9947ZM19.9191 18.8697C19.9191 19.9376 19.6376 20.959 19.1124 21.8557C18.5988 22.7349 17.8646 23.469 16.9854 23.9827C16.0887 24.5079 15.0673 24.7894 13.9994 24.7894C12.9316 24.7894 11.9102 24.5079 11.0135 23.9827C10.1343 23.469 9.40011 22.7349 8.8865 21.8557C8.3561 20.9501 8.07758 19.9192 8.0798 18.8697V11.0929H19.9191V18.8697Z"
              fill="#D48806"/>
    </g>
    <defs>
        <clipPath id="clip0_6430_9459">
            <rect width="26" height="26" fill="white" transform="translate(1 1)"/>
        </clipPath>
    </defs>
</svg>
