<svg width="28" height="28" viewBox="0 0 28 28" fill="none" xmlns="http://www.w3.org/2000/svg">

    <path d="M19.1077 6.79911C19.1077 6.67143 19.0032 6.56696 18.8756 6.56696H7.7327C7.60502 6.56696 7.50056 6.67143 7.50056 6.79911V8.19197C7.50056 8.31964 7.60502 8.42411 7.7327 8.42411H18.8756C19.0032 8.42411 19.1077 8.31964 19.1077 8.19197V6.79911ZM18.8756 10.7455H7.7327C7.60502 10.7455 7.50056 10.85 7.50056 10.9777V12.3705C7.50056 12.4982 7.60502 12.6027 7.7327 12.6027H18.8756C19.0032 12.6027 19.1077 12.4982 19.1077 12.3705V10.9777C19.1077 10.85 19.0032 10.7455 18.8756 10.7455ZM13.072 14.9241H7.7327C7.60502 14.9241 7.50056 15.0286 7.50056 15.1563V16.5491C7.50056 16.6768 7.60502 16.7813 7.7327 16.7813H13.072C13.1997 16.7813 13.3041 16.6768 13.3041 16.5491V15.1563C13.3041 15.0286 13.1997 14.9241 13.072 14.9241ZM11.6791 23.8616H5.17913V3.43304H21.4291V13.4152C21.4291 13.5429 21.5336 13.6473 21.6613 13.6473H23.2863C23.414 13.6473 23.5184 13.5429 23.5184 13.4152V2.27232C23.5184 1.75871 23.1035 1.34375 22.5898 1.34375H4.01842C3.5048 1.34375 3.08984 1.75871 3.08984 2.27232V25.0223C3.08984 25.5359 3.5048 25.9509 4.01842 25.9509H11.6791C11.8068 25.9509 11.9113 25.8464 11.9113 25.7188V24.0938C11.9113 23.9661 11.8068 23.8616 11.6791 23.8616ZM22.0327 21.7027C22.8742 20.9395 23.4023 19.8368 23.4023 18.6094C23.4023 16.3025 21.5307 14.4308 19.2238 14.4308C16.9169 14.4308 15.0452 16.3025 15.0452 18.6094C15.0452 19.8368 15.5733 20.9395 16.4148 21.7027C14.7608 22.6458 13.6233 24.3926 13.5363 26.4065C13.5305 26.5371 13.6378 26.6473 13.7684 26.6473H15.1642C15.286 26.6473 15.3876 26.5516 15.3963 26.4268C15.5095 24.4188 17.1838 22.817 19.2238 22.817C21.2637 22.817 22.9381 24.4188 23.0512 26.4268C23.057 26.5487 23.1586 26.6473 23.2834 26.6473H24.6791C24.8126 26.6473 24.9171 26.5371 24.9113 26.4065C24.8271 24.3897 23.6867 22.6458 22.0327 21.7027ZM19.2238 16.2879C20.5064 16.2879 21.5452 17.3268 21.5452 18.6094C21.5452 19.892 20.5064 20.9308 19.2238 20.9308C17.9412 20.9308 16.9023 19.892 16.9023 18.6094C16.9023 17.3268 17.9412 16.2879 19.2238 16.2879Z"
          fill="#096DD9"/>
</svg>
