<svg width="28" height="28" viewBox="0 0 28 28" fill="none" xmlns="http://www.w3.org/2000/svg">

    <path d="M17.7319 11.6156H25.1924C25.4216 11.6156 25.6074 11.4299 25.6074 11.2006V3.73722C25.6074 3.50798 25.4216 3.32227 25.1924 3.32227H17.7319C17.5027 3.32227 17.317 3.50798 17.317 3.73722V6.43298H13.3792C13.2661 6.43298 13.1732 6.52584 13.1732 6.63901V13.0665H10.6864V10.2662C10.6864 10.037 10.5007 9.85128 10.2714 9.85128H2.80802C2.57878 9.85128 2.39307 10.037 2.39307 10.2662V17.7296C2.39307 17.9589 2.57878 18.1446 2.80802 18.1446H10.2685C10.4978 18.1446 10.6835 17.9589 10.6835 17.7296V14.9294H13.1703V21.3569C13.1703 21.47 13.2632 21.5629 13.3763 21.5629H17.3141V24.2587C17.3141 24.4879 17.4998 24.6736 17.729 24.6736H25.1895C25.4187 24.6736 25.6045 24.4879 25.6045 24.2587V16.8011C25.6045 16.5718 25.4187 16.3861 25.1895 16.3861H17.7319C17.5027 16.3861 17.317 16.5718 17.317 16.8011V19.7028H15.0361V8.29883H17.317V11.2006C17.317 11.4299 17.5027 11.6156 17.7319 11.6156ZM19.2844 5.29258H23.637V9.64816H19.2844V5.29258ZM8.71606 16.1772H4.36338V11.8245H8.71606V16.1772ZM19.2844 18.3564H23.637V22.712H19.2844V18.3564Z"
          fill="#9254DE"/>
</svg>
