<svg width="28" height="29" viewBox="0 0 28 29" fill="none" xmlns="http://www.w3.org/2000/svg">
<rect y="0.00195312" width="28" height="28" rx="4" fill="white"/>
<path d="M25.8404 21.1992H8.89397C8.76629 21.1992 8.66183 21.3037 8.66183 21.4314V23.0564C8.66183 23.184 8.76629 23.2885 8.89397 23.2885H25.8404C25.9681 23.2885 26.0725 23.184 26.0725 23.0564V21.4314C26.0725 21.3037 25.9681 21.1992 25.8404 21.1992ZM25.8404 4.71708H8.89397C8.76629 4.71708 8.66183 4.82154 8.66183 4.94922V6.57422C8.66183 6.7019 8.76629 6.80636 8.89397 6.80636H25.8404C25.9681 6.80636 26.0725 6.7019 26.0725 6.57422V4.94922C26.0725 4.82154 25.9681 4.71708 25.8404 4.71708ZM25.8404 12.9581H8.89397C8.76629 12.9581 8.66183 13.0626 8.66183 13.1903V14.8153C8.66183 14.943 8.76629 15.0474 8.89397 15.0474H25.8404C25.9681 15.0474 26.0725 14.943 26.0725 14.8153V13.1903C26.0725 13.0626 25.9681 12.9581 25.8404 12.9581ZM5.41183 19.8064H2.04576C1.98192 19.8064 1.92969 19.8586 1.92969 19.9224V20.909C1.92969 20.9729 1.98192 21.0251 2.04576 21.0251H4.14665V21.62H3.11071C3.04688 21.62 2.99464 21.6722 2.99464 21.7361V22.7227C2.99464 22.7865 3.04688 22.8387 3.11071 22.8387H4.14665V23.4626H2.04576C1.98192 23.4626 1.92969 23.5148 1.92969 23.5787V24.5653C1.92969 24.6291 1.98192 24.6814 2.04576 24.6814H5.41183C5.47567 24.6814 5.5279 24.6291 5.5279 24.5653V19.9224C5.5279 19.8586 5.47567 19.8064 5.41183 19.8064ZM2.04576 4.601H3.14844V8.08315C3.14844 8.14699 3.20067 8.19922 3.26451 8.19922H4.42522C4.48906 8.19922 4.54129 8.14699 4.54129 8.08315V3.55636C4.54129 3.42868 4.43683 3.32422 4.30915 3.32422H2.04576C1.98192 3.32422 1.92969 3.37645 1.92969 3.44029V4.48493C1.92969 4.54877 1.98192 4.601 2.04576 4.601ZM5.41183 11.5653H2.04576C1.98192 11.5653 1.92969 11.6175 1.92969 11.6814V12.726C1.92969 12.7898 1.98192 12.8421 2.04576 12.8421H4.03058L1.99062 15.0968C1.95215 15.14 1.93052 15.1956 1.92969 15.2535V16.3242C1.92969 16.3881 1.98192 16.4403 2.04576 16.4403H5.41183C5.47567 16.4403 5.5279 16.3881 5.5279 16.3242V15.2796C5.5279 15.2157 5.47567 15.1635 5.41183 15.1635H3.42701L5.46696 12.9088C5.50544 12.8656 5.52707 12.81 5.5279 12.7521V11.6814C5.5279 11.6175 5.47567 11.5653 5.41183 11.5653Z" fill="#722ED1"/>
</svg>
