<svg width="28" height="28" viewBox="0 0 28 28" fill="none" xmlns="http://www.w3.org/2000/svg">
<path d="M27.75 17.1203C27.8875 17.1203 28 17.0078 28 16.8703V15.1203C28 14.9828 27.8875 14.8703 27.75 14.8703H7.3125C7.08868 14.3161 6.70428 13.8415 6.20869 13.5074C5.7131 13.1733 5.12894 12.995 4.53125 12.9953C2.875 12.9953 1.53125 14.3391 1.53125 15.9953C1.53125 17.6516 2.875 18.9953 4.53125 18.9953C5.79062 18.9953 6.86875 18.2203 7.3125 17.1203H12.0094V21.8703C12.0094 23.5953 13.4094 24.9953 15.1344 24.9953H27.75C27.8875 24.9953 28 24.8828 28 24.7453V22.9953C28 22.8578 27.8875 22.7453 27.75 22.7453H15.1344C14.65 22.7453 14.2594 22.3547 14.2594 21.8703V17.1203H27.75ZM12.25 8.74534H20.5V11.8141C20.5 12.0672 20.7969 12.2141 20.9937 12.0547L26.3844 7.79847C26.5406 7.67659 26.5406 7.44222 26.3844 7.32034L20.9937 3.06097C20.7937 2.90159 20.5 3.04534 20.5 3.30159V6.37034H12.25C12.1125 6.37034 12 6.48284 12 6.62034V8.49534C12 8.63284 12.1125 8.74534 12.25 8.74534Z" fill="#722ED1"/>
</svg>
