<svg width="28" height="29" viewBox="0 0 28 29" fill="none" xmlns="http://www.w3.org/2000/svg">
<rect y="0.00195312" width="28" height="28" rx="4" fill="white"/>
<g clip-path="url(#clip0_6430_9261)">
<path d="M7.7327 6.39481C7.60502 6.39481 7.50056 6.49928 7.50056 6.62695V8.01981C7.50056 8.14749 7.60502 8.25195 7.7327 8.25195H18.8756C19.0032 8.25195 19.1077 8.14749 19.1077 8.01981V6.62695C19.1077 6.49928 19.0032 6.39481 18.8756 6.39481H7.7327ZM13.072 10.5734H7.7327C7.60502 10.5734 7.50056 10.6778 7.50056 10.8055V12.1984C7.50056 12.3261 7.60502 12.4305 7.7327 12.4305H13.072C13.1997 12.4305 13.3041 12.3261 13.3041 12.1984V10.8055C13.3041 10.6778 13.1997 10.5734 13.072 10.5734ZM11.6791 23.8636H5.17913V3.43499H21.4291V12.7207C21.4291 12.8484 21.5336 12.9528 21.6613 12.9528H23.2863C23.414 12.9528 23.5184 12.8484 23.5184 12.7207V2.27427C23.5184 1.76066 23.1035 1.3457 22.5898 1.3457H4.01842C3.5048 1.3457 3.08984 1.76066 3.08984 2.27427V25.0243C3.08984 25.5379 3.5048 25.9528 4.01842 25.9528H11.6791C11.8068 25.9528 11.9113 25.8484 11.9113 25.7207V24.0957C11.9113 23.968 11.8068 23.8636 11.6791 23.8636ZM24.447 21.31H20.2684V20.2479C21.6119 19.8475 22.5898 18.6055 22.5898 17.1314C22.5898 15.3352 21.1361 13.8814 19.3398 13.8814C17.5436 13.8814 16.0898 15.3352 16.0898 17.1314C16.0898 18.6026 17.0677 19.8475 18.4113 20.2479V21.31H14.2327C13.9773 21.31 13.7684 21.5189 13.7684 21.7743V26.185C13.7684 26.4403 13.9773 26.6493 14.2327 26.6493H24.447C24.7023 26.6493 24.9113 26.4403 24.9113 26.185V21.7743C24.9113 21.5189 24.7023 21.31 24.447 21.31ZM17.889 17.1314C17.889 16.3305 18.539 15.6805 19.3398 15.6805C20.1407 15.6805 20.7907 16.3305 20.7907 17.1314C20.7907 17.9323 20.1407 18.5823 19.3398 18.5823C18.539 18.5823 17.889 17.9323 17.889 17.1314ZM23.1122 24.8502H15.5675V23.1091H23.1122V24.8502Z" fill="#614700"/>
</g>
<defs>
<clipPath id="clip0_6430_9261">
<rect width="26" height="26" fill="white" transform="translate(1 1.00195)"/>
</clipPath>
</defs>
</svg>
