<svg width="28" height="28" viewBox="0 0 28 28" fill="none" xmlns="http://www.w3.org/2000/svg">

    <path d="M24.6783 2.39648H3.32115C2.80753 2.39648 2.39258 2.81144 2.39258 3.32506V24.6822C2.39258 25.1958 2.80753 25.6108 3.32115 25.6108H24.6783C25.1919 25.6108 25.6069 25.1958 25.6069 24.6822V3.32506C25.6069 2.81144 25.1919 2.39648 24.6783 2.39648ZM23.5176 15.8608H14.464V12.1465H23.5176V15.8608ZM23.5176 23.5215H4.48186V4.48577H23.5176V10.2893H13.5354C13.0218 10.2893 12.6069 10.7043 12.6069 11.2179V16.7893C12.6069 17.303 13.0218 17.7179 13.5354 17.7179H23.5176V23.5215ZM15.9729 14.0036C15.9729 14.3115 16.0952 14.6067 16.3129 14.8244C16.5306 15.0421 16.8258 15.1643 17.1337 15.1643C17.4415 15.1643 17.7367 15.0421 17.9544 14.8244C18.1721 14.6067 18.2944 14.3115 18.2944 14.0036C18.2944 13.6958 18.1721 13.4006 17.9544 13.1829C17.7367 12.9652 17.4415 12.8429 17.1337 12.8429C16.8258 12.8429 16.5306 12.9652 16.3129 13.1829C16.0952 13.4006 15.9729 13.6958 15.9729 14.0036Z"
          fill="#D48806"/>
</svg>
