<svg width="18" height="20" viewBox="0 0 18 20" fill="none" xmlns="http://www.w3.org/2000/svg">
<path d="M15.0054 10.3551C14.9963 8.74954 15.7526 7.53773 17.2835 6.64527C16.4269 5.46846 15.133 4.821 13.4243 4.69413C11.8068 4.57163 10.039 5.5997 9.39198 5.5997C8.70854 5.5997 7.14116 4.73787 5.91095 4.73787C3.36853 4.77725 0.666626 6.68465 0.666626 10.5651C0.666626 11.7113 0.885329 12.8954 1.32274 14.1174C1.90595 15.7229 4.01097 19.6602 6.20712 19.5946C7.35531 19.5683 8.16633 18.8115 9.66081 18.8115C11.1097 18.8115 11.8615 19.5946 13.1418 19.5946C15.3562 19.564 17.2608 15.9854 17.8166 14.3755C14.8459 13.0324 15.0054 10.4382 15.0054 10.3551ZM12.4265 3.17171C13.6704 1.75428 13.5565 0.463726 13.52 0C12.4219 0.0612468 11.1507 0.717462 10.4263 1.52679C9.62891 2.393 9.15961 3.46482 9.25985 4.67225C10.4491 4.75975 11.5335 4.17353 12.4265 3.17171Z" fill="#9B9B9B"/>
</svg>
