<svg width="80" height="80" viewBox="0 0 80 80" fill="none"
     xmlns="http://www.w3.org/2000/svg">
    <path fill-rule="evenodd" clip-rule="evenodd"
          d="M65 44.5212H15V67.6612C15 68.765 15.7238 69.7387 16.7813 70.0562C21.805 71.5625 35.9325 75.8012 39.2812 76.8062C39.75 76.9462 40.25 76.9462 40.7188 76.8062C44.0675 75.8012 58.195 71.5625 63.2188 70.0562C64.2763 69.7387 65 68.765 65 67.6612C65 61.8662 65 44.5212 65 44.5212Z"
          fill="#E3E3E3"/>
    <path fill-rule="evenodd" clip-rule="evenodd"
          d="M65 44.5212H40C40 44.5212 39.7575 76.9112 40 76.9112C40.2425 76.9112 40.4837 76.8762 40.7187 76.8062C44.0675 75.8012 58.195 71.5625 63.2187 70.0562C64.2762 69.7387 65 68.765 65 67.6612C65 61.8662 65 44.5212 65 44.5212Z"
          fill="#CBCBCB"/>
    <path fill-rule="evenodd" clip-rule="evenodd"
          d="M40 52.6325L15 44.5212C15 44.5212 10.6162 51.0212 8.6562 53.9262C8.4362 54.2525 8.38245 54.6612 8.50995 55.0325C8.6387 55.4037 8.93245 55.6925 9.3062 55.815C14.055 57.3575 28.1125 61.925 31.8 63.1225C32.3287 63.295 32.9087 63.0962 33.2212 62.635C34.8974 60.1612 40 52.6325 40 52.6325Z"
          fill="#F2F2F2"/>
    <path fill-rule="evenodd" clip-rule="evenodd"
          d="M65 44.5212L40 52.6325C40 52.6325 45.1025 60.1612 46.7788 62.635C47.0913 63.0962 47.6713 63.295 48.2 63.1225C51.8875 61.925 65.945 57.3575 70.6938 55.815C71.0675 55.6925 71.3613 55.4037 71.49 55.0325C71.6175 54.6612 71.5638 54.2525 71.3438 53.9262C69.3838 51.0212 65 44.5212 65 44.5212Z"
          fill="#F2F2F2"/>
    <path fill-rule="evenodd" clip-rule="evenodd"
          d="M33.9487 27.4824C33.6362 27.0236 33.0575 26.8249 32.5287 26.9974C28.8437 28.1936 14.7825 32.7624 10.0337 34.3061C9.65999 34.4274 9.36499 34.7161 9.23749 35.0874C9.10999 35.4586 9.16374 35.8686 9.38374 36.1936C11.1887 38.8711 15 44.5211 15 44.5211L40 36.3824C40 36.3824 35.51 29.7786 33.9487 27.4824Z"
          fill="#E3E3E3"/>
    <path fill-rule="evenodd" clip-rule="evenodd"
          d="M70.6162 36.1936C70.8363 35.8686 70.89 35.4586 70.7625 35.0874C70.635 34.7161 70.34 34.4274 69.9662 34.3061C65.2175 32.7624 51.1563 28.1936 47.4713 26.9974C46.9425 26.8249 46.3637 27.0236 46.0512 27.4824C44.49 29.7786 40 36.3824 40 36.3824L65 44.5211C65 44.5211 68.8113 38.8711 70.6162 36.1936Z"
          fill="#F2F2F2"/>
    <path fill-rule="evenodd" clip-rule="evenodd"
          d="M65 44.5213L40 36.3826L15 44.5213L40 52.6326L65 44.5213Z"
          fill="#E3E3E3"/>
    <path fill-rule="evenodd" clip-rule="evenodd"
          d="M40 52.6326V36.3826L15 44.5213L40 52.6326Z" fill="#CBCBCB"/>
    <path fill-rule="evenodd" clip-rule="evenodd"
          d="M34.9775 39.9723C34.4575 39.6323 33.9887 39.2685 33.5725 38.8873C33.065 38.421 32.2737 38.4548 31.8062 38.9635C31.34 39.471 31.3737 40.2623 31.8825 40.7285C32.3937 41.1985 32.97 41.646 33.61 42.0648C34.1875 42.4423 34.9625 42.2798 35.34 41.7023C35.7175 41.1248 35.555 40.3498 34.9775 39.9723Z"
          fill="#9BA9C2"/>
    <path fill-rule="evenodd" clip-rule="evenodd"
          d="M31.0825 36.1324C30.7112 35.6287 30.3975 35.1224 30.14 34.6162C29.8275 34.0012 29.0737 33.7562 28.4587 34.0687C27.8437 34.3812 27.5987 35.1349 27.9112 35.7499C28.2287 36.3724 28.6137 36.9962 29.07 37.6149C29.4787 38.1699 30.2612 38.2887 30.8175 37.8799C31.3725 37.4699 31.4912 36.6874 31.0825 36.1324Z"
          fill="#9BA9C2"/>
    <path fill-rule="evenodd" clip-rule="evenodd"
          d="M29.255 31.0312C29.2675 30.5275 29.3412 30.0387 29.4762 29.57C29.6662 28.9075 29.2825 28.2137 28.6187 28.0237C27.9562 27.8337 27.2625 28.2175 27.0725 28.8812C26.8812 29.5512 26.7737 30.25 26.755 30.9687C26.7387 31.6587 27.2837 32.2325 27.9737 32.2487C28.6637 32.2662 29.2375 31.7212 29.255 31.0312Z"
          fill="#9BA9C2"/>
    <path fill-rule="evenodd" clip-rule="evenodd"
          d="M31.1775 26.8561C31.4988 26.5586 31.8588 26.2836 32.2525 26.0348C32.8363 25.6661 33.0113 24.8936 32.6438 24.3111C32.275 23.7273 31.5025 23.5523 30.9188 23.9198C30.39 24.2536 29.91 24.6223 29.4788 25.0223C28.9725 25.4911 28.9425 26.2823 29.4113 26.7886C29.88 27.2948 30.6713 27.3248 31.1775 26.8561Z"
          fill="#9BA9C2"/>
    <path fill-rule="evenodd" clip-rule="evenodd"
          d="M35.8262 24.6998C36.455 24.5836 37.1212 24.5086 37.8237 24.4798C38.5137 24.4498 39.0487 23.8661 39.02 23.1773C38.9912 22.4886 38.4075 21.9523 37.7175 21.9811C36.8925 22.0161 36.11 22.1048 35.3712 22.2411C34.6937 22.3673 34.2437 23.0198 34.37 23.6973C34.495 24.3761 35.1475 24.8248 35.8262 24.6998Z"
          fill="#9BA9C2"/>
    <path fill-rule="evenodd" clip-rule="evenodd"
          d="M42.3413 24.6262C43.4076 24.6387 44.4001 24.6011 45.3213 24.5199C46.0088 24.4586 46.5176 23.8512 46.4563 23.1637C46.3951 22.4774 45.7876 21.9687 45.1001 22.0299C44.2563 22.1037 43.3476 22.1387 42.3701 22.1262C41.6801 22.1187 41.1138 22.6724 41.1063 23.3611C41.0976 24.0511 41.6513 24.6187 42.3413 24.6262Z"
          fill="#9BA9C2"/>
    <path fill-rule="evenodd" clip-rule="evenodd"
          d="M49.43 23.7537C50.6675 23.3749 51.7125 22.8899 52.5875 22.3337C53.1687 21.9624 53.3412 21.1899 52.97 20.6074C52.6 20.0262 51.8262 19.8537 51.2437 20.2249C50.54 20.6724 49.6962 21.0574 48.6987 21.3624C48.04 21.5649 47.6675 22.2637 47.87 22.9237C48.0712 23.5837 48.7712 23.9549 49.43 23.7537Z"
          fill="#9BA9C2"/>
    <path fill-rule="evenodd" clip-rule="evenodd"
          d="M55.7925 18.8348C56.3825 17.6148 56.6088 16.3248 56.5513 15.0811C56.5188 14.3911 55.9325 13.8586 55.2438 13.8911C54.555 13.9236 54.0213 14.5086 54.0538 15.1973C54.0938 16.0423 53.9413 16.9186 53.5413 17.7473C53.2413 18.3686 53.5013 19.1173 54.1225 19.4173C54.7438 19.7173 55.4925 19.4561 55.7925 18.8348Z"
          fill="#9BA9C2"/>
    <path fill-rule="evenodd" clip-rule="evenodd"
          d="M54.9962 10.6611C54.085 9.42988 52.8487 8.57238 51.5012 8.29613C50.825 8.15863 50.1637 8.59363 50.025 9.26988C49.8875 9.94613 50.3237 10.6074 50.9987 10.7461C51.7762 10.9049 52.4612 11.4386 52.9875 12.1499C53.3987 12.7036 54.1825 12.8199 54.7362 12.4099C55.2912 11.9986 55.4075 11.2149 54.9962 10.6611Z"
          fill="#9BA9C2"/>
    <path fill-rule="evenodd" clip-rule="evenodd"
          d="M38.6663 8.53875C40.0188 0.879996 51.74 1.375 44.9163 8.53875H38.6663Z"
          fill="#E3E3E3"/>
    <path fill-rule="evenodd" clip-rule="evenodd"
          d="M38.6663 10.4788C40.0188 18.1363 51.74 17.6425 44.9163 10.4788H38.6663Z"
          fill="#E3E3E3"/>
    <path fill-rule="evenodd" clip-rule="evenodd"
          d="M38.5537 10.7712H46.9237C47.6137 10.7712 48.1737 10.2112 48.1737 9.52124C48.1737 8.83124 47.6137 8.27124 46.9237 8.27124H38.5537C37.865 8.27124 37.3037 8.83124 37.3037 9.52124C37.3037 10.2112 37.865 10.7712 38.5537 10.7712Z"
          fill="#9BA9C2"/>
</svg>
