<svg width="20" height="20" viewBox="0 0 20 20" fill="none" xmlns="http://www.w3.org/2000/svg">
<path d="M4.43245 12.0863L3.73627 14.6852L1.19176 14.739C0.431331 13.3286 0 11.7149 0 10C0 8.34179 0.403284 6.77804 1.11813 5.40112H1.11868L3.384 5.81644L4.37635 8.06815C4.16866 8.67366 4.05545 9.32366 4.05545 10C4.05553 10.7341 4.1885 11.4374 4.43245 12.0863Z" fill="#FBBB00"/>
<path d="M19.8252 8.13184C19.9401 8.73676 19.9999 9.36148 19.9999 9.99996C19.9999 10.7159 19.9247 11.4143 19.7813 12.0879C19.2945 14.3802 18.0225 16.3818 16.2604 17.7983L16.2598 17.7978L13.4065 17.6522L13.0027 15.1313C14.1719 14.4456 15.0857 13.3725 15.567 12.0879H10.2197V8.13184H15.645H19.8252Z" fill="#518EF8"/>
<path d="M16.2599 17.7977L16.2604 17.7983C14.5467 19.1757 12.3697 19.9999 9.99995 19.9999C6.19168 19.9999 2.88068 17.8713 1.19165 14.7389L4.43233 12.0862C5.27683 14.34 7.45102 15.9444 9.99995 15.9444C11.0955 15.9444 12.122 15.6483 13.0027 15.1312L16.2599 17.7977Z" fill="#28B446"/>
<path d="M16.3831 2.30219L13.1435 4.95437C12.232 4.38461 11.1545 4.05547 10.0001 4.05547C7.39347 4.05547 5.17862 5.73348 4.37643 8.06812L1.11871 5.40109H1.11816C2.78247 2.1923 6.13522 0 10.0001 0C12.4265 0 14.6512 0.864297 16.3831 2.30219Z" fill="#F14336"/>
</svg>
