<svg width="23" height="14" viewBox="0 0 23 14" fill="none" xmlns="http://www.w3.org/2000/svg">
    <path d="M18.8535 7.35355C19.0488 7.15829 19.0488 6.84171 18.8535 6.64645L15.6716 3.46447C15.4763 3.2692 15.1597 3.2692 14.9645 3.46447C14.7692 3.65973 14.7692 3.97631 14.9645 4.17157L17.7929 7L14.9645 9.82843C14.7692 10.0237 14.7692 10.3403 14.9645 10.5355C15.1597 10.7308 15.4763 10.7308 15.6716 10.5355L18.8535 7.35355ZM9.59093 7.5H18.5V6.5H9.59093V7.5Z" fill="black"/>
    <path d="M4.14645 6.64645C3.95119 6.84171 3.95119 7.15829 4.14645 7.35355L7.32843 10.5355C7.5237 10.7308 7.84028 10.7308 8.03554 10.5355C8.2308 10.3403 8.2308 10.0237 8.03554 9.82843L5.20711 7L8.03554 4.17157C8.2308 3.97631 8.2308 3.65973 8.03554 3.46447C7.84028 3.2692 7.5237 3.2692 7.32843 3.46447L4.14645 6.64645ZM13.4091 6.5L4.50001 6.5V7.5L13.4091 7.5V6.5Z" fill="black"/>
    <rect x="1" y="0.5" width="21" height="13" rx="0.5" stroke="black"/>
</svg>
