<svg width="51" height="22" viewBox="0 0 51 22" fill="none" xmlns="http://www.w3.org/2000/svg">
    <path d="M35.125 7.33335H34.6667V4.58335C34.6667 3.57225 33.8444 2.75 32.8333 2.75C31.8222 2.75 31 3.57221 31 4.58245L30.9991 5.0417C30.9987 5.29504 31.2032 5.50047 31.4565 5.50095C31.457 5.50095 31.457 5.50095 31.457 5.50095C31.7103 5.50095 31.9153 5.29641 31.9158 5.0435L31.9167 4.58339C31.9167 4.07808 32.328 3.66674 32.8333 3.66674C33.3386 3.66674 33.75 4.07799 33.75 4.58335V7.33335H15.875C15.1168 7.33335 14.5 7.95012 14.5 8.70835C14.5 9.3051 14.8843 9.80908 15.4167 9.99891V11.4583C15.4167 13.5621 16.5155 15.4106 18.1667 16.4711V18.7917C18.1667 19.045 18.3717 19.25 18.625 19.25H19.5417C19.7153 19.25 19.8738 19.152 19.9517 18.9967L20.7579 17.3845C20.9609 17.4054 21.1666 17.4167 21.375 17.4167H29.625C29.8334 17.4167 30.0391 17.4055 30.2421 17.3845L31.0483 18.9967C31.1262 19.152 31.2847 19.25 31.4583 19.25H32.375C32.6283 19.25 32.8333 19.045 32.8333 18.7917V16.471C34.4845 15.4105 35.5833 13.5621 35.5833 11.4583V9.99887C36.1157 9.80908 36.5 9.3051 36.5 8.70835C36.5 7.95012 35.8832 7.33335 35.125 7.33335ZM20 8.25H24.5833V12.7505L20 11.9869V8.25ZM15.4167 8.70835C15.4167 8.45543 15.6221 8.25 15.875 8.25H19.0833V9.16665H15.875C15.6221 9.16665 15.4167 8.96122 15.4167 8.70835ZM19.2584 18.3333H19.0833V16.9569C19.3218 17.0567 19.5701 17.136 19.8229 17.2044L19.2584 18.3333ZM31.9167 18.3333H31.7416L31.1771 17.2045C31.4299 17.1361 31.6782 17.0567 31.9167 16.957V18.3333ZM34.6667 11.4583C34.6667 14.2383 32.405 16.5 29.625 16.5H21.375C18.595 16.5 16.3333 14.2383 16.3333 11.4583V10.0833H19.0833V12.375C19.0833 12.5993 19.2454 12.7904 19.4665 12.8271L24.9665 13.7437C24.9916 13.7478 25.0166 13.75 25.0417 13.75C25.1495 13.75 25.2547 13.712 25.338 13.6412C25.441 13.5544 25.5 13.4264 25.5 13.2917V10.0833H34.6667V11.4583H34.6667ZM35.125 9.16665H25.5V8.25H35.125C35.3779 8.25 35.5833 8.45543 35.5833 8.70835C35.5833 8.96122 35.3779 9.16665 35.125 9.16665Z" fill="black"/>
</svg>
