<svg width="51" height="22" viewBox="0 0 51 22" fill="none" xmlns="http://www.w3.org/2000/svg">
    <path d="M34.4588 9.98649V5.08728C34.4588 4.00717 33.5801 3.12842 32.5 3.12842H18.5C17.4199 3.12842 16.5412 4.00717 16.5412 5.08728V9.98649C15.3657 10.3119 14.5 11.3904 14.5 12.668V16.3905C14.5 16.7511 14.7924 17.0436 15.1531 17.0436H16.5412V18.2185C16.5412 18.5792 16.8336 18.8717 17.1943 18.8717C17.555 18.8717 17.8474 18.5792 17.8474 18.2185V17.0436H33.1526V18.2185C33.1526 18.5792 33.445 18.8717 33.8057 18.8717C34.1664 18.8717 34.4588 18.5792 34.4588 18.2185V17.0436H35.8469C36.2076 17.0436 36.5 16.7511 36.5 16.3905V12.668C36.5 11.3904 35.6342 10.3119 34.4588 9.98649ZM17.8474 5.08728C17.8474 4.72746 18.1402 4.43467 18.5 4.43467H32.5C32.8598 4.43467 33.1526 4.72746 33.1526 5.08728V9.88543H31.6223V8.57441C31.6223 7.4344 30.6948 6.50696 29.5548 6.50696H26.9144C26.3676 6.50696 25.8701 6.72065 25.5 7.06848C25.13 6.72069 24.6325 6.50696 24.0857 6.50696H21.4453C20.3052 6.50696 19.3778 7.43444 19.3778 8.57441V9.88543H17.8474V5.08728ZM30.316 8.57441V9.88543H26.1531V8.57441C26.1531 8.15464 26.4946 7.81321 26.9143 7.81321H29.5548C29.9746 7.81321 30.316 8.15469 30.316 8.57441ZM24.8468 8.57441V9.88543H20.6839V8.57441C20.6839 8.15464 21.0254 7.81321 21.4451 7.81321H24.0856C24.5054 7.81321 24.8468 8.15469 24.8468 8.57441ZM35.1938 15.7373H15.8062V12.668C15.8062 11.854 16.4685 11.1917 17.2825 11.1917H33.7175C34.5315 11.1917 35.1938 11.8539 35.1938 12.668V15.7373Z" fill="black"/>
</svg>
