<svg width="16" height="14" viewBox="0 0 16 14" fill="none" xmlns="http://www.w3.org/2000/svg">
    <path d="M0.339273 0.0448198C-0.0108656 0.209415 -0.109623 0.637362 0.135774 0.93064C0.291391 1.11618 0.321317 1.12217 1.20414 1.13713L2.01216 1.1521L2.95184 5.08741C3.96336 9.32798 3.9035 9.1155 4.13693 9.28907C4.21773 9.35192 4.22371 9.35192 8.84435 9.3609L13.471 9.36688L13.6026 9.30404C13.851 9.18433 13.8241 9.27112 14.6052 6.11089C15.3743 3.00154 15.3623 3.07337 15.2246 2.85491C15.1917 2.79805 15.1049 2.72024 15.0361 2.67834L14.9074 2.60352H9.23339C5.47164 2.60352 3.55336 2.59455 3.54139 2.5736C3.53242 2.55564 3.40373 2.0439 3.25709 1.4334C2.96382 0.221386 2.94586 0.176497 2.71842 0.059783C2.60769 0.00292301 2.54185 -6.96182e-05 1.51538 -6.96182e-05C0.644522 0.00292301 0.411096 0.0119009 0.339273 0.0448198ZM14.0007 3.76167C14.0007 3.77664 13.7523 4.78216 13.453 6.00017L12.9054 8.21472L8.89223 8.2237L4.8791 8.22968L4.83122 8.02917C4.80728 7.91545 4.57086 6.92489 4.30452 5.82061C4.04116 4.71932 3.82569 3.80058 3.82569 3.77963C3.82569 3.74671 4.82224 3.74073 8.91318 3.74073C11.7113 3.74073 14.0007 3.7497 14.0007 3.76167Z" fill="#5587EA"/>
    <path d="M4.66361 10.2737C3.36181 10.6628 2.85606 12.2279 3.69699 13.2783C4.10399 13.7871 4.64865 14.0325 5.28907 13.9966C5.79782 13.9696 6.19285 13.7931 6.55496 13.428C6.71356 13.2723 6.78838 13.1616 6.89013 12.9491C7.04575 12.6229 7.08764 12.4464 7.08764 12.0962C7.08764 11.5725 6.9021 11.1236 6.53101 10.7525C6.36043 10.582 6.26168 10.5131 6.03723 10.4054C5.88161 10.3306 5.6841 10.2558 5.59731 10.2378C5.33097 10.1839 4.91798 10.1989 4.66361 10.2737ZM5.51651 11.4169C6.0881 11.6922 6.0911 12.4853 5.5195 12.7875C5.34892 12.8773 5.02572 12.8773 4.85514 12.7875C4.61872 12.6618 4.4242 12.3536 4.4242 12.1052C4.4242 11.9616 4.52296 11.7222 4.6277 11.6054C4.7893 11.4259 4.9928 11.3361 5.21725 11.3511C5.316 11.3571 5.45067 11.387 5.51651 11.4169Z" fill="#5587EA"/>
    <path d="M11.6723 10.2467C11.3671 10.3246 11.0229 10.5221 10.7865 10.7555C10.6069 10.9321 10.5411 11.0248 10.4304 11.2553C10.2718 11.5845 10.2299 11.761 10.2299 12.1052C10.2299 12.4224 10.2718 12.6169 10.3945 12.8892C10.7296 13.6165 11.4329 14.0414 12.2319 13.9965C12.7347 13.9696 13.1118 13.802 13.4709 13.4459C13.6923 13.2274 13.827 13.0149 13.9347 12.7127C14.0036 12.5212 14.0126 12.4493 14.0155 12.1201C14.0155 11.8149 14.0036 11.7072 13.9497 11.5366C13.7701 10.974 13.3272 10.5161 12.7497 10.3006C12.5851 10.2408 12.4833 10.2228 12.19 10.2168C11.9566 10.2108 11.7741 10.2198 11.6723 10.2467ZM12.4145 11.4049C13.016 11.6772 13.0429 12.4793 12.4624 12.7875C12.2918 12.8773 11.9686 12.8773 11.798 12.7875C11.1875 12.4643 11.2384 11.6323 11.8908 11.381C12.0344 11.3271 12.2649 11.3361 12.4145 11.4049Z" fill="#5587EA"/>
</svg>
