<svg width="20" height="20" viewBox="0 0 20 20" fill="none" xmlns="http://www.w3.org/2000/svg">
    <path d="M11.875 11.875L8.125 8.125Z" fill="#4285F4"/>
    <path d="M11.8359 12.461C11.676 12.461 11.5161 12.4 11.394 12.2779L7.72214 8.60601C7.47804 8.36194 7.47804 7.9662 7.72214 7.72214C7.9662 7.47804 8.36194 7.47804 8.60601 7.72214L12.2779 11.394C12.522 11.6381 12.522 12.0338 12.2779 12.2779C12.1558 12.4 11.9959 12.461 11.8359 12.461Z" fill="#4285F4"/>
    <path d="M5.62514 15C5.46237 15 5.30256 14.9364 5.18307 14.8169C5.00631 14.6401 4.95186 14.375 5.04471 14.1429L7.54471 7.89287C7.60823 7.73409 7.73409 7.60823 7.89288 7.54471L14.1429 5.04471C14.3751 4.95186 14.6401 5.00631 14.8169 5.18307C14.9937 5.35987 15.0481 5.62498 14.9553 5.85713L12.4553 12.1071C12.3918 12.2659 12.2659 12.3918 12.1071 12.4553L5.85713 14.9553C5.7819 14.9854 5.70319 15 5.62514 15V15ZM8.60584 8.60584L6.74694 13.2531L11.3942 11.3942L13.2531 6.74694L8.60584 8.60584Z" fill="#4285F4"/>
    <path d="M10 20C7.32891 20 4.8177 18.9598 2.92891 17.0711C1.04012 15.1823 0 12.6711 0 10C0 7.32891 1.04016 4.8177 2.92891 2.92891C4.81766 1.04012 7.32891 0 10 0C12.6711 0 15.1823 1.04016 17.0711 2.92891C18.9599 4.81766 20 7.32891 20 10C20 12.6711 18.9598 15.1823 17.0711 17.0711C15.1823 18.9599 12.6711 20 10 20V20ZM10 1.25C5.17523 1.25 1.25 5.17523 1.25 10C1.25 14.8248 5.17523 18.75 10 18.75C14.8248 18.75 18.75 14.8248 18.75 10C18.75 5.17523 14.8248 1.25 10 1.25Z" fill="#4285F4"/>
</svg>
