<svg width="10" height="14" viewBox="0 0 10 14" fill="none" xmlns="http://www.w3.org/2000/svg">
    <path d="M9.85355 3.39645C9.94732 3.30268 10 3.1755 10 3.04289L10 1.95711C10 1.51165 9.46143 1.28857 9.14645 1.60355L5.35355 5.39645C5.15829 5.59171 4.84171 5.59171 4.64645 5.39645L0.853552 1.60355C0.538569 1.28857 -9.86967e-07 1.51165 -1.00644e-06 1.95711L-1.0539e-06 3.04289C-1.0597e-06 3.1755 0.052677 3.30268 0.146445 3.39645L4.64645 7.89645C4.84171 8.09171 5.15829 8.09171 5.35355 7.89645L9.85355 3.39645Z" fill="#5587EA"/>
    <path d="M9.85355 8.39645C9.94732 8.30268 10 8.1755 10 8.04289L10 6.95711C10 6.51165 9.46143 6.28857 9.14645 6.60355L5.35355 10.3964C5.15829 10.5917 4.84171 10.5917 4.64645 10.3964L0.853552 6.60355C0.538569 6.28857 -9.86967e-07 6.51165 -1.00644e-06 6.95711L-1.0539e-06 8.04289C-1.0597e-06 8.1755 0.052677 8.30268 0.146445 8.39645L4.64645 12.8964C4.84171 13.0917 5.15829 13.0917 5.35355 12.8964L9.85355 8.39645Z" fill="#5587EA"/>
</svg>
