<svg width="18" height="18" viewBox="0 0 18 18" fill="none" xmlns="http://www.w3.org/2000/svg">
    <path fill-rule="evenodd" clip-rule="evenodd" d="M8.13779 3.60982L6.35837 5.38924C6.2784 5.46964 6.18335 5.53348 6.07866 5.57709C5.97398 5.62071 5.86172 5.64324 5.74831 5.64339C5.6349 5.64354 5.52258 5.62132 5.41778 5.57799C5.31298 5.53467 5.21775 5.47109 5.13756 5.3909C5.05737 5.31071 4.99379 5.21548 4.95047 5.11068C4.90714 5.00588 4.88492 4.89355 4.88507 4.78015C4.88522 4.66674 4.90775 4.55448 4.95136 4.4498C4.99498 4.34511 5.05882 4.25006 5.13922 4.17009L8.39026 0.919014C8.47032 0.838958 8.56535 0.775455 8.66994 0.732129C8.77454 0.688803 8.88664 0.666504 8.99985 0.666504C9.11307 0.666504 9.22517 0.688803 9.32976 0.732129C9.43436 0.775455 9.52939 0.838958 9.60944 0.919014L12.8605 4.17009C12.9409 4.25006 13.0047 4.34511 13.0483 4.4498C13.092 4.55448 13.1145 4.66674 13.1146 4.78015C13.1148 4.89355 13.0926 5.00588 13.0492 5.11068C13.0059 5.21548 12.9423 5.31071 12.8621 5.3909C12.782 5.47109 12.6867 5.53467 12.5819 5.57799C12.4771 5.62132 12.3648 5.64354 12.2514 5.64339C12.138 5.64324 12.0257 5.62071 11.921 5.57709C11.8164 5.53348 11.7213 5.46964 11.6413 5.38924L9.86192 3.60982V13.0229C9.86192 13.2515 9.7711 13.4708 9.60943 13.6324C9.44776 13.7941 9.22849 13.8849 8.99985 13.8849C8.77122 13.8849 8.55195 13.7941 8.39028 13.6324C8.22861 13.4708 8.13779 13.2515 8.13779 13.0229V3.60982ZM15.8617 8.39032C16.0234 8.22865 16.2426 8.13782 16.4713 8.13782C16.6999 8.13782 16.9192 8.22865 17.0808 8.39032C17.2425 8.55199 17.3333 8.77126 17.3333 8.99989V15.8964C17.3333 16.2775 17.182 16.643 16.9125 16.9124C16.6431 17.1819 16.2776 17.3332 15.8966 17.3332H2.10345C1.72239 17.3332 1.35694 17.1819 1.08749 16.9124C0.818043 16.643 0.666668 16.2775 0.666668 15.8964V8.99989C0.666668 8.77126 0.757493 8.55199 0.919162 8.39032C1.08083 8.22865 1.3001 8.13782 1.52874 8.13782C1.75737 8.13782 1.97664 8.22865 2.13831 8.39032C2.29998 8.55199 2.39081 8.77126 2.39081 8.99989V15.6091H15.6092V8.99989C15.6092 8.77126 15.7 8.55199 15.8617 8.39032Z" fill="#4285F4"/>
</svg>
