<svg width="25" height="24" viewBox="0 0 25 24" fill="none" xmlns="http://www.w3.org/2000/svg">
    <defs>
        <clipPath id="clip0_5609_13615">
            <rect width="24" height="24" fill="white" transform="translate(0.833252)"/>
        </clipPath>
    </defs>
    <g clip-path="url(#clip0_5609_13615)">
        <path d="M12.8333 24C19.4607 24 24.8333 18.6274 24.8333 12C24.8333 5.37259 19.4607 0 12.8333 0C6.20583 0 0.833252 5.37259 0.833252 12C0.833252 18.6274 6.20583 24 12.8333 24Z" fill="#3C5A9A"/>
        <path d="M16.7351 3.68359H14.0768C12.4993 3.68359 10.7447 4.34708 10.7447 6.63376C10.7524 7.43053 10.7447 8.1936 10.7447 9.05238H8.91968V11.9565H10.8011V20.3168H14.2584V11.9013H16.5403L16.7468 9.04423H14.1988C14.1988 9.04423 14.2045 7.77329 14.1988 7.4042C14.1988 6.50056 15.1391 6.55231 15.1957 6.55231C15.6431 6.55231 16.5131 6.55361 16.7364 6.55231V3.68359H16.7351Z"
              fill="white"/>
    </g>
</svg>
