<svg width="24" height="30" viewBox="0 0 24 30" fill="none" xmlns="http://www.w3.org/2000/svg">
    <path d="M3 0C1.35 0 0.0150003 1.35 0.0150003 3L0 27C0 28.65 1.335 30 2.985 30H21C22.65 30 24 28.65 24 27V9.13081C24 9.04705 23.9667 8.96673 23.9075 8.90751L15.0925 0.0924928C15.0333 0.0332708 14.9529 0 14.8692 0H3ZM13.8158 10.5C13.6414 10.5 13.5 10.3586 13.5 10.1842V3.01238C13.5 2.73104 13.8402 2.59015 14.0391 2.78909L21.2109 9.96091C21.4098 10.1598 21.269 10.5 20.9876 10.5H13.8158Z" fill="#8C8C8C"/>
</svg>
