<svg width="24" height="24" viewBox="0 0 24 24" fill="none" xmlns="http://www.w3.org/2000/svg">
    <path fill-rule="evenodd" clip-rule="evenodd"
          d="M15.847 3.26183H2.76871C2.17724 3.26183 1.80787 3.92329 2.10481 4.45098L7.72017 14.2466V20.2072C7.72017 20.6457 8.06298 21 8.48787 21H14.8227C15.2475 21 15.5904 20.6457 15.5904 20.2072V14.2466L18.9709 8.35195C18.4208 8.15346 17.9174 7.85325 17.4821 7.47333L14.0936 13.3547L13.8642 13.766H9.4463L9.21695 13.3547L4.42966 5.04555H15.9813C15.876 4.64371 15.8198 4.22119 15.8198 3.7852C15.8198 3.60837 15.829 3.43375 15.847 3.26183ZM9.44871 19.2163H13.8618H13.8642V15.3515H9.44871V19.2163Z"
          fill="#1A92FF"/>
    <ellipse cx="20.6087" cy="3.48013" rx="3.39131" ry="3.48013" fill="#F5222D"/>
</svg>
