<svg width="22" height="14" viewBox="0 0 22 14" fill="none" xmlns="http://www.w3.org/2000/svg">
    <path d="M21.5542 0.132871C21.4584 0.0417146 21.3304 -0.00531058 21.1978 0.000477141C19.6553 0.0766821 17.9829 0.332547 15.9345 0.805452C15.8041 0.835596 15.6917 0.918795 15.6251 1.03503C15.5583 1.15127 15.5427 1.29017 15.5825 1.41823L15.6341 1.58462C14.1527 1.10376 12.2736 0.846931 10.5807 0.911801C9.87047 0.911801 9.0843 1.24267 8.36639 1.73679H6.02284L6.12148 1.41823C6.16127 1.29017 6.14559 1.15151 6.07879 1.03503C6.01199 0.918795 5.89985 0.835596 5.76915 0.805452C3.72054 0.332788 2.04813 0.0769232 0.505943 0.000477141C0.371861 -0.00458711 0.245013 0.0419557 0.149516 0.132871C0.0542598 0.224028 0 0.350393 0 0.482305V8.57594C0 8.84218 0.216075 9.05825 0.48231 9.05825H3.39956C3.58911 9.05825 3.75382 8.94419 3.83195 8.77562C6.18152 11.4893 8.5581 13.9021 10.4924 13.9021C10.8409 13.9021 11.1749 13.8223 11.492 13.6535C11.7587 13.8799 12.0862 14 12.4173 14C12.7822 14 13.147 13.8625 13.4265 13.5864C13.5691 13.4456 13.6754 13.2816 13.7466 13.1068C13.9298 13.1909 14.1302 13.2375 14.3386 13.2387C14.3417 13.2387 14.3446 13.2387 14.3478 13.2387C14.7285 13.2387 15.0866 13.0923 15.3567 12.8253C15.594 12.5907 15.7264 12.2929 15.7655 11.9852C15.792 11.9864 15.8186 11.989 15.8451 11.989C16.2109 11.989 16.57 11.8619 16.8307 11.6041C17.3882 11.0536 17.3996 10.156 16.8611 9.59121C16.8386 9.56371 16.8152 9.53743 16.7926 9.50994L17.9014 8.83519C17.9885 8.97072 18.1375 9.05874 18.3044 9.05874H21.2216C21.4879 9.05874 21.7039 8.84266 21.7039 8.57643V0.482305C21.7039 0.350393 21.6497 0.224028 21.5542 0.132871ZM0.96462 8.09363V0.995482C2.18052 1.08616 3.49988 1.29186 5.04568 1.63141L3.0441 8.09363H0.96462ZM16.1526 10.9176C16.0457 11.0232 15.8936 11.0319 15.8145 11.0261C15.6671 11.0176 15.5224 10.9549 15.4276 10.8592C15.4221 10.8534 15.4153 10.8496 15.4096 10.8442C15.3951 10.8281 15.3845 10.8098 15.3693 10.7941L12.7884 8.18142C12.6011 7.99187 12.2958 7.99018 12.1065 8.17707C11.9169 8.36421 11.915 8.66951 12.1021 8.85906L14.6827 11.4717C14.8655 11.6569 14.8636 11.956 14.6786 12.1388C14.4934 12.3218 14.1941 12.3201 14.0113 12.1347L13.4388 11.5549L10.8585 8.94274C10.6716 8.75319 10.366 8.75151 10.1763 8.9384C9.98671 9.12554 9.98502 9.43108 10.1722 9.62039L12.753 12.2328C12.9358 12.418 12.9339 12.7173 12.7489 12.9001C12.5637 13.0826 12.2644 13.0812 12.0816 12.8958L8.92828 9.70359C8.74138 9.51404 8.43584 9.51211 8.24605 9.69924C8.0565 9.88638 8.05481 10.1919 8.24195 10.3812L10.7312 12.9011C9.18535 13.2025 6.69518 10.6376 4.17656 7.69742L5.72405 2.70141H7.24429C6.77621 3.19699 6.39977 3.73669 6.19165 4.24239C5.79061 5.21521 6.13064 5.75733 6.36866 5.9939C6.38144 6.00644 6.3947 6.0185 6.40893 6.02959C7.22934 6.67974 8.27692 7.12154 9.84804 5.54945C10.2546 5.55886 10.6246 5.48772 10.9504 5.33506C12.8427 6.67516 14.5824 8.31598 16.1251 10.2158C16.1349 10.2281 16.1453 10.2397 16.1564 10.2508C16.2442 10.3398 16.2922 10.4584 16.2915 10.5852C16.2907 10.7121 16.2415 10.8298 16.1526 10.9176ZM11.2516 4.36827C11.0869 4.25469 10.8693 4.25469 10.7046 4.36779C10.4394 4.54986 10.1215 4.61522 9.70311 4.57446C9.55383 4.55903 9.40673 4.61522 9.30448 4.72422C8.05144 6.05756 7.52861 5.68546 7.03521 5.29527C6.89365 5.12695 7.0205 4.76232 7.08344 4.60991C7.5754 3.41644 9.35946 1.87666 10.5995 1.87618C12.445 1.80528 14.5778 2.15254 15.9939 2.74627L17.5889 7.89589L16.1612 8.76477C14.6738 7.06921 13.0265 5.59262 11.2516 4.36827ZM20.7393 8.09363H18.6598L16.6583 1.63141C18.2038 1.2921 19.5237 1.0864 20.7393 0.995482V8.09363Z" fill="#8C8C8C"/>
</svg>
