<svg width="72" height="69" viewBox="0 0 72 69" fill="none" xmlns="http://www.w3.org/2000/svg">
    <defs>
        <linearGradient id="paint0_linear_3840_12438" x1="43.4529" y1="44.5962" x2="21.3427" y2="44.5962"
                        gradientUnits="userSpaceOnUse">
            <stop stop-color="#702C87"/>
            <stop offset="1" stop-color="#063098"/>
        </linearGradient>
        <linearGradient id="paint1_linear_3840_12438" x1="19.5264" y1="61.1012" x2="1.50488" y2="61.1012"
                        gradientUnits="userSpaceOnUse">
            <stop stop-color="#702C87"/>
            <stop offset="1" stop-color="#063098"/>
        </linearGradient>
        <linearGradient id="paint2_linear_3840_12438" x1="52.4715" y1="61.1012" x2="70.4931" y2="61.1012"
                        gradientUnits="userSpaceOnUse">
            <stop stop-color="#702C87"/>
            <stop offset="1" stop-color="#063098"/>
        </linearGradient>
    </defs>
    <path fill-rule="evenodd" clip-rule="evenodd"
          d="M48.7164 16.2112C49.4399 16.8312 49.5236 17.9202 48.9036 18.6436L44.5582 23.7132C43.9382 24.4365 42.8492 24.5204 42.1259 23.9004C41.4024 23.2802 41.3188 22.1913 41.9388 21.468L46.2842 16.3983C46.9042 15.675 47.9932 15.5912 48.7164 16.2112Z"
          fill="#6FF1A7"/>
    <path fill-rule="evenodd" clip-rule="evenodd"
          d="M23.2948 16.2112C22.5715 16.8312 22.4877 17.9202 23.1076 18.6436L27.4531 23.7132C28.073 24.4365 29.162 24.5204 29.8855 23.9004C30.6088 23.2802 30.6925 22.1913 30.0725 21.468L25.727 16.3983C25.1071 15.675 24.0181 15.5912 23.2948 16.2112Z"
          fill="#6FF1A7"/>
    <path fill-rule="evenodd" clip-rule="evenodd"
          d="M55.7851 38.9421C55.554 39.8664 54.6175 40.4284 53.6932 40.1972L47.8988 38.7488C46.9745 38.5178 46.4127 37.5811 46.6437 36.6568C46.8747 35.7328 47.8113 35.1708 48.7356 35.4017L54.5299 36.8502C55.4541 37.0814 56.0161 38.0179 55.7851 38.9421Z"
          fill="#6FF1A7"/>
    <path fill-rule="evenodd" clip-rule="evenodd"
          d="M35.9638 52.294C35.0112 52.2888 34.2429 51.5124 34.2481 50.5597L34.28 44.5872C34.285 43.6345 35.0614 42.8664 36.0141 42.8714C36.9668 42.8765 37.735 43.653 37.73 44.6055L37.6981 50.5781C37.6929 51.5309 36.9165 52.299 35.9638 52.294Z"
          fill="#6FF1A7"/>
    <path fill-rule="evenodd" clip-rule="evenodd"
          d="M16.2267 38.9421C16.4577 39.8664 17.3943 40.4284 18.3186 40.1972L24.1129 38.7488C25.0372 38.5178 25.5992 37.5811 25.368 36.6568C25.137 35.7328 24.2005 35.1708 23.2763 35.4017L17.4819 36.8502C16.5576 37.0814 15.9957 38.0179 16.2267 38.9421Z"
          fill="#6FF1A7"/>
    <path fill-rule="evenodd" clip-rule="evenodd"
          d="M45.4751 43.2992L43.9723 34.5284L50.3327 28.317C50.5059 28.1469 50.6201 27.9251 50.6548 27.6822C50.7483 27.0754 50.3258 26.5135 49.72 26.4233L40.9289 25.1435L36.999 17.1635C36.8917 16.945 36.715 16.7681 36.497 16.6606C35.95 16.3901 35.2852 16.6155 35.0116 17.1635L31.0817 25.1435L23.732 26.2136L22.2908 26.4233C22.0484 26.458 21.8267 26.5725 21.6572 26.7459C21.4519 26.957 21.3389 27.2411 21.3429 27.5358C21.3467 27.8302 21.4672 28.1112 21.6779 28.317L28.0383 34.5284L26.5356 43.2992C26.5005 43.5032 26.5229 43.713 26.6007 43.905C26.6785 44.0968 26.8084 44.2629 26.9755 44.3847C27.1428 44.5063 27.3409 44.5786 27.547 44.5933C27.7531 44.6081 27.9595 44.5646 28.1421 44.468L36.0054 40.327L43.8685 44.468C44.0832 44.5824 44.3325 44.6205 44.5714 44.5789C45.1738 44.4749 45.579 43.9026 45.4751 43.2992ZM41.2728 39.2018L40.266 33.3256L44.5365 29.1552L38.6357 28.2961L36.0054 22.9547L33.3749 28.2961L27.474 29.1552L31.7446 33.3256L30.7379 39.2018L36.0054 36.4278L41.2728 39.2018Z"
          fill="url(#paint0_linear_3840_12438)"/>
    <path fill-rule="evenodd" clip-rule="evenodd"
          d="M19.5004 7.90749C16.9886 8.26884 13.5845 9.75677 14.0247 13.8026C16.4428 13.6564 18.9663 13.353 20.3741 8.87148C20.5388 8.34717 20.08 7.82412 19.5004 7.90749ZM18.6967 14.8987C16.8836 14.6125 14.4303 14.7489 12.848 16.3477C13.1854 15 12.8939 13.3676 11.1132 11.1311C10.7765 10.7082 10.1239 10.7255 9.84691 11.1856C8.60443 13.249 7.74424 16.7123 11.501 18.875L11.5009 18.8755L11.5027 18.876L11.5044 18.8768L11.5048 18.8763C13.8449 19.4502 16.3385 19.9039 19.2002 16.0807C19.5373 15.6302 19.2773 14.9903 18.6967 14.8987ZM7.88328 26.7484L7.88322 26.7487L7.88447 26.7489L7.88681 26.7499L7.88721 26.7492C10.5352 27.155 13.3403 27.4122 16.0671 22.838C16.3521 22.3598 16.0319 21.7547 15.4471 21.7076C13.4154 21.544 10.6624 21.9058 9.07539 23.8505C9.29657 22.3265 8.78247 20.5463 6.5247 18.235C6.14287 17.8441 5.48742 17.9184 5.25246 18.4001C4.09519 20.7716 3.47335 24.7182 7.88328 26.7484ZM7.1 35.5956L7.09995 35.595C1.62229 34.5588 1.12681 30.0166 1.67946 27.1377C1.78049 26.6114 2.41548 26.3775 2.89984 26.6657C6.13442 28.5903 7.26248 30.4023 7.4967 32.1312C8.64619 29.5308 11.6435 28.4106 13.9227 28.0758C14.4948 27.9918 14.9491 28.4827 14.8123 29.0059C13.2847 34.8478 10.1314 35.3249 7.10487 35.595L7.10463 35.5959L7.10145 35.5954L7.1 35.5956ZM10.3214 44.4201L10.3215 44.4203L10.3226 44.42L10.3253 44.4194L10.3252 44.4188C13.0786 43.2042 15.8758 41.7542 15.1532 35.742C15.0903 35.2186 14.5192 34.9178 14.0211 35.1707C11.9923 36.2009 9.55294 38.2108 9.42501 41.0391C8.57419 39.492 6.8579 38.1482 3.13525 37.3609C2.56483 37.2402 2.02985 37.6823 2.13116 38.217C2.67686 41.0971 4.81228 45.1764 10.3214 44.4201ZM16.6788 52.4281L16.6783 52.4278C12.0169 55.7027 7.84106 52.9301 5.78921 50.5363C5.42132 50.1071 5.67048 49.4597 6.23957 49.3088C10.0981 48.285 12.4067 48.7171 14.0277 49.7425C12.6005 47.0565 13.7953 44.0355 15.1187 42.1466C15.4237 41.7112 16.0536 41.7212 16.3756 42.1443C20.3503 47.367 18.5597 50.0152 16.6814 52.4248L16.6817 52.4254L16.6801 52.4264L16.6788 52.4281ZM23.1303 59.4615L23.1301 59.4613C17.9705 63.0858 13.354 59.9467 11.1324 57.3066C10.7685 56.8741 11.0192 56.2267 11.5877 56.0734C15.8785 54.9154 18.4352 55.3865 20.2259 56.5188C18.6432 53.5395 20.0055 50.1839 21.4765 48.121C21.7851 47.688 22.4154 47.6976 22.7392 48.1192C27.1694 53.8909 25.2001 56.806 23.1334 59.4573L23.1343 59.4584L23.1308 59.4606L23.1303 59.4615Z"
          fill="url(#paint1_linear_3840_12438)"/>
    <path fill-rule="evenodd" clip-rule="evenodd"
          d="M52.4976 7.90749C55.0094 8.26884 58.4135 9.75677 57.9733 13.8026C55.5552 13.6564 53.0317 13.353 51.6239 8.87148C51.4591 8.34717 51.918 7.82412 52.4976 7.90749ZM53.3013 14.8987C55.1144 14.6125 57.5677 14.7489 59.15 16.3477C58.8126 15 59.1042 13.3676 60.8849 11.1311C61.2216 10.7082 61.874 10.7255 62.151 11.1856C63.3935 13.249 64.2538 16.7123 60.4969 18.875L60.4971 18.8755L60.4952 18.876L60.4937 18.8768L60.4933 18.8763C58.153 19.4502 55.6595 19.9039 52.7977 16.0807C52.4607 15.6302 52.7208 14.9903 53.3013 14.8987ZM64.1148 26.7484V26.7487L64.1136 26.7489L64.1111 26.7499L64.1108 26.7492C61.4628 27.155 58.6577 27.4122 55.9309 22.838C55.6459 22.3598 55.9662 21.7547 56.5508 21.7076C58.5825 21.544 61.3356 21.9058 62.9226 23.8505C62.7015 22.3265 63.2155 20.5463 65.4734 18.235C65.8551 17.8441 66.5106 17.9184 66.7456 18.4001C67.9029 20.7716 68.5246 24.7182 64.1148 26.7484ZM64.8979 35.5956L64.8981 35.595C70.3757 34.5588 70.8713 30.0166 70.3186 27.1377C70.2175 26.6114 69.5825 26.3775 69.0981 26.6657C65.8636 28.5903 64.7356 30.4023 64.5013 32.1312C63.3518 29.5308 60.3546 28.4106 58.0752 28.0758C57.5032 27.9918 57.0488 28.4827 57.1856 29.0059C58.7133 34.8478 61.8666 35.3249 64.8931 35.595L64.8934 35.5959L64.8965 35.5954L64.8979 35.5956ZM61.6767 44.4201L61.6765 44.4203L61.6754 44.42L61.6727 44.4194L61.6729 44.4188C58.9194 43.2042 56.1222 41.7542 56.8448 35.742C56.9077 35.2186 57.4789 34.9178 57.9769 35.1707C60.0058 36.2009 62.4451 38.2108 62.573 41.0391C63.4237 39.492 65.1401 38.1482 68.8628 37.3609C69.4331 37.2402 69.9682 37.6823 69.8668 38.217C69.3212 41.0971 67.1858 45.1764 61.6767 44.4201ZM55.3192 52.4281L55.3197 52.4278C59.9812 55.7027 64.1569 52.9301 66.2088 50.5363C66.5767 50.1071 66.3276 49.4597 65.7584 49.3088C61.8999 48.285 59.5913 48.7171 57.9703 49.7425C59.3974 47.0565 58.2027 44.0355 56.8793 42.1466C56.5743 41.7112 55.9443 41.7212 55.6224 42.1443C51.6477 47.367 53.4382 50.0152 55.3166 52.4248L55.3162 52.4254L55.3178 52.4264L55.3192 52.4281ZM48.8677 59.4615L48.8678 59.4613C54.0275 63.0858 58.6439 59.9467 60.8656 57.3066C61.2295 56.8741 60.9787 56.2267 60.4103 56.0734C56.1194 54.9154 53.5628 55.3865 51.7721 56.5188C53.3547 53.5395 51.9925 50.1839 50.5214 48.121C50.2128 47.688 49.5825 47.6976 49.2587 48.1192C44.8286 53.8909 46.7978 56.806 48.8646 59.4573L48.8637 59.4584L48.8672 59.4606L48.8677 59.4615Z"
          fill="url(#paint2_linear_3840_12438)"/>
</svg>
