<svg width="32" height="31" viewBox="0 0 32 31" fill="none" xmlns="http://www.w3.org/2000/svg">
    <path d="M17.9926 26.251C25.0165 26.251 30.7106 20.557 30.7106 13.5331C30.7106 6.50913 25.0165 0.815125 17.9926 0.815125C10.9687 0.815125 5.27466 6.50913 5.27466 13.5331C5.27466 20.557 10.9687 26.251 17.9926 26.251Z" fill="#AED5FF"/>
    <path d="M7.54113 26.7871L4.30201 30.3442H2.07638L1.28149 27.4031L4.52061 24.0845L7.54113 26.7871Z" fill="#AED5FF"/>
    <path d="M7.7802 26.41L10.3834 23.6875L7.28341 21.2234L4.97827 23.6477L7.7802 26.41Z" fill="white"/>
    <path d="M17.9928 11.8837C19.0793 11.8837 19.9601 10.5046 19.9601 8.80349C19.9601 7.10238 19.0793 5.72339 17.9928 5.72339C16.9063 5.72339 16.0255 7.10238 16.0255 8.80349C16.0255 10.5046 16.9063 11.8837 17.9928 11.8837Z" fill="white"/>
    <path d="M23.1002 16.6323L21.0137 13.9298H20.7156C20.0201 14.5061 19.0662 14.8836 17.9932 14.8836C16.9201 14.8836 15.9662 14.5061 15.2707 13.9298H14.913L13.3829 15.4997L12.131 20.0503H23.6765L23.1002 16.6323Z" fill="white"/>
    <path d="M3.44742 31C3.42754 31 3.40767 31 3.3878 31C2.63267 30.9801 1.9173 30.682 1.38076 30.1256C0.248071 28.9929 0.228182 27.2045 1.30126 26.1116L6.42818 20.9846C6.52754 20.8852 6.54742 20.7064 6.46794 20.5872C4.89806 18.0436 4.22244 15.0032 4.56026 12.0026C4.89808 8.92245 6.22947 6.14036 8.41536 3.95447C10.959 1.41088 14.3571 0 17.9737 0C21.5904 0 24.9885 1.41088 27.532 3.95447C30.0756 6.49805 31.4865 9.89619 31.4865 13.5129C31.4865 17.1295 30.0756 20.5276 27.532 23.0712C24.9885 25.6148 21.5904 27.0256 17.9737 27.0256C15.4897 27.0256 13.0455 26.3301 10.8993 25.0186C10.8397 24.9788 10.7801 24.9789 10.7205 24.9789C10.641 24.9789 10.5615 25.0186 10.482 25.0782L5.35512 30.2051C4.8782 30.7218 4.18267 31 3.44742 31ZM4.56026 24.8993C4.48077 24.8993 4.40127 24.9391 4.32178 24.9987L2.25513 27.0654C1.69872 27.6218 1.71857 28.5756 2.3346 29.1917C2.63268 29.4897 3.03012 29.6686 3.42755 29.6686H3.44742C3.82498 29.6686 4.20256 29.5295 4.4609 29.2712L6.54744 27.1846C6.60705 27.125 6.64677 27.0455 6.64677 26.9461C6.64677 26.8468 6.60705 26.7872 6.54744 26.7077L4.79871 24.959C4.71923 24.9192 4.63975 24.8993 4.56026 24.8993ZM7.36216 22.0776C7.28267 22.0776 7.2032 22.1173 7.12371 22.1769L5.7128 23.5878C5.59357 23.707 5.59357 23.9256 5.7128 24.0449L7.46152 25.7936C7.52114 25.8532 7.60062 25.8929 7.69998 25.8929C7.77946 25.8929 7.85897 25.8532 7.93846 25.7936L9.34934 24.3827C9.40895 24.3231 9.4487 24.2237 9.4487 24.1442C9.4487 24.0448 9.40897 23.9654 9.32948 23.9058C9.01153 23.6474 8.71346 23.3692 8.43525 23.091C8.15705 22.8128 7.89871 22.5148 7.6205 22.1968C7.56089 22.1173 7.48139 22.0776 7.36216 22.0776C7.38203 22.0776 7.38203 22.0776 7.36216 22.0776ZM17.9936 1.35127C14.7346 1.35127 11.6744 2.62308 9.36923 4.90833C5.33526 8.94231 4.65959 15.3609 7.75959 20.15L8.01793 20.5276C8.23652 20.8257 8.43525 21.1039 8.65384 21.3821C8.85256 21.6205 9.09103 21.8987 9.36923 22.157C9.64744 22.4352 9.92564 22.6737 10.1442 22.8724C10.4224 23.091 10.7006 23.3096 10.9987 23.5084L11.3564 23.7666C13.3436 25.0583 15.6288 25.7141 17.9936 25.7141C21.2526 25.7141 24.3128 24.4423 26.5981 22.157C28.9032 19.8519 30.175 16.7917 30.175 13.5327C30.175 10.2737 28.9032 7.21346 26.5981 4.90833C24.3128 2.60321 21.2526 1.35127 17.9936 1.35127Z" fill="#1077E8"/>
    <path d="M17.9334 12.6389C16.2841 12.6389 14.9924 10.7511 14.9924 8.32671C14.9924 6.18056 16.0655 4.92865 17.9334 4.92865C19.8014 4.92865 20.8745 6.16068 20.8745 8.32671C20.8745 10.7511 19.5828 12.6389 17.9334 12.6389ZM17.9334 6.27992C17.4963 6.27992 16.3039 6.27993 16.3039 8.3466C16.3039 10.0953 17.1584 11.3274 17.9334 11.3274C18.7084 11.3274 19.5431 10.1152 19.5431 8.3466C19.5629 6.27993 18.3706 6.27992 17.9334 6.27992Z" fill="#1077E8"/>
    <path d="M12.0921 21.1035C11.7543 21.1035 11.4562 20.8452 11.4363 20.5074C11.019 16.076 13.4633 14.2279 14.8145 13.8702C14.8742 13.8504 14.9338 13.8503 14.9735 13.8503C15.2716 13.8503 15.5299 14.0491 15.6094 14.3471C15.7088 14.7048 15.4902 15.0625 15.1524 15.1619C14.894 15.2414 12.728 15.9965 12.7081 19.4542C12.7081 19.5337 12.7479 19.633 12.8075 19.6927C12.8671 19.7523 12.9466 19.792 13.046 19.792H22.9024C22.9819 19.792 23.0812 19.7523 23.1408 19.6927C23.2004 19.633 23.2402 19.5536 23.2402 19.4542C23.2004 15.8972 20.8953 15.1818 20.796 15.1619C20.4383 15.0625 20.2395 14.685 20.3389 14.3471C20.4184 14.0689 20.6767 13.8503 20.9748 13.8503C21.0344 13.8503 21.094 13.8504 21.1338 13.8702C22.4851 14.2279 24.9293 16.076 24.512 20.5074C24.4722 20.8452 24.194 21.1035 23.8562 21.1035H12.0921Z" fill="#1077E8"/>
</svg>
