<svg width="70" height="69" viewBox="0 0 70 69" fill="none" xmlns="http://www.w3.org/2000/svg">
    <defs>
        <linearGradient id="paint0_linear_3840_12467" x1="43.3236" y1="25.8751" x2="18.6123" y2="25.8751" gradientUnits="userSpaceOnUse">
            <stop stop-color="#702C87"/>
            <stop offset="1" stop-color="#063098"/>
        </linearGradient>
        <linearGradient id="paint1_linear_3840_12467" x1="47.7046" y1="37.95" x2="9.9873" y2="37.95" gradientUnits="userSpaceOnUse">
            <stop stop-color="#702C87"/>
            <stop offset="1" stop-color="#063098"/>
        </linearGradient>
        <linearGradient id="paint2_linear_3840_12467" x1="45.9524" y1="58.65" x2="13.4375" y2="58.65" gradientUnits="userSpaceOnUse">
            <stop stop-color="#702C87"/>
            <stop offset="1" stop-color="#063098"/>
        </linearGradient>
    </defs>
    <path fill-rule="evenodd" clip-rule="evenodd" d="M29.9172 14.1673C28.8512 13.8037 27.6646 13.7055 26.5171 13.8934C25.3693 14.0815 24.3517 14.5405 23.5812 15.175C22.8135 15.8073 22.3411 16.5696 22.1549 17.3398C21.9705 18.1031 22.0601 18.8997 22.4364 19.648C22.817 20.4046 23.4906 21.106 24.4271 21.6212C25.3643 22.1368 26.4933 22.4251 27.6685 22.4251H33.2748V18.1126C33.2748 17.3432 32.9998 16.5541 32.4247 15.8452C31.8451 15.1307 30.9838 14.5311 29.9172 14.1673ZM34.9998 13.546C33.9774 12.3378 32.5901 11.4339 31.0311 10.902C29.4179 10.3517 27.6563 10.2108 25.9594 10.4888C24.2632 10.7667 22.6681 11.4576 21.388 12.5118C20.1051 13.5683 19.1812 14.9576 18.8014 16.5297C18.4201 18.1086 18.6209 19.74 19.3544 21.1981C20.0835 22.648 21.2893 23.8323 22.764 24.6439C24.238 25.455 25.9441 25.8751 27.6685 25.8751H42.331C44.0557 25.8751 45.7615 25.455 47.2357 24.6439C48.7104 23.8323 49.916 22.648 50.6454 21.1981C51.3787 19.74 51.5796 18.1086 51.1982 16.5297C50.8185 14.9576 49.8945 13.5683 48.6116 12.5118C47.3315 11.4576 45.7365 10.7667 44.0402 10.4888C42.3433 10.2108 40.5819 10.3517 38.9687 10.902C37.4094 11.4339 36.0224 12.3378 34.9998 13.546ZM36.7248 18.1126V22.4251H42.331C43.5064 22.4251 44.6355 22.1368 45.5725 21.6212C46.509 21.106 47.1826 20.4046 47.5631 19.648C47.9395 18.8997 48.0291 18.1031 47.8447 17.3398C47.6587 16.5696 47.1862 15.8073 46.4184 15.175C45.648 14.5405 44.6305 14.0815 43.4825 13.8934C42.3352 13.7055 41.1484 13.8037 40.0825 14.1673C39.0159 14.5311 38.1546 15.1307 37.5749 15.8452C36.9998 16.5541 36.7248 17.3432 36.7248 18.1126Z" fill="url(#paint0_linear_3840_12467)"/>
    <path fill-rule="evenodd" clip-rule="evenodd" d="M15.5936 25.875C14.2061 25.875 13.4373 26.8328 13.4373 27.6V32.775C13.4373 33.5423 14.2061 34.5 15.5936 34.5H54.406C55.7935 34.5 56.5623 33.5423 56.5623 32.775V27.6C56.5623 26.8328 55.7935 25.875 54.406 25.875H15.5936ZM9.9873 27.6C9.9873 24.5566 12.6939 22.425 15.5936 22.425H54.406C57.3056 22.425 60.0123 24.5566 60.0123 27.6V32.775C60.0123 35.8185 57.3056 37.95 54.406 37.95H15.5936C12.6939 37.95 9.9873 35.8185 9.9873 32.775V27.6Z" fill="url(#paint1_linear_3840_12467)"/>
    <path fill-rule="evenodd" clip-rule="evenodd" d="M35 22.425C35.9527 22.425 36.725 23.1973 36.725 24.15V55.2H48.8862C50.0789 55.2 51.1826 54.7859 51.9624 54.1076C52.7349 53.4361 53.1125 52.581 53.1125 51.75V36.225C53.1125 35.2723 53.8848 34.5 54.8375 34.5C55.7902 34.5 56.5625 35.2723 56.5625 36.225V51.75C56.5625 53.6641 55.686 55.4417 54.2263 56.711C52.7742 57.9737 50.8503 58.65 48.8862 58.65H21.1137C19.1497 58.65 17.2258 57.9737 15.7737 56.711C14.3139 55.4417 13.4375 53.6641 13.4375 51.75V36.225C13.4375 35.2723 14.2098 34.5 15.1625 34.5C16.1152 34.5 16.8875 35.2723 16.8875 36.225V51.75C16.8875 52.581 17.2651 53.4361 18.0376 54.1076C18.8174 54.7859 19.9211 55.2 21.1137 55.2H33.275V24.15C33.275 23.1973 34.0473 22.425 35 22.425Z" fill="url(#paint2_linear_3840_12467)"/>
    <path d="M40.2049 25.875H36.7549V34.5H40.2049V25.875Z" fill="#6FF1A7"/>
    <path d="M40.2049 37.95H36.7549V55.2H40.2049V37.95Z" fill="#6FF1A7"/>
</svg>
