<svg width="72" height="69" viewBox="0 0 72 69" fill="none" xmlns="http://www.w3.org/2000/svg">
    <defs>
        <linearGradient id="paint0_linear_4118_6777" x1="43.7027" y1="44.5961" x2="21.5925" y2="44.5961" gradientUnits="userSpaceOnUse">
            <stop stop-color="#1110AD"/>
            <stop offset="1" stop-color="#063098"/>
        </linearGradient>
        <linearGradient id="paint1_linear_4118_6777" x1="19.7767" y1="61.1012" x2="1.75513" y2="61.1012" gradientUnits="userSpaceOnUse">
            <stop stop-color="#1110AD"/>
            <stop offset="1" stop-color="#063098"/>
        </linearGradient>
        <linearGradient id="paint2_linear_4118_6777" x1="52.7215" y1="61.1012" x2="70.7431" y2="61.1012" gradientUnits="userSpaceOnUse">
            <stop stop-color="#1110AD"/>
            <stop offset="1" stop-color="#063098"/>
        </linearGradient>
    </defs>
    <path fill-rule="evenodd" clip-rule="evenodd" d="M48.9667 16.2112C49.6902 16.8312 49.7738 17.9202 49.1539 18.6436L44.8084 23.7132C44.1884 24.4365 43.0995 24.5204 42.3762 23.9004C41.6527 23.2803 41.569 22.1913 42.189 21.468L46.5344 16.3983C47.1544 15.675 48.2434 15.5912 48.9667 16.2112Z" fill="#082B9C"/>
    <path fill-rule="evenodd" clip-rule="evenodd" d="M23.545 16.2112C22.8218 16.8312 22.7379 17.9202 23.3579 18.6436L27.7033 23.7132C28.3233 24.4365 29.4123 24.5204 30.1357 23.9004C30.859 23.2803 30.9427 22.1913 30.3227 21.468L25.9773 16.3983C25.3573 15.675 24.2683 15.5912 23.545 16.2112Z" fill="#082B9C"/>
    <path fill-rule="evenodd" clip-rule="evenodd" d="M56.0354 38.9422C55.8042 39.8665 54.8677 40.4285 53.9435 40.1973L48.149 38.7489C47.2248 38.5179 46.6629 37.5812 46.8939 36.6569C47.1249 35.7329 48.0616 35.1709 48.9858 35.4018L54.7801 36.8503C55.7044 37.0815 56.2664 38.018 56.0354 38.9422Z" fill="#082B9C"/>
    <path fill-rule="evenodd" clip-rule="evenodd" d="M36.2135 52.2939C35.261 52.2887 34.4927 51.5123 34.4978 50.5596L34.5297 44.5871C34.5347 43.6344 35.3112 42.8663 36.2639 42.8713C37.2166 42.8764 37.9847 43.6529 37.9797 44.6054L37.9478 50.578C37.9427 51.5308 37.1662 52.2989 36.2135 52.2939Z" fill="#082B9C"/>
    <path fill-rule="evenodd" clip-rule="evenodd" d="M16.4765 38.9422C16.7075 39.8665 17.644 40.4285 18.5684 40.1973L24.3627 38.7489C25.2869 38.5179 25.8489 37.5812 25.6178 36.6569C25.3868 35.7329 24.4503 35.1709 23.526 35.4018L17.7316 36.8503C16.8074 37.0815 16.2454 38.018 16.4765 38.9422Z" fill="#082B9C"/>
    <path fill-rule="evenodd" clip-rule="evenodd" d="M45.7249 43.2991L44.222 34.5283L50.5825 28.3169C50.7557 28.1468 50.8699 27.925 50.9045 27.6821C50.998 27.0753 50.5756 26.5134 49.9698 26.4232L41.1786 25.1434L37.2487 17.1634C37.1414 16.9449 36.9648 16.768 36.7468 16.6605C36.1998 16.39 35.5349 16.6154 35.2614 17.1634L31.3315 25.1434L23.9818 26.2134L22.5405 26.4232C22.2982 26.4579 22.0765 26.5724 21.9069 26.7458C21.7016 26.9569 21.5887 27.241 21.5926 27.5357C21.5964 27.8301 21.717 28.1111 21.9276 28.3169L28.288 34.5283L26.7854 43.2991C26.7502 43.5031 26.7726 43.7129 26.8504 43.9049C26.9282 44.0967 27.0581 44.2628 27.2253 44.3846C27.3926 44.5062 27.5906 44.5785 27.7968 44.5932C28.0029 44.608 28.2092 44.5645 28.3919 44.4679L36.2551 40.3269L44.1182 44.4679C44.333 44.5823 44.5822 44.6204 44.8211 44.5788C45.4235 44.4748 45.8287 43.9025 45.7249 43.2991ZM41.5226 39.2017L40.5157 33.3255L44.7863 29.1551L38.8854 28.296L36.2551 22.9546L33.6247 28.296L27.7238 29.1551L31.9944 33.3255L30.9877 39.2017L36.2551 36.4277L41.5226 39.2017Z" fill="url(#paint0_linear_4118_6777)"/>
    <path fill-rule="evenodd" clip-rule="evenodd" d="M19.7506 7.90749C17.2389 8.26885 13.8347 9.75678 14.2749 13.8026C16.6931 13.6565 19.2166 13.353 20.6243 8.87149C20.7891 8.34718 20.3302 7.82412 19.7506 7.90749ZM18.9469 14.8987C17.1338 14.6125 14.6805 14.7489 13.0982 16.3477C13.4356 15.0001 13.1442 13.3676 11.3634 11.1312C11.0267 10.7083 10.3742 10.7255 10.0972 11.1856C8.85467 13.249 7.99448 16.7123 11.7513 18.875L11.7512 18.8755L11.7529 18.876L11.7547 18.8769L11.755 18.8763C14.0952 19.4502 16.5887 19.9039 19.4505 16.0807C19.7875 15.6303 19.5276 14.9903 18.9469 14.8987ZM8.13352 26.7484L8.13347 26.7487L8.13471 26.7489L8.13706 26.7499L8.13745 26.7492C10.7855 27.155 13.5905 27.4122 16.3174 22.838C16.6024 22.3598 16.2821 21.7547 15.6974 21.7076C13.6656 21.5441 10.9127 21.9058 9.32563 23.8505C9.54681 22.3265 9.03271 20.5463 6.77494 18.235C6.39312 17.8441 5.73767 17.9184 5.50271 18.4001C4.34544 20.7716 3.72359 24.7182 8.13352 26.7484ZM7.35025 35.5956L7.3502 35.595C1.87254 34.5588 1.37705 30.0166 1.92971 27.1377C2.03074 26.6114 2.66572 26.3775 3.15008 26.6658C6.38466 28.5903 7.51273 30.4023 7.74695 32.1312C8.89643 29.5308 11.8937 28.4106 14.173 28.0758C14.745 27.9918 15.1993 28.4827 15.0625 29.0059C13.5349 34.8478 10.3817 35.3249 7.35511 35.595L7.35487 35.5959L7.3517 35.5954L7.35025 35.5956ZM10.5716 44.4201L10.5718 44.4203L10.5729 44.42L10.5755 44.4195L10.5754 44.4188C13.3288 43.2042 16.126 41.7542 15.4034 35.742C15.3406 35.2186 14.7694 34.9178 14.2713 35.1707C12.2425 36.2009 9.80318 38.2108 9.67525 41.0391C8.82443 39.492 7.10815 38.1482 3.38549 37.3609C2.81507 37.2402 2.28009 37.6823 2.3814 38.217C2.92711 41.0971 5.06252 45.1764 10.5716 44.4201ZM16.9291 52.4281L16.9285 52.4278C12.2672 55.7027 8.09131 52.9301 6.03946 50.5363C5.67157 50.1071 5.92072 49.4597 6.48982 49.3088C10.3483 48.285 12.6569 48.7171 14.278 49.7425C12.8508 47.0565 14.0456 44.0355 15.3689 42.1466C15.674 41.7112 16.3039 41.7212 16.6259 42.1444C20.6005 47.367 18.81 50.0152 16.9316 52.4248L16.932 52.4254L16.9304 52.4264L16.9291 52.4281ZM23.3805 59.4615L23.3804 59.4613C18.2207 63.0859 13.6043 59.9467 11.3827 57.3066C11.0188 56.8741 11.2695 56.2267 11.838 56.0734C16.1288 54.9154 18.6854 55.3865 20.4761 56.5188C18.8935 53.5395 20.2557 50.1839 21.7268 48.121C22.0354 47.688 22.6657 47.6976 22.9895 48.1192C27.4196 53.8909 25.4504 56.806 23.3836 59.4573L23.3845 59.4584L23.381 59.4606L23.3805 59.4615Z" fill="url(#paint1_linear_4118_6777)"/>
    <path fill-rule="evenodd" clip-rule="evenodd" d="M52.7476 7.90749C55.2594 8.26885 58.6635 9.75678 58.2233 13.8026C55.8052 13.6565 53.2817 13.353 51.8739 8.87149C51.7091 8.34718 52.168 7.82412 52.7476 7.90749ZM53.5513 14.8987C55.3644 14.6125 57.8177 14.7489 59.4 16.3477C59.0626 15.0001 59.3542 13.3676 61.1349 11.1312C61.4716 10.7083 62.124 10.7255 62.401 11.1856C63.6435 13.249 64.5038 16.7123 60.7469 18.875L60.7471 18.8755L60.7452 18.876L60.7437 18.8769L60.7433 18.8763C58.403 19.4502 55.9095 19.9039 53.0477 16.0807C52.7107 15.6303 52.9708 14.9903 53.5513 14.8987ZM64.3648 26.7484V26.7487L64.3636 26.7489L64.3611 26.7499L64.3608 26.7492C61.7128 27.155 58.9077 27.4122 56.1809 22.838C55.8959 22.3598 56.2162 21.7547 56.8008 21.7076C58.8325 21.5441 61.5856 21.9058 63.1726 23.8505C62.9515 22.3265 63.4655 20.5463 65.7234 18.235C66.1051 17.8441 66.7606 17.9184 66.9956 18.4001C68.1529 20.7716 68.7746 24.7182 64.3648 26.7484ZM65.1479 35.5956L65.1481 35.595C70.6257 34.5588 71.1213 30.0166 70.5686 27.1377C70.4675 26.6114 69.8325 26.3775 69.3481 26.6658C66.1136 28.5903 64.9856 30.4023 64.7513 32.1312C63.6018 29.5308 60.6046 28.4106 58.3252 28.0758C57.7532 27.9918 57.2988 28.4827 57.4356 29.0059C58.9633 34.8478 62.1166 35.3249 65.1431 35.595L65.1434 35.5959L65.1465 35.5954L65.1479 35.5956ZM61.9267 44.4201L61.9265 44.4203L61.9254 44.42L61.9227 44.4195L61.9229 44.4188C59.1694 43.2042 56.3722 41.7542 57.0948 35.742C57.1577 35.2186 57.7289 34.9178 58.2269 35.1707C60.2558 36.2009 62.6951 38.2108 62.823 41.0391C63.6737 39.492 65.3901 38.1482 69.1128 37.3609C69.6831 37.2402 70.2182 37.6823 70.1168 38.217C69.5712 41.0971 67.4358 45.1764 61.9267 44.4201ZM55.5692 52.4281L55.5697 52.4278C60.2312 55.7027 64.4069 52.9301 66.4588 50.5363C66.8267 50.1071 66.5776 49.4597 66.0084 49.3088C62.1499 48.285 59.8413 48.7171 58.2203 49.7425C59.6474 47.0565 58.4527 44.0355 57.1293 42.1466C56.8243 41.7112 56.1943 41.7212 55.8724 42.1444C51.8977 47.367 53.6882 50.0152 55.5666 52.4248L55.5662 52.4254L55.5678 52.4264L55.5692 52.4281ZM49.1177 59.4615L49.1178 59.4613C54.2775 63.0859 58.8939 59.9467 61.1156 57.3066C61.4795 56.8741 61.2287 56.2267 60.6603 56.0734C56.3694 54.9154 53.8128 55.3865 52.0221 56.5188C53.6047 53.5395 52.2425 50.1839 50.7714 48.121C50.4628 47.688 49.8325 47.6976 49.5087 48.1192C45.0786 53.8909 47.0478 56.806 49.1146 59.4573L49.1137 59.4584L49.1172 59.4606L49.1177 59.4615Z" fill="url(#paint2_linear_4118_6777)"/>
</svg>
