<svg width="70" height="69" viewBox="0 0 70 69" fill="none" xmlns="http://www.w3.org/2000/svg">
    <defs>
        <linearGradient id="paint0_linear_3840_12452" x1="52.2899" y1="39.2438" x2="17.8242" y2="39.2438" gradientUnits="userSpaceOnUse">
            <stop stop-color="#702C87"/>
            <stop offset="1" stop-color="#063098"/>
        </linearGradient>
        <linearGradient id="paint1_linear_3840_12452" x1="24.3824" y1="41.8312" x2="7.47461" y2="41.8312" gradientUnits="userSpaceOnUse">
            <stop stop-color="#702C87"/>
            <stop offset="1" stop-color="#063098"/>
        </linearGradient>
        <linearGradient id="paint2_linear_3840_12452" x1="51.5028" y1="27.1689" x2="43.6992" y2="27.1689" gradientUnits="userSpaceOnUse">
            <stop stop-color="#702C87"/>
            <stop offset="1" stop-color="#063098"/>
        </linearGradient>
        <linearGradient id="paint3_linear_3840_12452" x1="27.5267" y1="58.2188" x2="1.28125" y2="58.2188" gradientUnits="userSpaceOnUse">
            <stop stop-color="#702C87"/>
            <stop offset="1" stop-color="#063098"/>
        </linearGradient>
        <linearGradient id="paint4_linear_3840_12452" x1="53.8063" y1="37.0876" x2="39.1659" y2="37.0876" gradientUnits="userSpaceOnUse">
            <stop stop-color="#702C87"/>
            <stop offset="1" stop-color="#063098"/>
        </linearGradient>
        <linearGradient id="paint5_linear_3840_12452" x1="59.5914" y1="49.5936" x2="31.624" y2="49.5936" gradientUnits="userSpaceOnUse">
            <stop stop-color="#702C87"/>
            <stop offset="1" stop-color="#063098"/>
        </linearGradient>
    </defs>
    <path fill-rule="evenodd" clip-rule="evenodd" d="M38.4727 16.4933C39.0846 16.8622 39.2817 17.6573 38.9128 18.2692C36.8669 21.6631 37.9695 25.3838 41.245 27.2673C41.8644 27.6235 42.0778 28.4144 41.7216 29.0337C41.3654 29.6531 40.5746 29.8665 39.9552 29.5105C35.471 26.9319 33.8739 21.6162 36.6968 16.9334C37.0656 16.3215 37.8609 16.1244 38.4727 16.4933Z" fill="#6FF1A7"/>
    <path fill-rule="evenodd" clip-rule="evenodd" d="M32.9984 15.7616C33.6371 16.0818 33.8952 16.8593 33.5749 17.498C31.0695 22.4943 32.3436 27.7061 35.7742 30.0993C36.3602 30.5081 36.5038 31.3146 36.0949 31.9006C35.6861 32.4867 34.8797 32.6302 34.2937 32.2214C29.6006 28.9474 28.3021 22.2407 31.262 16.3381C31.5822 15.6994 32.3596 15.4413 32.9984 15.7616Z" fill="#6FF1A7"/>
    <path fill-rule="evenodd" clip-rule="evenodd" d="M17.8242 14.2313C17.8242 12.3259 19.3688 10.7812 21.2742 10.7812H60.0867C61.992 10.7812 63.5367 12.3259 63.5367 14.2313V39.2438H60.0867V14.2313H21.2742V21.1313H17.8242V14.2313Z" fill="url(#paint0_linear_3840_12452)"/>
    <path fill-rule="evenodd" clip-rule="evenodd" d="M18.6872 38.3812C22.9741 38.3812 26.4497 34.9059 26.4497 30.6187C26.4497 26.3316 22.9741 22.8562 18.6872 22.8562C14.4 22.8562 10.9246 26.3316 10.9246 30.6187C10.9246 34.9059 14.4 38.3812 18.6872 38.3812ZM18.6872 41.8312C24.8796 41.8312 29.8997 36.8113 29.8997 30.6187C29.8997 24.4262 24.8796 19.4062 18.6872 19.4062C12.4946 19.4062 7.47461 24.4262 7.47461 30.6187C7.47461 36.8113 12.4946 41.8312 18.6872 41.8312Z" fill="url(#paint1_linear_3840_12452)"/>
    <path fill-rule="evenodd" clip-rule="evenodd" d="M48.8742 24.5814C50.3032 24.5814 51.4617 23.4228 51.4617 21.9939C51.4617 20.5649 50.3032 19.4064 48.8742 19.4064C47.4451 19.4064 46.2867 20.5649 46.2867 21.9939C46.2867 23.4228 47.4451 24.5814 48.8742 24.5814ZM48.8742 27.1689C51.7322 27.1689 54.0492 24.852 54.0492 21.9939C54.0492 19.1357 51.7322 16.8188 48.8742 16.8188C46.0161 16.8188 43.6992 19.1357 43.6992 21.9939C43.6992 24.852 46.0161 27.1689 48.8742 27.1689Z" fill="url(#paint2_linear_3840_12452)"/>
    <path fill-rule="evenodd" clip-rule="evenodd" d="M14.7309 42.3365C15.4046 43.0101 15.4046 44.1024 14.7309 44.776L4.73816 54.7688L3.51841 53.549L4.73816 54.7688H32.6341L22.6414 44.776C21.9677 44.1024 21.9677 43.0101 22.6414 42.3365C23.315 41.6629 24.4072 41.6629 25.0809 42.3365L35.0736 52.3293C37.2469 54.5026 35.7077 58.2188 32.6341 58.2188H4.73816C1.66454 58.2188 0.125273 54.5026 2.29865 52.3293L12.2914 42.3365C12.965 41.6629 14.0572 41.6629 14.7309 42.3365Z" fill="url(#paint3_linear_3840_12452)"/>
    <path fill-rule="evenodd" clip-rule="evenodd" d="M47.2722 27.9289C47.8052 28.4046 47.8515 29.2224 47.3755 29.7555L43.1393 34.5001H54.6104L50.3741 29.7555C49.8982 29.2224 49.9444 28.4046 50.4774 27.9289C51.0105 27.4529 51.8283 27.4992 52.3042 28.0322L58.2084 34.6448C59.0519 35.5896 58.3812 37.0876 57.1145 37.0876H40.6351C39.3684 37.0876 38.6978 35.5896 39.5414 34.6448L45.4454 28.0322C45.9214 27.4992 46.7392 27.4529 47.2722 27.9289Z" fill="url(#paint4_linear_3840_12452)"/>
    <path fill-rule="evenodd" clip-rule="evenodd" d="M31.624 40.1061C31.624 39.1534 32.3963 38.3811 33.349 38.3811H37.5135L38.0188 38.8864C40.1117 40.9793 41.782 41.2003 42.9157 40.979C44.1762 40.733 45.2087 39.8546 45.7452 39.1035L46.2613 38.3811H61.8115C63.4661 38.3811 64.8487 38.7723 65.9443 39.5463C67.0376 40.3188 67.6938 41.3657 68.085 42.4136C68.7455 44.1828 68.726 46.2283 68.7141 47.4615C68.7127 47.6095 68.7115 47.7458 68.7115 47.8686V49.5936H35.9365C34.9838 49.5936 34.2115 48.8213 34.2115 47.8686C34.2115 46.9159 34.9838 46.1436 35.9365 46.1436H65.2534C65.2267 45.2531 65.137 44.3813 64.8529 43.6204C64.6403 43.0512 64.348 42.6427 63.9534 42.364C63.561 42.0867 62.9167 41.8311 61.8115 41.8311H47.9667C46.9889 42.9035 45.4885 43.9918 43.5767 44.3651C41.2616 44.8171 38.6741 44.1588 36.1092 41.8311H33.349C32.3963 41.8311 31.624 41.0588 31.624 40.1061Z" fill="url(#paint5_linear_3840_12452)"/>
</svg>
