<svg width="69" height="69" viewBox="0 0 69 69" fill="none" xmlns="http://www.w3.org/2000/svg">
    <defs>
        <linearGradient id="paint0_linear_4109_7799" x1="45.9177" y1="58.347" x2="6.8999" y2="58.347" gradientUnits="userSpaceOnUse">
            <stop stop-color="#1110AD"/>
            <stop offset="1" stop-color="#063098"/>
        </linearGradient>
        <linearGradient id="paint1_linear_4109_7799" x1="57.8558" y1="46.2719" x2="44.8499" y2="46.2719" gradientUnits="userSpaceOnUse">
            <stop stop-color="#1110AD"/>
            <stop offset="1" stop-color="#063098"/>
        </linearGradient>
        <linearGradient id="paint2_linear_4109_7799" x1="42.865" y1="27.2969" x2="10.3501" y2="27.2969" gradientUnits="userSpaceOnUse">
            <stop stop-color="#1110AD"/>
            <stop offset="1" stop-color="#063098"/>
        </linearGradient>
        <linearGradient id="paint3_linear_4109_7799" x1="38.3129" y1="20.3969" x2="10.3501" y2="20.3969" gradientUnits="userSpaceOnUse">
            <stop stop-color="#1110AD"/>
            <stop offset="1" stop-color="#063098"/>
        </linearGradient>
        <linearGradient id="paint4_linear_4109_7799" x1="50.9012" y1="41.0969" x2="48.3" y2="41.0969" gradientUnits="userSpaceOnUse">
            <stop stop-color="#1110AD"/>
            <stop offset="1" stop-color="#063098"/>
        </linearGradient>
    </defs>
    <path fill-rule="evenodd" clip-rule="evenodd" d="M6.8999 24.7095H53.4749C56.3331 24.7095 58.6499 27.0263 58.6499 29.8845V49.722C58.6499 54.4854 54.7883 58.347 50.0249 58.347H15.5249C10.7615 58.347 6.8999 54.4854 6.8999 49.722V24.7095ZM10.3499 28.1595V49.722C10.3499 52.58 12.6668 54.897 15.5249 54.897H50.0249C52.8831 54.897 55.1999 52.58 55.1999 49.722V29.8845C55.1999 28.9318 54.4276 28.1595 53.4749 28.1595H10.3499Z" fill="url(#paint0_linear_4109_7799)"/>
    <path fill-rule="evenodd" clip-rule="evenodd" d="M55.2 49.7219H10.3501V46.2719H55.2V49.7219Z" fill="#1015AB"/>
    <path fill-rule="evenodd" clip-rule="evenodd" d="M58.6499 35.9219H48.2999V42.8219H58.6499V35.9219ZM48.2999 32.4719C46.3944 32.4719 44.8499 34.0165 44.8499 35.9219V42.8219C44.8499 44.7272 46.3944 46.2719 48.2999 46.2719H58.6499C60.5553 46.2719 62.0999 44.7272 62.0999 42.8219V35.9219C62.0999 34.0165 60.5553 32.4719 58.6499 32.4719H48.2999Z" fill="url(#paint1_linear_4109_7799)"/>
    <path fill-rule="evenodd" clip-rule="evenodd" d="M50.0251 20.3969H13.8001V23.8469H50.0251V20.3969ZM10.3501 16.9468V27.2969H53.4751V20.3969C53.4751 18.4915 51.9305 16.9468 50.0251 16.9468H10.3501Z" fill="url(#paint2_linear_4109_7799)"/>
    <path fill-rule="evenodd" clip-rule="evenodd" d="M10.3501 16.0843L43.4332 10.6987C45.5323 10.357 47.4376 11.9773 47.4376 14.1039V19.5344L10.3501 20.3969V16.0843ZM29.2261 16.5069L43.9876 16.1636V14.1039L29.2261 16.5069Z" fill="url(#paint3_linear_4109_7799)"/>
    <path d="M48.3 37.6469H50.8875C51.3638 37.6469 51.75 38.033 51.75 38.5094V40.2344C51.75 40.7107 51.3638 41.0969 50.8875 41.0969H48.3V37.6469Z" fill="url(#paint4_linear_4109_7799)"/>
</svg>
