<svg width="70" height="69" viewBox="0 0 70 69" fill="none" xmlns="http://www.w3.org/2000/svg">
    <defs>
        <linearGradient id="paint0_linear_4118_6817" x1="46.1094" y1="63.787" x2="12.3873" y2="63.787" gradientUnits="userSpaceOnUse">
            <stop stop-color="#1110AD"/>
            <stop offset="1" stop-color="#063098"/>
        </linearGradient>
        <linearGradient id="paint1_linear_4118_6817" x1="40.4452" y1="27.6379" x2="23.5375" y2="27.6379" gradientUnits="userSpaceOnUse">
            <stop stop-color="#1110AD"/>
            <stop offset="1" stop-color="#063098"/>
        </linearGradient>
    </defs>
    <path fill-rule="evenodd" clip-rule="evenodd" d="M53.4082 38.3457C53.2459 37.7702 52.9926 37.2084 52.6495 36.6778L52.6161 36.6261L52.5845 36.5731C52.27 36.0463 51.8595 35.5528 51.3592 35.1153L51.3384 35.097L51.3178 35.0786C50.5411 34.3772 49.6044 33.8036 48.5521 33.4036C46.4293 32.617 44.0345 32.6161 41.911 33.4012C40.9671 33.765 40.1081 34.2594 39.363 34.8567L39.2597 34.9692L34.7504 39.0547L30.2411 34.9692L30.1376 34.8567C29.3927 34.2594 28.5336 33.7651 27.5897 33.4012C25.4662 32.6161 23.0714 32.617 20.9486 33.4036C19.8964 33.8036 18.9597 34.3772 18.1829 35.0786L18.1676 35.0924L18.1522 35.1058C17.1154 36.0201 16.4224 37.1408 16.0997 38.32L16.0942 38.3402L16.0885 38.3602C15.911 38.9793 15.8276 39.6131 15.8382 40.2456L15.8387 40.2746V40.3038C15.8387 40.8989 15.9205 41.4862 16.0826 42.0531C16.2604 42.6442 16.516 43.2211 16.8479 43.7715C17.2088 44.3287 17.6541 44.8509 18.1774 45.3214L18.1873 45.3302L34.7504 60.337L51.3271 45.318L51.3408 45.3059C51.851 44.8533 52.2718 44.3487 52.5945 43.815L52.6211 43.7712L52.6488 43.7282C53.3321 42.6706 53.6702 41.4971 53.6621 40.3277L53.6618 40.2865L53.6625 40.2453C53.6732 39.6129 53.5898 38.9795 53.4123 38.3605L53.4082 38.3457ZM13.9221 45.6004C13.426 44.7867 13.0399 43.9218 12.7721 43.0244C12.5165 42.1388 12.3887 41.2242 12.3887 40.3038C12.3723 39.3278 12.5012 38.3542 12.7721 37.4094C13.2812 35.549 14.3545 33.8547 15.8707 32.518C16.9793 31.5169 18.2921 30.7207 19.7361 30.1735C22.6426 29.0928 25.902 29.0928 28.8086 30.1735C30.1734 30.6969 31.4273 31.4316 32.5143 32.3443L32.674 32.518L34.7504 34.3993L36.8268 32.518L36.9865 32.3443C38.0734 31.4316 39.3273 30.6969 40.6922 30.1735C43.5986 29.0928 46.858 29.0928 49.7646 30.1735C51.2086 30.7207 52.5214 31.5169 53.63 32.518C54.3947 33.1864 55.0411 33.9577 55.5467 34.8045C56.073 35.6185 56.4709 36.4953 56.7286 37.4094C56.9996 38.3542 57.1285 39.3278 57.1119 40.3038C57.1249 42.1647 56.5843 43.9944 55.5467 45.6004C55.0356 46.4456 54.3871 47.2155 53.63 47.8869L37.0669 62.8937C35.7521 64.0848 33.7485 64.0848 32.4339 62.8937L15.8707 47.8869C15.1131 47.2057 14.4579 46.4368 13.9221 45.6004Z" fill="url(#paint0_linear_4118_6817)"/>
    <path d="M38.1848 41.9387C38.1848 40.986 38.9571 40.2137 39.9098 40.2137H46.8098C47.7625 40.2137 48.5348 40.986 48.5348 41.9387C48.5348 42.8914 47.7625 43.6637 46.8098 43.6637H39.9098C38.9571 43.6637 38.1848 42.8914 38.1848 41.9387Z" fill="#1110AD"/>
    <path d="M43.3599 36.7637C44.3126 36.7637 45.0849 37.536 45.0849 38.4887V45.3887C45.0849 46.3415 44.3126 47.1137 43.3599 47.1137C42.4072 47.1137 41.6349 46.3415 41.6349 45.3887V38.4887C41.6349 37.536 42.4072 36.7637 43.3599 36.7637Z" fill="#1110AD"/>
    <path fill-rule="evenodd" clip-rule="evenodd" d="M34.75 24.1879C39.0371 24.1879 42.5125 20.7126 42.5125 16.4255C42.5125 12.1384 39.0371 8.66298 34.75 8.66298C30.4628 8.66298 26.9875 12.1384 26.9875 16.4255C26.9875 20.7126 30.4628 24.1879 34.75 24.1879ZM34.75 27.6379C40.9426 27.6379 45.9625 22.618 45.9625 16.4255C45.9625 10.233 40.9426 5.21298 34.75 5.21298C28.5574 5.21298 23.5375 10.233 23.5375 16.4255C23.5375 22.618 28.5574 27.6379 34.75 27.6379Z" fill="url(#paint1_linear_4118_6817)"/>
</svg>
