<svg width="34" height="31" viewBox="0 0 34 31" fill="none" xmlns="http://www.w3.org/2000/svg">
    <path d="M30.5444 3.27767C26.8071 -0.459581 20.7509 -0.459581 17.0136 3.27767C13.2764 -0.459581 7.22012 -0.459581 3.48287 3.27767C-0.25438 7.01492 -0.25438 13.0712 3.48287 16.8084L17.0136 30.3392L30.5444 16.8084C34.2816 13.0903 34.2816 7.01492 30.5444 3.27767Z" fill="#AED5FF"/>
    <path d="M16.9386 30.9713L3.50372 17.5364C-0.425182 13.6075 -0.789325 6.82291 3.13958 2.91317C5.03695 1.03497 7.54761 0 10.2308 0C12.7414 0 15.0988 0.900766 16.9386 2.56815C16.977 2.60648 17.0153 2.60648 17.0536 2.56815C18.8935 0.900766 21.27 0 23.7615 0C26.4447 0 28.9553 1.03497 30.8527 2.91317C34.8008 6.82291 34.4175 13.6075 30.4886 17.5364L17.0536 30.9713C17.0345 31.0096 16.977 31.0096 16.9386 30.9713ZM13.3931 1.4949C9.67497 0.229982 5.88023 1.28409 3.42706 4.02474C0.283938 7.55117 0.820568 13.5116 4.17451 16.8464L16.9386 29.6105C16.977 29.6489 17.0345 29.6489 17.0728 29.6105L29.8369 16.8464C33.1717 13.5116 33.7275 7.55117 30.5844 4.02474C28.1312 1.26493 24.3365 0.229982 20.6184 1.4949C19.3535 1.91654 18.2419 2.72151 17.3028 3.67978L17.0153 3.96725L16.7278 3.67978C15.7696 2.72151 14.658 1.91654 13.3931 1.4949Z" fill="#1077E8"/>
    <path d="M22.0185 15.9645H19.1629C18.9137 15.9645 18.7029 16.1753 18.7029 16.4245V19.2801C18.7029 19.5293 18.4921 19.7401 18.2429 19.7401H15.7514C15.5023 19.7401 15.2914 19.5293 15.2914 19.2801V16.4245C15.2914 16.1753 15.0806 15.9645 14.8315 15.9645H11.9758C11.7267 15.9645 11.5159 15.7537 11.5159 15.5045V13.0131C11.5159 12.7639 11.7267 12.5531 11.9758 12.5531H14.8315C15.0806 12.5531 15.2914 12.3422 15.2914 12.0931V9.23748C15.2914 8.98833 15.5023 8.77753 15.7514 8.77753H18.2429C18.4921 8.77753 18.7029 8.98833 18.7029 9.23748V12.0931C18.7029 12.3422 18.9137 12.5531 19.1629 12.5531H22.0185C22.2676 12.5531 22.4785 12.7639 22.4785 13.0131V15.5045C22.4785 15.7537 22.2676 15.9645 22.0185 15.9645Z" fill="white"/>
    <path d="M18.2433 20.0471H15.7518C15.3301 20.0471 14.966 19.7022 14.966 19.2613V16.4057C14.966 16.329 14.9085 16.2716 14.8318 16.2716H11.9762C11.5546 16.2716 11.1904 15.9266 11.1904 15.4858V12.9942C11.1904 12.5726 11.5354 12.2085 11.9762 12.2085H14.8318C14.9085 12.2085 14.966 12.151 14.966 12.0743V9.21865C14.966 8.79701 15.311 8.43292 15.7518 8.43292H18.2433C18.6649 8.43292 19.0291 8.77785 19.0291 9.21865V12.0743C19.0291 12.151 19.0866 12.2085 19.1632 12.2085H22.0189C22.4405 12.2085 22.8046 12.5534 22.8046 12.9942V15.4858C22.8046 15.9074 22.4597 16.2716 22.0189 16.2716H19.1632C19.0866 16.2716 19.0291 16.329 19.0291 16.4057V19.2613C19.0291 19.7022 18.6841 20.0471 18.2433 20.0471ZM11.9762 12.8792C11.8995 12.8792 11.8421 12.9368 11.8421 13.0134V15.5049C11.8421 15.5816 11.8995 15.6391 11.9762 15.6391H14.8318C15.2535 15.6391 15.6176 15.984 15.6176 16.4248V19.2805C15.6176 19.3571 15.6751 19.4146 15.7518 19.4146H18.2433C18.3199 19.4146 18.3774 19.3571 18.3774 19.2805V16.4248C18.3774 16.0032 18.7224 15.6391 19.1632 15.6391H22.0189C22.0955 15.6391 22.153 15.5816 22.153 15.5049V13.0134C22.153 12.9368 22.0955 12.8792 22.0189 12.8792H19.1632C18.7416 12.8792 18.3774 12.5343 18.3774 12.0935V9.23784C18.3774 9.16117 18.3199 9.10366 18.2433 9.10366H15.7518C15.6751 9.10366 15.6176 9.16117 15.6176 9.23784V12.0935C15.6176 12.5151 15.2727 12.8792 14.8318 12.8792H11.9762Z" fill="#1077E8" stroke="#1077E8" stroke-width="0.25" stroke-miterlimit="10"/>
</svg>
