<svg width="26" height="32" viewBox="0 0 26 32" fill="none" xmlns="http://www.w3.org/2000/svg">
    <path d="M24.0401 16.957H14.5017V31.6023H24.0401C24.5766 31.6023 25.0336 31.2049 25.0336 30.728V17.8512C25.0336 17.3544 24.5766 16.957 24.0401 16.957Z" fill="#AED5FF"/>
    <path d="M11.5014 16.9571H1.96306C1.42653 16.9571 0.969482 17.3545 0.969482 17.8512V30.728C0.969482 31.2049 1.40666 31.6024 1.96306 31.6024H11.5014V16.9571Z" fill="#AED5FF"/>
    <path d="M23.6813 31.9999H14.4212C14.2225 31.9999 14.0635 31.8608 14.0635 31.682V16.8776C14.0635 16.6988 14.2225 16.5597 14.4212 16.5597H23.6813C24.6749 16.5597 25.4698 17.2751 25.4698 18.1495V30.3903C25.4698 31.2845 24.655 31.9999 23.6813 31.9999ZM15.2955 31.2249H23.6813C24.1781 31.2249 24.5954 30.8672 24.5954 30.4102V18.1693C24.5954 17.7122 24.1781 17.3545 23.6813 17.3545H15.2955C15.0968 17.3545 14.9378 17.4936 14.9378 17.6725V30.9069C14.9378 31.0858 15.0968 31.2249 15.2955 31.2249Z" fill="#1077E8"/>
    <path d="M11.4811 31.9999H2.43956C1.38637 31.9999 0.551758 31.2448 0.551758 30.3109V18.2488C0.551758 17.3149 1.40624 16.5597 2.43956 16.5597H11.4811C11.7394 16.5597 11.9382 16.7385 11.9382 16.977V31.5826C11.9382 31.8211 11.7394 31.9999 11.4811 31.9999ZM2.43956 17.3546C1.88316 17.3546 1.42611 17.752 1.42611 18.2687V30.3307C1.42611 30.8275 1.88316 31.2448 2.43956 31.2448H10.6067C10.8651 31.2448 11.0638 31.0659 11.0638 30.8275V17.7719C11.0638 17.5533 10.8651 17.3546 10.6067 17.3546H2.43956Z" fill="#1077E8"/>
    <path d="M11.5014 11.6712H1.96306C1.42653 11.6712 0.969482 12.0687 0.969482 12.5654V14.8904C0.969482 15.3673 1.40666 15.7846 1.96306 15.7846H11.5014V11.6712Z" fill="white"/>
    <path d="M24.0401 11.6712H14.5017V15.7647H24.0401C24.5766 15.7647 25.0336 15.3673 25.0336 14.8705V12.5456C25.0336 12.0686 24.5766 11.6712 24.0401 11.6712Z" fill="white"/>
    <path d="M11.9964 15.7848C11.9964 16.0431 11.7778 16.2617 11.5195 16.2617H1.96131C1.14658 16.2617 0.470947 15.6456 0.470947 14.8706V12.5457C0.470947 11.7906 1.14658 11.1547 1.96131 11.1547H11.5195C11.7778 11.1547 11.9964 11.3733 11.9964 11.6316V15.7848ZM1.96131 12.1681C1.70298 12.1681 1.46452 12.347 1.46452 12.5656V14.8905C1.46452 15.1091 1.68311 15.288 1.96131 15.288H10.5259C10.7843 15.288 11.0029 15.0693 11.0029 14.811V12.6649C11.0029 12.4066 10.7843 12.188 10.5259 12.188H1.96131V12.1681Z" fill="#1077E8"/>
    <path d="M24.0385 16.261H14.4803C14.222 16.261 14.0034 16.0424 14.0034 15.7841V11.6508C14.0034 11.3925 14.222 11.1739 14.4803 11.1739H24.0385C24.8533 11.1739 25.5289 11.7899 25.5289 12.5649V14.8899C25.5289 15.645 24.8533 16.261 24.0385 16.261ZM14.997 14.7905C14.997 15.0489 15.2156 15.2674 15.4739 15.2674H24.0385C24.3167 15.2674 24.5353 15.0886 24.5353 14.87V12.545C24.5353 12.3264 24.3167 12.1476 24.0385 12.1476H15.4739C15.2156 12.1476 14.997 12.3662 14.997 12.6245V14.7905Z" fill="#1077E8"/>
    <path d="M11.9157 9.04808C11.9157 9.04808 13.0285 8.11412 14.0817 9.04808L15.2342 5.8289C15.2342 5.8289 15.5323 2.82832 13.2669 3.24563C13.2669 3.2655 8.47788 2.35137 11.9157 9.04808Z" fill="white"/>
    <path d="M12.9906 4.02045C14.7194 4.02045 14.9777 5.33201 14.7194 6.60379C14.5008 7.6371 13.6463 10.2601 14.0239 9.58451C16.786 4.75573 17.1437 2.90766 16.6072 2.1128C16.0706 1.31794 15.2162 1 12.9906 1C10.765 1 9.91047 1.31794 9.37394 2.1128C8.83741 2.90766 9.21497 4.73586 11.9572 9.58451C12.3348 10.2403 11.4803 7.6371 11.2617 6.60379C11.0233 5.33201 11.2618 4.02045 12.9906 4.02045Z" fill="#AED5FF"/>
    <path d="M12.9906 4.02045C14.7194 4.02045 14.9777 5.33201 14.7194 6.60379C14.5008 7.6371 13.6463 10.2601 14.0239 9.58451C16.786 4.75573 17.1437 2.90766 16.6072 2.1128C16.0706 1.31794 15.2162 1 12.9906 1C10.765 1 9.91047 1.31794 9.37394 2.1128C8.83741 2.90766 9.21497 4.73586 11.9572 9.58451C12.3348 10.2403 11.4803 7.6371 11.2617 6.60379C11.0233 5.33201 11.2618 4.02045 12.9906 4.02045Z" stroke="#1077E8" stroke-width="0.5" stroke-miterlimit="10"/>
    <path d="M14.9785 9.70414C14.9785 9.70414 15.6939 9.36628 15.6939 10.34C15.6939 10.34 21.4367 10.5188 20.5823 7.55798C20.5823 7.55798 18.2374 4.06063 14.9785 9.70414Z" fill="white"/>
    <path d="M14.8395 9.92265C14.2633 10.34 16.6479 5.74964 17.701 4.65671C18.8139 3.50416 19.6882 3.76251 20.344 4.17981C20.9799 4.59712 22.6888 7.00154 22.9869 7.87589C23.3644 9.04831 23.2849 9.70408 22.4106 10.0618C21.5362 10.4195 15.3761 10.7374 15.3761 10.4791C15.3761 10.1214 18.7145 10.0618 19.6485 9.06819C20.5824 8.07462 19.7677 6.90216 18.5356 6.92203C16.5882 7.00152 15.1774 9.66432 14.8395 9.92265Z" fill="#73D7FF"/>
    <path d="M14.8395 9.92265C14.2633 10.34 16.6479 5.74964 17.701 4.65671C18.8139 3.50416 19.6882 3.76251 20.344 4.17981C20.9799 4.59712 22.6888 7.00154 22.9869 7.87589C23.3644 9.04831 23.2849 9.70408 22.4106 10.0618C21.5362 10.4195 15.3761 10.7374 15.3761 10.4791C15.3761 10.1214 18.7145 10.0618 19.6485 9.06819C20.5824 8.07462 19.7677 6.90216 18.5356 6.92203C16.5882 7.00152 15.1774 9.66432 14.8395 9.92265Z" fill="#AED5FF" stroke="#1077E8" stroke-width="0.5" stroke-miterlimit="10"/>
    <path d="M10.9612 9.70414C10.9612 9.70414 10.2459 9.36628 10.2459 10.34C10.2459 10.34 4.50298 10.5188 5.35745 7.55798C5.37733 7.55798 7.72217 4.06063 10.9612 9.70414Z" fill="white"/>
    <path d="M11.1629 9.92265C11.7392 10.34 9.35461 5.74964 8.30142 4.65671C7.18861 3.50416 6.31428 3.76251 5.65852 4.17981C5.02263 4.59712 3.31367 7.00154 3.0156 7.87589C2.63804 9.04831 2.71753 9.70408 3.59188 10.0618C4.46622 10.4195 10.6264 10.7374 10.6264 10.4791C10.6264 10.1214 7.28798 10.0618 6.35402 9.06819C5.42006 8.07462 6.23478 6.90216 7.46682 6.92203C9.41423 7.00152 10.8052 9.66432 11.1629 9.92265Z" fill="#AED5FF"/>
    <path d="M11.1629 9.92265C11.7392 10.34 9.35461 5.74964 8.30142 4.65671C7.18861 3.50416 6.31428 3.76251 5.65852 4.17981C5.02263 4.59712 3.31367 7.00154 3.0156 7.87589C2.63804 9.04831 2.71753 9.70408 3.59188 10.0618C4.46622 10.4195 10.6264 10.7374 10.6264 10.4791C10.6264 10.1214 7.28798 10.0618 6.35402 9.06819C5.42006 8.07462 6.23478 6.90216 7.46682 6.92203C9.41423 7.00152 10.8052 9.66432 11.1629 9.92265Z" stroke="#1077E8" stroke-width="0.5" stroke-miterlimit="10"/>
</svg>
