<svg width="32" height="31" viewBox="0 0 32 31" fill="none" xmlns="http://www.w3.org/2000/svg">
    <path d="M30.4539 1.13373H1.50342V17.8076H30.4539V1.13373Z" fill="#AED5FF"/>
    <path d="M13.4834 4.9541L20.6464 9.45089L13.165 14.0869L13.4834 4.9541Z" fill="white"/>
    <path d="M9.92122 18.007H6.24023V22.3048H9.92122V18.007Z" fill="#AED5FF"/>
    <path d="M17.839 18.007H14.158V22.3048H17.839V18.007Z" fill="#AED5FF"/>
    <path d="M25.7601 18.007H22.0791V22.3048H25.7601V18.007Z" fill="#AED5FF"/>
    <path d="M29.7198 25.9257H26.0388V30.2235H29.7198V25.9257Z" fill="#AED5FF"/>
    <path d="M21.7977 25.9257H18.1167V30.2235H21.7977V25.9257Z" fill="#AED5FF"/>
    <path d="M13.88 25.9257H10.199V30.2235H13.88V25.9257Z" fill="#AED5FF"/>
    <path d="M5.96223 25.9257H2.28125V30.2235H5.96223V25.9257Z" fill="#AED5FF"/>
    <path d="M28.8643 19.1212C28.5061 19.1212 28.2077 18.8228 28.2077 18.4646C28.2077 18.1065 28.5061 17.808 28.8643 17.808H29.8591C30.0382 17.808 30.1775 17.6687 30.1775 17.4897V1.65144C30.1775 1.47237 30.0382 1.33308 29.8591 1.33308H2.14233C1.96325 1.33308 1.82397 1.47237 1.82397 1.65144V17.4897C1.82397 17.6687 1.96325 17.808 2.14233 17.808H3.13719C3.49534 17.808 3.79379 18.1065 3.79379 18.4646C3.79379 18.8228 3.49534 19.1212 3.13719 19.1212H1.16735C0.809204 19.1212 0.510742 18.8228 0.510742 18.4646V0.656581C0.510742 0.298432 0.809204 0 1.16735 0H30.854C31.2122 0 31.5106 0.298432 31.5106 0.656581V18.4646C31.5106 18.8228 31.2122 19.1212 30.854 19.1212H28.8643Z" fill="#1077E8"/>
    <path d="M13.4226 15.1615C13.2435 15.1615 13.0644 15.1217 12.9053 15.0222C12.567 14.8431 12.3481 14.485 12.3481 14.107V4.99406C12.3481 4.61602 12.567 4.25782 12.9053 4.07875C13.0644 3.99916 13.2435 3.93951 13.4226 3.93951C13.6216 3.93951 13.8205 3.9992 13.9996 4.11858L21.1029 8.675C21.4014 8.87397 21.5805 9.19233 21.5805 9.55048C21.5805 9.90863 21.4014 10.2469 21.1029 10.426L13.9996 14.9824C13.8404 15.1018 13.6216 15.1615 13.4226 15.1615ZM13.9996 5.75011C13.9399 5.75011 13.9001 5.77004 13.8404 5.78994C13.7409 5.84963 13.6813 5.94909 13.6813 6.06847V13.0126C13.6813 13.132 13.7409 13.2315 13.8404 13.2912C13.8802 13.3111 13.9399 13.331 13.9996 13.331C14.0593 13.331 14.119 13.311 14.1787 13.2713L19.5907 9.78924C19.6902 9.72955 19.7499 9.63009 19.7499 9.51071C19.7499 9.39133 19.6902 9.29181 19.5907 9.23212L14.1787 5.75011C14.1389 5.77 14.0792 5.75011 13.9996 5.75011Z" fill="#1077E8"/>
    <path d="M4.11169 23.0814C3.75354 23.0814 3.45508 22.7829 3.45508 22.4248C3.45508 22.0666 3.75354 21.7682 4.11169 21.7682H5.10655C5.28563 21.7682 5.4249 21.6289 5.4249 21.4498V19.48C5.4249 18.0275 6.61874 16.8337 8.07124 16.8337C9.52373 16.8337 10.7176 18.0275 10.7176 19.48V21.4498C10.7176 21.6289 10.8568 21.7682 11.0359 21.7682H13.0058C13.1848 21.7682 13.3241 21.6289 13.3241 21.4498V19.48C13.3241 18.0275 14.5179 16.8337 15.9704 16.8337C17.4229 16.8337 18.6168 18.0275 18.6168 19.48V21.4498C18.6168 21.6289 18.756 21.7682 18.9351 21.7682H20.9049C21.084 21.7682 21.2233 21.6289 21.2233 21.4498V19.48C21.2233 18.0275 22.4171 16.8337 23.8696 16.8337C25.3221 16.8337 26.516 18.0275 26.516 19.48V21.4498C26.516 21.6289 26.6552 21.7682 26.8343 21.7682H27.8292C28.1873 21.7682 28.4858 22.0666 28.4858 22.4248C28.4858 22.7829 28.1873 23.0814 27.8292 23.0814H4.11169ZM23.9094 18.127C23.1931 18.127 22.5962 18.7239 22.5962 19.4402V21.4101C22.5962 21.5892 22.7355 21.7284 22.9146 21.7284H24.8844C25.0635 21.7284 25.2028 21.5892 25.2028 21.4101V19.4402C25.2226 18.7239 24.6257 18.127 23.9094 18.127ZM15.9903 18.127C15.274 18.127 14.6771 18.7239 14.6771 19.4402V21.4101C14.6771 21.5892 14.8164 21.7284 14.9955 21.7284H16.9653C17.1444 21.7284 17.2836 21.5892 17.2836 21.4101V19.4402C17.3035 18.7239 16.7066 18.127 15.9903 18.127ZM8.07124 18.127C7.35493 18.127 6.75803 18.7239 6.75803 19.4402V21.4101C6.75803 21.5892 6.8973 21.7284 7.07637 21.7284H9.0462C9.22527 21.7284 9.36456 21.5892 9.36456 21.4101V19.4402C9.38446 18.7239 8.78754 18.127 8.07124 18.127Z" fill="#1077E8"/>
    <path d="M1.14563 31C0.787476 31 0.489014 30.7016 0.489014 30.3434C0.489014 29.9853 0.787476 29.6868 1.14563 29.6868C1.3247 29.6868 1.46397 29.5476 1.46397 29.3685V27.3986C1.46397 25.9461 2.65781 24.7523 4.11031 24.7523C5.5628 24.7523 6.75664 25.9461 6.75664 27.3986V29.3685C6.75664 29.5476 6.89591 29.6868 7.07499 29.6868H9.04481C9.22388 29.6868 9.36317 29.5476 9.36317 29.3685V27.3986C9.36317 25.9461 10.557 24.7523 12.0095 24.7523C13.462 24.7523 14.6558 25.9461 14.6558 27.3986V29.3685C14.6558 29.5476 14.7951 29.6868 14.9742 29.6868H16.944C17.1231 29.6868 17.2624 29.5476 17.2624 29.3685V27.3986C17.2624 25.9461 18.4562 24.7523 19.9087 24.7523C21.3612 24.7523 22.555 25.9461 22.555 27.3986V29.3685C22.555 29.5476 22.6943 29.6868 22.8734 29.6868H24.8432C25.0223 29.6868 25.1616 29.5476 25.1616 29.3685V27.3986C25.1616 25.9461 26.3554 24.7523 27.8079 24.7523C29.2604 24.7523 30.4542 25.9461 30.4542 27.3986V29.3685C30.4542 29.5476 30.5935 29.6868 30.7726 29.6868C31.1307 29.6868 31.4292 29.9853 31.4292 30.3434C31.4292 30.7016 31.1307 31 30.7726 31H1.14563ZM27.8676 26.0456C27.1513 26.0456 26.5544 26.6426 26.5544 27.3589V29.3287C26.5544 29.5077 26.6936 29.647 26.8727 29.647H28.8426C29.0216 29.647 29.1609 29.5077 29.1609 29.3287V27.3589C29.1808 26.6426 28.5839 26.0456 27.8676 26.0456ZM19.9485 26.0456C19.2322 26.0456 18.6353 26.6426 18.6353 27.3589V29.3287C18.6353 29.5077 18.7746 29.647 18.9536 29.647H20.9235C21.1025 29.647 21.2418 29.5077 21.2418 29.3287V27.3589C21.2617 26.6426 20.6648 26.0456 19.9485 26.0456ZM12.0294 26.0456C11.3131 26.0456 10.7162 26.6426 10.7162 27.3589V29.3287C10.7162 29.5077 10.8555 29.647 11.0345 29.647H13.0044C13.1834 29.647 13.3227 29.5077 13.3227 29.3287V27.3589C13.3426 26.6426 12.7457 26.0456 12.0294 26.0456ZM4.11031 26.0456C3.39401 26.0456 2.79708 26.6426 2.79708 27.3589V29.3287C2.79708 29.5077 2.93637 29.647 3.11545 29.647H5.08527C5.26434 29.647 5.40363 29.5077 5.40363 29.3287V27.3589C5.42353 26.6426 4.82661 26.0456 4.11031 26.0456Z" fill="#1077E8"/>
</svg>
