<svg width="70" height="69" viewBox="0 0 70 69" fill="none" xmlns="http://www.w3.org/2000/svg">
    <defs>
        <linearGradient id="paint0_linear_3840_12478" x1="46.3597" y1="63.7871" x2="12.6377" y2="63.7871" gradientUnits="userSpaceOnUse">
            <stop stop-color="#702C87"/>
            <stop offset="1" stop-color="#063098"/>
        </linearGradient>
        <linearGradient id="paint1_linear_3840_12478" x1="40.6949" y1="27.6378" x2="23.7871" y2="27.6378" gradientUnits="userSpaceOnUse">
            <stop stop-color="#702C87"/>
            <stop offset="1" stop-color="#063098"/>
        </linearGradient>
    </defs>
    <path fill-rule="evenodd" clip-rule="evenodd" d="M53.6586 38.3458C53.4962 37.7703 53.243 37.2085 52.8999 36.6779L52.8664 36.6261L52.8349 36.5732C52.5204 36.0463 52.1099 35.5528 51.6096 35.1154L51.5887 35.0971L51.5682 35.0786C50.7914 34.3772 49.8548 33.8037 48.8025 33.4036C46.6797 32.617 44.2849 32.6162 42.1614 33.4012C41.2175 33.765 40.3584 34.2594 39.6134 34.8568L39.5101 34.9692L35.0008 39.0547L30.4914 34.9692L30.3879 34.8568C29.6431 34.2594 28.784 33.7652 27.8401 33.4012C25.7166 32.6162 23.3218 32.617 21.199 33.4036C20.1468 33.8037 19.2101 34.3772 18.4333 35.0786L18.418 35.0924L18.4026 35.1059C17.3657 36.0201 16.6728 37.1408 16.3501 38.3201L16.3446 38.3402L16.3389 38.3603C16.1613 38.9794 16.078 39.6131 16.0886 40.2457L16.0891 40.2747V40.3038C16.0891 40.8989 16.1709 41.4863 16.3329 42.0531C16.5107 42.6443 16.7663 43.2211 17.0982 43.7716C17.4591 44.3288 17.9044 44.8509 18.4278 45.3215L18.4376 45.3303L35.0008 60.3371L51.5775 45.318L51.5911 45.306C52.1014 44.8533 52.5221 44.3488 52.8449 43.815L52.8714 43.7712L52.8992 43.7283C53.5825 42.6707 53.9206 41.4972 53.9125 40.3278L53.9121 40.2866L53.9128 40.2453C53.9235 39.6129 53.8402 38.9795 53.6627 38.3606L53.6586 38.3458ZM14.1725 45.6004C13.6764 44.7867 13.2902 43.9218 13.0224 43.0245C12.7669 42.1389 12.6391 41.2243 12.6391 40.3038C12.6227 39.3278 12.7516 38.3542 13.0224 37.4094C13.5316 35.549 14.6049 33.8547 16.1211 32.518C17.2297 31.517 18.5425 30.7207 19.9865 30.1736C22.893 29.0929 26.1523 29.0929 29.059 30.1736C30.4238 30.6969 31.6777 31.4316 32.7646 32.3443L32.9244 32.518L35.0008 34.3993L37.0771 32.518L37.2369 32.3443C38.3238 31.4316 39.5777 30.6969 40.9425 30.1736C43.849 29.0929 47.1084 29.0929 50.015 30.1736C51.459 30.7207 52.7717 31.517 53.8804 32.518C54.6451 33.1865 55.2914 33.9577 55.797 34.8045C56.3233 35.6185 56.7213 36.4954 56.979 37.4094C57.25 38.3542 57.3789 39.3278 57.3623 40.3038C57.3753 42.1647 56.8346 43.9944 55.797 45.6004C55.2859 46.4457 54.6375 47.2155 53.8804 47.8869L37.3173 62.8937C36.0025 64.0848 33.9989 64.0848 32.6842 62.8937L16.1211 47.8869C15.3634 47.2057 14.7082 46.4369 14.1725 45.6004Z" fill="url(#paint0_linear_3840_12478)"/>
    <path d="M38.4346 41.9386C38.4346 40.9859 39.2069 40.2136 40.1596 40.2136H47.0596C48.0123 40.2136 48.7846 40.9859 48.7846 41.9386C48.7846 42.8913 48.0123 43.6636 47.0596 43.6636H40.1596C39.2069 43.6636 38.4346 42.8913 38.4346 41.9386Z" fill="#6FF1A7"/>
    <path d="M43.6098 36.7637C44.5625 36.7637 45.3348 37.536 45.3348 38.4887V45.3887C45.3348 46.3414 44.5625 47.1137 43.6098 47.1137C42.657 47.1137 41.8848 46.3414 41.8848 45.3887V38.4887C41.8848 37.536 42.657 36.7637 43.6098 36.7637Z" fill="#6FF1A7"/>
    <path fill-rule="evenodd" clip-rule="evenodd" d="M34.9996 24.1878C39.2868 24.1878 42.7621 20.7125 42.7621 16.4254C42.7621 12.1383 39.2868 8.66289 34.9996 8.66289C30.7125 8.66289 27.2371 12.1383 27.2371 16.4254C27.2371 20.7125 30.7125 24.1878 34.9996 24.1878ZM34.9996 27.6378C41.1922 27.6378 46.2121 22.6179 46.2121 16.4254C46.2121 10.2329 41.1922 5.21289 34.9996 5.21289C28.807 5.21289 23.7871 10.2329 23.7871 16.4254C23.7871 22.6179 28.807 27.6378 34.9996 27.6378Z" fill="url(#paint1_linear_3840_12478)"/>
</svg>
