<svg width="70" height="69" viewBox="0 0 70 69" fill="none" xmlns="http://www.w3.org/2000/svg">
    <defs>
        <linearGradient id="paint0_linear_4118_6791" x1="52.0399" y1="39.2438" x2="17.5742" y2="39.2438" gradientUnits="userSpaceOnUse">
            <stop stop-color="#1110AD"/>
            <stop offset="1" stop-color="#063098"/>
        </linearGradient>
        <linearGradient id="paint1_linear_4118_6791" x1="24.1319" y1="41.8312" x2="7.22412" y2="41.8312" gradientUnits="userSpaceOnUse">
            <stop stop-color="#1110AD"/>
            <stop offset="1" stop-color="#063098"/>
        </linearGradient>
        <linearGradient id="paint2_linear_4118_6791" x1="51.2528" y1="27.1688" x2="43.4492" y2="27.1688" gradientUnits="userSpaceOnUse">
            <stop stop-color="#1110AD"/>
            <stop offset="1" stop-color="#063098"/>
        </linearGradient>
        <linearGradient id="paint3_linear_4118_6791" x1="27.2771" y1="58.2188" x2="1.03162" y2="58.2188" gradientUnits="userSpaceOnUse">
            <stop stop-color="#1110AD"/>
            <stop offset="1" stop-color="#063098"/>
        </linearGradient>
        <linearGradient id="paint4_linear_4118_6791" x1="53.5563" y1="37.0875" x2="38.9159" y2="37.0875" gradientUnits="userSpaceOnUse">
            <stop stop-color="#1110AD"/>
            <stop offset="1" stop-color="#063098"/>
        </linearGradient>
        <linearGradient id="paint5_linear_4118_6791" x1="59.3416" y1="49.5937" x2="31.3741" y2="49.5937" gradientUnits="userSpaceOnUse">
            <stop stop-color="#1110AD"/>
            <stop offset="1" stop-color="#063098"/>
        </linearGradient>
    </defs>
    <path fill-rule="evenodd" clip-rule="evenodd" d="M38.2223 16.4933C38.8342 16.8622 39.0314 17.6573 38.6624 18.2691C36.6165 21.6631 37.7192 25.3837 40.9946 27.2673C41.614 27.6235 41.8274 28.4144 41.4712 29.0337C41.115 29.6531 40.3243 29.8665 39.7048 29.5105C35.2207 26.9319 33.6235 21.6162 36.4465 16.9334C36.8153 16.3214 37.6105 16.1244 38.2223 16.4933Z" fill="#1110AD"/>
    <path fill-rule="evenodd" clip-rule="evenodd" d="M32.7483 15.7614C33.387 16.0817 33.6451 16.8592 33.3248 17.4979C30.8194 22.4942 32.0934 27.7059 35.5241 30.0992C36.1101 30.508 36.2536 31.3145 35.8448 31.9005C35.436 32.4866 34.6295 32.6301 34.0436 32.2213C29.3505 28.9473 28.0519 22.2406 31.0119 16.338C31.332 15.6993 32.1095 15.4412 32.7483 15.7614Z" fill="#1110AD"/>
    <path fill-rule="evenodd" clip-rule="evenodd" d="M17.5742 14.2313C17.5742 12.3259 19.1188 10.7812 21.0242 10.7812H59.8367C61.742 10.7812 63.2867 12.3259 63.2867 14.2313V39.2438H59.8367V14.2313H21.0242V21.1313H17.5742V14.2313Z" fill="url(#paint0_linear_4118_6791)"/>
    <path fill-rule="evenodd" clip-rule="evenodd" d="M18.4367 38.3812C22.7236 38.3812 26.1992 34.9059 26.1992 30.6187C26.1992 26.3316 22.7236 22.8562 18.4367 22.8562C14.1495 22.8562 10.6741 26.3316 10.6741 30.6187C10.6741 34.9059 14.1495 38.3812 18.4367 38.3812ZM18.4367 41.8312C24.6291 41.8312 29.6492 36.8113 29.6492 30.6187C29.6492 24.4262 24.6291 19.4062 18.4367 19.4062C12.2441 19.4062 7.22412 24.4262 7.22412 30.6187C7.22412 36.8113 12.2441 41.8312 18.4367 41.8312Z" fill="url(#paint1_linear_4118_6791)"/>
    <path fill-rule="evenodd" clip-rule="evenodd" d="M48.6242 24.5813C50.0532 24.5813 51.2117 23.4228 51.2117 21.9938C51.2117 20.5648 50.0532 19.4063 48.6242 19.4063C47.1951 19.4063 46.0367 20.5648 46.0367 21.9938C46.0367 23.4228 47.1951 24.5813 48.6242 24.5813ZM48.6242 27.1688C51.4822 27.1688 53.7992 24.8519 53.7992 21.9938C53.7992 19.1356 51.4822 16.8188 48.6242 16.8188C45.7661 16.8188 43.4492 19.1356 43.4492 21.9938C43.4492 24.8519 45.7661 27.1688 48.6242 27.1688Z" fill="url(#paint2_linear_4118_6791)"/>
    <path fill-rule="evenodd" clip-rule="evenodd" d="M14.4813 42.3365C15.1549 43.0101 15.1549 44.1024 14.4813 44.776L4.48852 54.7688L3.26878 53.549L4.48852 54.7688H32.3845L22.3917 44.776C21.7181 44.1024 21.7181 43.0101 22.3917 42.3365C23.0653 41.6629 24.1576 41.6629 24.8312 42.3365L34.824 52.3293C36.9973 54.5026 35.4581 58.2188 32.3845 58.2188H4.48852C1.41491 58.2188 -0.124361 54.5026 2.04901 52.3293L12.0417 42.3365C12.7154 41.6629 13.8076 41.6629 14.4813 42.3365Z" fill="url(#paint3_linear_4118_6791)"/>
    <path fill-rule="evenodd" clip-rule="evenodd" d="M47.0222 27.9288C47.5552 28.4045 47.6015 29.2223 47.1255 29.7554L42.8893 34.5H54.3604L50.1241 29.7554C49.6482 29.2223 49.6944 28.4045 50.2274 27.9288C50.7605 27.4528 51.5783 27.4991 52.0542 28.0321L57.9584 34.6447C58.8019 35.5895 58.1312 37.0875 56.8645 37.0875H40.3851C39.1184 37.0875 38.4478 35.5895 39.2914 34.6447L45.1954 28.0321C45.6714 27.4991 46.4892 27.4528 47.0222 27.9288Z" fill="url(#paint4_linear_4118_6791)"/>
    <path fill-rule="evenodd" clip-rule="evenodd" d="M31.3741 40.1062C31.3741 39.1535 32.1464 38.3812 33.0991 38.3812H37.2636L37.7689 38.8865C39.8618 40.9794 41.5322 41.2004 42.6658 40.979C43.9263 40.7331 44.9589 39.8547 45.4953 39.1036L46.0115 38.3812H61.5616C63.2163 38.3812 64.5988 38.7724 65.6944 39.5464C66.7877 40.3189 67.4439 41.3658 67.8351 42.4137C68.4956 44.1829 68.4761 46.2284 68.4642 47.4616C68.4628 47.6096 68.4616 47.7459 68.4616 47.8687V49.5937H35.6866C34.7339 49.5937 33.9616 48.8214 33.9616 47.8687C33.9616 46.916 34.7339 46.1437 35.6866 46.1437H65.0035C64.9768 45.2532 64.8871 44.3814 64.603 43.6205C64.3905 43.0513 64.0981 42.6428 63.7036 42.3641C63.3111 42.0868 62.6668 41.8312 61.5616 41.8312H47.7168C46.7391 42.9036 45.2387 43.9919 43.3268 44.3652C41.0117 44.8172 38.4242 44.1589 35.8593 41.8312H33.0991C32.1464 41.8312 31.3741 41.0589 31.3741 40.1062Z" fill="url(#paint5_linear_4118_6791)"/>
</svg>
