<svg width="70" height="69" viewBox="0 0 70 69" fill="none" xmlns="http://www.w3.org/2000/svg">
    <defs>
        <linearGradient id="paint0_linear_4118_6806" x1="43.5738" y1="25.875" x2="18.8625" y2="25.875" gradientUnits="userSpaceOnUse">
            <stop stop-color="#1110AD"/>
            <stop offset="1" stop-color="#063098"/>
        </linearGradient>
        <linearGradient id="paint1_linear_4118_6806" x1="47.9548" y1="37.95" x2="10.2375" y2="37.95" gradientUnits="userSpaceOnUse">
            <stop stop-color="#1110AD"/>
            <stop offset="1" stop-color="#063098"/>
        </linearGradient>
        <linearGradient id="paint2_linear_4118_6806" x1="46.2024" y1="58.65" x2="13.6875" y2="58.65" gradientUnits="userSpaceOnUse">
            <stop stop-color="#1110AD"/>
            <stop offset="1" stop-color="#063098"/>
        </linearGradient>
    </defs>
    <path fill-rule="evenodd" clip-rule="evenodd" d="M30.1675 14.1672C29.1014 13.8036 27.9148 13.7054 26.7673 13.8933C25.6195 14.0814 24.602 14.5404 23.8314 15.1749C23.0638 15.8072 22.5913 16.5695 22.4052 17.3397C22.2208 18.103 22.3103 18.8996 22.6867 19.6479C23.0672 20.4045 23.7408 21.1059 24.6773 21.6212C25.6145 22.1368 26.7435 22.425 27.9188 22.425H33.525V18.1125C33.525 17.3432 33.2501 16.554 32.675 15.8451C32.0954 15.1306 31.2341 14.531 30.1675 14.1672ZM35.25 13.5459C34.2276 12.3377 32.8404 11.4338 31.2813 10.902C29.6681 10.3517 27.9065 10.2107 26.2097 10.4887C24.5135 10.7666 22.9184 11.4575 21.6382 12.5118C20.3554 13.5682 19.4314 14.9575 19.0516 16.5296C18.6704 18.1085 18.8712 19.7399 19.6046 21.198C20.3338 22.6479 21.5396 23.8323 23.0143 24.6439C24.4883 25.455 26.1943 25.875 27.9188 25.875H42.5813C44.3059 25.875 46.0118 25.455 47.486 24.6439C48.9607 23.8323 50.1663 22.6479 50.8956 21.198C51.6289 19.7399 51.8299 18.1085 51.4485 16.5296C51.0688 14.9575 50.1447 13.5682 48.8618 12.5118C47.5817 11.4575 45.9868 10.7666 44.2904 10.4887C42.5935 10.2107 40.8321 10.3517 39.2189 10.902C37.6597 11.4338 36.2726 12.3377 35.25 13.5459ZM36.975 18.1125V22.425H42.5813C43.7567 22.425 44.8857 22.1368 45.8227 21.6212C46.7592 21.1059 47.4328 20.4045 47.8134 19.6479C48.1898 18.8996 48.2793 18.103 48.0949 17.3397C47.9089 16.5695 47.4365 15.8072 46.6687 15.1749C45.8983 14.5404 44.8807 14.0814 43.7327 13.8933C42.5854 13.7054 41.3986 13.8036 40.3327 14.1672C39.2662 14.531 38.4049 15.1306 37.8251 15.8451C37.25 16.554 36.975 17.3432 36.975 18.1125Z" fill="url(#paint0_linear_4118_6806)"/>
    <path fill-rule="evenodd" clip-rule="evenodd" d="M15.8438 25.875C14.4563 25.875 13.6875 26.8327 13.6875 27.6V32.775C13.6875 33.5422 14.4563 34.5 15.8438 34.5H54.6563C56.0437 34.5 56.8125 33.5422 56.8125 32.775V27.6C56.8125 26.8327 56.0437 25.875 54.6563 25.875H15.8438ZM10.2375 27.6C10.2375 24.5566 12.9442 22.425 15.8438 22.425H54.6563C57.5558 22.425 60.2625 24.5566 60.2625 27.6V32.775C60.2625 35.8184 57.5558 37.95 54.6563 37.95H15.8438C12.9442 37.95 10.2375 35.8184 10.2375 32.775V27.6Z" fill="url(#paint1_linear_4118_6806)"/>
    <path fill-rule="evenodd" clip-rule="evenodd" d="M35.25 22.425C36.2027 22.425 36.975 23.1973 36.975 24.15V55.2H49.1362C50.3289 55.2 51.4326 54.7858 52.2124 54.1075C52.9849 53.436 53.3625 52.5809 53.3625 51.75V36.225C53.3625 35.2723 54.1348 34.5 55.0875 34.5C56.0402 34.5 56.8125 35.2723 56.8125 36.225V51.75C56.8125 53.664 55.936 55.4416 54.4763 56.7109C53.0242 57.9736 51.1003 58.65 49.1362 58.65H21.3637C19.3997 58.65 17.4758 57.9736 16.0237 56.7109C14.5639 55.4416 13.6875 53.664 13.6875 51.75V36.225C13.6875 35.2723 14.4598 34.5 15.4125 34.5C16.3652 34.5 17.1375 35.2723 17.1375 36.225V51.75C17.1375 52.5809 17.5151 53.436 18.2876 54.1075C19.0674 54.7858 20.1711 55.2 21.3637 55.2H33.525V24.15C33.525 23.1973 34.2973 22.425 35.25 22.425Z" fill="url(#paint2_linear_4118_6806)"/>
    <path d="M40.4554 25.875H37.0054V34.5H40.4554V25.875Z" fill="#1110AD"/>
    <path d="M40.4554 37.95H37.0054V55.2H40.4554V37.95Z" fill="#1110AD"/>
</svg>
