<svg width="44" height="44" viewBox="0 0 44 44" fill="none" xmlns="http://www.w3.org/2000/svg">
    <rect width="44" height="44" rx="22" fill="#5587EA"/>
    <path d="M14.1982 16.3222V18.6443C14.1982 18.9204 14.4221 19.1443 14.6982 19.1443H15.6525H16.9846C17.0669 19.1443 17.148 19.1646 17.2206 19.2035L18.3684 19.8183L19.0302 20.1746C19.302 20.3208 19.6321 20.1269 19.6367 19.8183L19.6384 19.6394C19.6411 19.3652 19.8642 19.1443 20.1384 19.1443H20.8386H21.5338C21.81 19.1443 22.0338 18.9204 22.0338 18.6443V16.3222V14C22.0338 13.7239 21.81 13.5 21.5338 13.5H18.116H14.6982C14.4221 13.5 14.1982 13.7239 14.1982 14V16.3222ZM21.0378 16.3222V17.6482C21.0378 17.9244 20.8139 18.1482 20.5378 18.1482H19.8259H18.9495C18.7645 18.1482 18.613 18.2953 18.6074 18.4803C18.6028 18.633 18.4393 18.7277 18.3045 18.6556L17.9766 18.4803L17.4662 18.2073C17.3937 18.1685 17.3127 18.1482 17.2304 18.1482H16.2767H15.6943C15.4181 18.1482 15.1943 17.9244 15.1943 17.6482V16.3222V14.9961C15.1943 14.7199 15.4181 14.4961 15.6943 14.4961H18.116H20.5378C20.8139 14.4961 21.0378 14.7199 21.0378 14.9961V16.3222Z" fill="white"/>
    <path d="M16.4948 16.2811L16.4998 16.529C16.5026 16.6645 16.6128 16.7731 16.7483 16.774L18.125 16.7824L19.4909 16.788C19.6294 16.7886 19.7419 16.6765 19.7419 16.538V16.291V16.043C19.7419 15.9049 19.63 15.793 19.4919 15.793H18.1151H16.74C16.6 15.793 16.4872 15.9081 16.4901 16.0481L16.4948 16.2811Z" fill="white"/>
    <path d="M23.6435 15.6515C23.3809 15.6574 23.1759 15.8695 23.1738 16.1322C23.1703 16.5771 23.1663 17.2951 23.1683 18.0834L23.1761 19.9644C23.1773 20.2378 23.3978 20.4595 23.6711 20.4623L24.1676 20.4673L24.6571 20.4706C24.9319 20.4724 25.1537 20.6957 25.1537 20.9706V21.0384C25.1537 21.3052 25.4348 21.466 25.6708 21.3415C25.8334 21.2557 26.0244 21.1541 26.2261 21.045L27.1545 20.5481C27.2252 20.5103 27.3038 20.49 27.3839 20.4889L28.5237 20.4739L29.2919 20.4638C29.5655 20.4602 29.7853 20.2374 29.7853 19.9639V18.0502V16.1416C29.7853 15.866 29.5624 15.6424 29.2869 15.6416L26.4884 15.6331C24.9778 15.6293 24.1086 15.6409 23.6435 15.6515ZM28.7993 18.0402L28.8035 18.9423C28.8048 19.2194 28.5806 19.4447 28.3035 19.4447H27.9526H27.2225C27.1395 19.4447 27.0578 19.4654 26.9847 19.5049L26.6478 19.687L26.4045 19.8186C26.3084 19.8706 26.1908 19.806 26.183 19.697C26.1736 19.5639 26.0635 19.4602 25.9301 19.4589L25.1803 19.4513L24.6875 19.448C24.4127 19.4462 24.1909 19.2229 24.1909 18.948V18.0336V17.124C24.1909 16.8473 24.4156 16.6232 24.6923 16.624L26.4917 16.6292L28.295 16.637C28.5689 16.6382 28.7909 16.8595 28.7928 17.1334L28.7993 18.0402Z" fill="white"/>
    <path d="M25.1553 18.0169V18.2649C25.1553 18.403 25.2672 18.5149 25.4053 18.5149H26.4833H27.5614C27.6995 18.5149 27.8114 18.403 27.8114 18.2649V18.0169V17.7688C27.8114 17.6308 27.6995 17.5188 27.5614 17.5188H26.4833H25.4053C25.2672 17.5188 25.1553 17.6308 25.1553 17.7688V18.0169Z" fill="white"/>
    <path d="M21.3858 20.7553C20.4064 20.9711 19.5929 21.6916 19.2609 22.6379C19.2111 22.7806 19.1613 22.8968 19.1547 22.8968C19.1447 22.8968 19.0717 22.8304 18.9887 22.7474C18.7098 22.4652 18.2914 22.2328 17.8499 22.1133C17.5245 22.0236 16.9169 22.0303 16.5782 22.1265C15.7416 22.3656 15.1041 22.9665 14.8185 23.7866C14.7223 24.0556 14.7156 24.1087 14.7156 24.5569C14.7123 25.1213 14.7555 25.3039 14.9879 25.7621C15.0941 25.9746 15.2103 26.134 15.3996 26.3332L15.5099 26.4506C15.5855 26.531 15.5655 26.661 15.4693 26.715C14.7654 27.1101 14.274 27.6148 13.9254 28.2921C13.6332 28.8665 13.5336 29.2715 13.5104 29.992C13.4995 30.2693 13.7214 30.5 13.9989 30.5H22.0001H30.0013C30.2788 30.5 30.5006 30.2693 30.4897 29.992C30.4665 29.2715 30.3669 28.8665 30.0747 28.2921C29.7261 27.6148 29.2347 27.1101 28.5308 26.715C28.4346 26.661 28.4146 26.531 28.4902 26.4506L28.6006 26.3332C28.7898 26.134 28.906 25.9746 29.0123 25.7621C29.2447 25.3039 29.2878 25.1213 29.2845 24.5569C29.2845 24.1087 29.2779 24.0556 29.1816 23.7866C28.896 22.9665 28.2586 22.3656 27.4219 22.1265C27.0832 22.0303 26.4756 22.0236 26.1503 22.1133C25.7087 22.2328 25.2903 22.4652 25.0115 22.7474C24.9284 22.8304 24.8554 22.8968 24.8454 22.8968C24.8388 22.8968 24.789 22.7806 24.7392 22.6379C24.4039 21.6816 23.5871 20.9645 22.5911 20.7553C22.3088 20.6956 21.6614 20.6956 21.3858 20.7553ZM22.4782 21.7514C22.7272 21.8178 23.0692 21.9971 23.265 22.1664C23.3514 22.2394 23.4875 22.3988 23.5738 22.5216C24.3441 23.6505 23.7199 25.1877 22.3819 25.47C22.0897 25.5297 21.9104 25.5297 21.6182 25.47C20.2802 25.1877 19.656 23.6505 20.4263 22.5216C20.5126 22.3988 20.6488 22.2394 20.7351 22.1664C20.9243 22.0004 21.2696 21.8178 21.5054 21.7547C21.7444 21.6883 22.2358 21.6883 22.4782 21.7514ZM17.5544 23.0761C17.8598 23.1425 18.0955 23.2687 18.3147 23.4911C18.5305 23.7069 18.6467 23.8995 18.7231 24.1784C18.9488 24.9786 18.494 25.7986 17.6838 26.0676C17.4581 26.1439 17.0132 26.1439 16.7874 26.0676C15.9773 25.7986 15.5224 24.9786 15.7482 24.1784C15.8246 23.8995 15.9408 23.7069 16.1566 23.4911C16.3724 23.2753 16.6114 23.1425 16.9003 23.0794C17.1659 23.0197 17.2887 23.0197 17.5544 23.0761ZM27.0832 23.0761C27.3887 23.1425 27.6244 23.2687 27.8436 23.4911C28.0594 23.7069 28.1756 23.8995 28.2519 24.1784C28.398 24.703 28.2519 25.2707 27.8701 25.6592C27.558 25.9779 27.2094 26.124 26.7645 26.124C26.3196 26.124 25.971 25.9779 25.6589 25.6592C25.1841 25.1778 25.0845 24.4274 25.4165 23.8265C25.5327 23.6173 25.8382 23.3185 26.0507 23.2122C26.2366 23.1193 26.552 23.0363 26.7479 23.0329C26.811 23.0329 26.9637 23.0529 27.0832 23.0761ZM19.9084 25.6061C20.0246 25.7289 20.1773 25.8684 20.247 25.9215C20.3047 25.9615 20.2978 26.0489 20.2345 26.0792L20.1341 26.1273C19.8486 26.2668 19.5199 26.4726 19.3074 26.6519C19.2211 26.725 19.1447 26.7814 19.1348 26.7814C19.1281 26.7814 19.0518 26.7416 18.9654 26.6951C18.8876 26.6511 18.8715 26.5459 18.9326 26.4807L19.0551 26.3498C19.3107 26.0809 19.4933 25.8053 19.5929 25.543C19.6261 25.4567 19.6627 25.3869 19.6726 25.3869C19.6859 25.3869 19.7922 25.4866 19.9084 25.6061ZM24.4072 25.543C24.5068 25.8053 24.6894 26.0809 24.945 26.3498L25.0675 26.4807C25.1286 26.5459 25.1125 26.6511 25.0347 26.6951C24.9484 26.7416 24.872 26.7814 24.8654 26.7814C24.8554 26.7814 24.779 26.725 24.6927 26.6519C24.4802 26.4726 24.1515 26.2668 23.866 26.1273L23.7656 26.0792C23.7023 26.0489 23.6954 25.9615 23.7531 25.9215C23.8228 25.8684 23.9756 25.7289 24.0918 25.6061C24.208 25.4866 24.3142 25.3869 24.3275 25.3869C24.3375 25.3869 24.374 25.4567 24.4072 25.543ZM22.6674 26.7681C23.876 27.0138 24.9019 27.99 25.2007 29.1753C25.2306 29.2948 25.2538 29.4176 25.2538 29.4475C25.2538 29.5006 25.0314 29.504 22.0001 29.504C18.9688 29.504 18.7463 29.5006 18.7463 29.4475C18.7463 29.3346 18.8592 28.9495 18.9621 28.7005C19.1281 28.312 19.4037 27.9202 19.739 27.6048C20.5392 26.8545 21.605 26.549 22.6674 26.7681ZM17.8797 27.3492C18.1387 27.4156 18.4475 27.5318 18.4475 27.5617C18.4475 27.5716 18.391 27.6712 18.3213 27.7841C18.0756 28.1858 17.8731 28.7071 17.7868 29.1553C17.7635 29.2649 17.7403 29.3877 17.7303 29.4276C17.7227 29.4717 17.6843 29.504 17.6395 29.504H16.1234H14.7779C14.655 29.504 14.5661 29.3865 14.5994 29.2682C14.8617 28.322 15.6818 27.5384 16.6314 27.3326C16.9634 27.2595 17.5544 27.2662 17.8797 27.3492ZM27.4949 27.3591C27.9863 27.4953 28.5109 27.8372 28.8628 28.2489C29.0787 28.5046 29.3111 28.9428 29.4007 29.2649C29.4341 29.3851 29.3437 29.504 29.219 29.504H27.8768H26.3606C26.3158 29.504 26.2775 29.4717 26.2698 29.4276C26.2598 29.3877 26.2366 29.2649 26.2134 29.1553C26.127 28.7071 25.9245 28.1858 25.6788 27.7841C25.6091 27.6712 25.5526 27.5716 25.5526 27.5617C25.5526 27.5318 25.8017 27.4355 26.0839 27.3591C26.3329 27.2894 26.4192 27.2794 26.8309 27.2927C27.1297 27.2994 27.3688 27.3226 27.4949 27.3591Z" fill="white"/>
</svg>
