<svg width="44" height="44" viewBox="0 0 44 44" fill="none" xmlns="http://www.w3.org/2000/svg">
<rect width="44" height="44" rx="22" fill="#5587EA"/>
<path d="M21.9274 19.7381H23.7425V17.0238H26.4651V15.2143H23.7425V12.5H21.9274V15.2143H19.2047V17.0238H21.9274V19.7381ZM18.2971 27.881C17.2988 27.881 16.4911 28.6952 16.4911 29.6905C16.4911 30.6857 17.2988 31.5 18.2971 31.5C19.2954 31.5 20.1122 30.6857 20.1122 29.6905C20.1122 28.6952 19.2954 27.881 18.2971 27.881ZM27.3727 27.881C26.3744 27.881 25.5666 28.6952 25.5666 29.6905C25.5666 30.6857 26.3744 31.5 27.3727 31.5C28.371 31.5 29.1878 30.6857 29.1878 29.6905C29.1878 28.6952 28.371 27.881 27.3727 27.881ZM18.4514 24.9405L18.4786 24.8319L19.2954 23.3571H26.0567C26.7374 23.3571 27.3364 22.9862 27.6449 22.4252L31.1481 16.0829L29.569 15.2143H29.5599L28.5616 17.0238L26.0567 21.5476H19.6857L19.5677 21.3033L17.5348 17.0238L16.6726 15.2143L15.8195 13.4048H12.8518V15.2143H14.6669L17.9341 22.0814L16.7089 24.2981C16.5637 24.5514 16.482 24.85 16.482 25.1667C16.482 26.1619 17.2988 26.9762 18.2971 26.9762H29.1878V25.1667H18.6783C18.5603 25.1667 18.4514 25.0671 18.4514 24.9405Z" fill="white"/>
</svg>
