<svg width="16" height="16" viewBox="0 0 16 16" fill="none" xmlns="http://www.w3.org/2000/svg">
    <defs>
        <radialGradient id="paint0_radial_5763_19960" cx="0" cy="0" r="1" gradientUnits="userSpaceOnUse" gradientTransform="translate(7.77677 15.5378) rotate(-179.751) scale(8.82346 14.4775)">
            <stop offset="0.314" stop-color="#FF9800"/>
            <stop offset="0.662" stop-color="#FF6D00"/>
            <stop offset="0.972" stop-color="#F44336"/>
        </radialGradient>
        <radialGradient id="paint1_radial_5763_19960" cx="0" cy="0" r="1" gradientUnits="userSpaceOnUse" gradientTransform="translate(8.27258 6.75743) rotate(90.5787) scale(9.23205 6.94781)">
            <stop offset="0.214" stop-color="#FFF176"/>
            <stop offset="0.328" stop-color="#FFF27D"/>
            <stop offset="0.487" stop-color="#FFF48F"/>
            <stop offset="0.672" stop-color="#FFF7AD"/>
            <stop offset="0.793" stop-color="#FFF9C4"/>
            <stop offset="0.822" stop-color="#FFF8BD" stop-opacity="0.804"/>
            <stop offset="0.863" stop-color="#FFF6AB" stop-opacity="0.529"/>
            <stop offset="0.91" stop-color="#FFF38D" stop-opacity="0.209"/>
            <stop offset="0.941" stop-color="#FFF176" stop-opacity="0"/>
        </radialGradient>
    </defs>
    <path d="M4.4448 5.09148C4.37355 5.85148 4.32355 7.19648 4.7723 7.76898C4.7723 7.76898 4.56105 6.29148 6.4548 4.43773C7.2173 3.69148 7.39355 2.67648 7.1273 1.91523C6.97605 1.48398 6.6998 1.12773 6.4598 0.878982C6.3198 0.732732 6.4273 0.491482 6.63105 0.500232C7.86355 0.555232 9.86105 0.897731 10.7098 3.02773C11.0823 3.96273 11.1098 4.92898 10.9323 5.91148C10.8198 6.53898 10.4198 7.93398 11.3323 8.10523C11.9836 8.22773 12.2986 7.71023 12.4398 7.33773C12.4986 7.18273 12.7023 7.14398 12.8123 7.26773C13.9123 8.51898 14.0061 9.99273 13.7786 11.2615C13.3386 13.714 10.8548 15.499 8.3873 15.499C5.3048 15.499 2.85105 13.7352 2.2148 10.5427C1.95855 9.25398 2.08855 6.70398 4.07605 4.90398C4.22355 4.76898 4.4648 4.88898 4.4448 5.09148Z"
          fill="url(#paint0_radial_5763_19960)"/>
    <path d="M9.51384 9.67764C8.37759 8.21514 8.88634 6.54639 9.16509 5.88139C9.20259 5.79389 9.10259 5.71139 9.02384 5.76514C8.53509 6.09764 7.53384 6.88014 7.06759 7.98139C6.43634 9.47014 6.48134 10.1989 6.85509 11.0889C7.08009 11.6251 6.81884 11.7389 6.68759 11.7589C6.56009 11.7789 6.44259 11.6939 6.34884 11.6051C6.07913 11.3462 5.88694 11.0172 5.79384 10.6551C5.77384 10.5776 5.67259 10.5564 5.62634 10.6201C5.27634 11.1039 5.09509 11.8801 5.08634 12.4289C5.05884 14.1251 6.46009 15.5001 8.15509 15.5001C10.2913 15.5001 11.8476 13.1376 10.6201 11.1626C10.2638 10.5876 9.92884 10.2114 9.51384 9.67764Z"
          fill="url(#paint1_radial_5763_19960)"/>
</svg>
