<svg width="15" height="16" viewBox="0 0 15 16" fill="none" xmlns="http://www.w3.org/2000/svg">
    <path d="M5.00781 4.8125H7.12891C7.5638 4.8125 7.9375 4.8776 8.25 5.00781C8.5651 5.13802 8.80729 5.33073 8.97656 5.58594C9.14583 5.84115 9.23047 6.15495 9.23047 6.52734C9.23047 6.83203 9.17839 7.09375 9.07422 7.3125C8.97266 7.52865 8.82812 7.70964 8.64062 7.85547C8.45573 7.9987 8.23828 8.11328 7.98828 8.19922L7.61719 8.39453H5.77344L5.76562 7.48047H7.13672C7.34245 7.48047 7.51302 7.44401 7.64844 7.37109C7.78385 7.29818 7.88542 7.19661 7.95312 7.06641C8.02344 6.9362 8.05859 6.78516 8.05859 6.61328C8.05859 6.43099 8.02474 6.27344 7.95703 6.14062C7.88932 6.00781 7.78646 5.90625 7.64844 5.83594C7.51042 5.76562 7.33724 5.73047 7.12891 5.73047H6.17969V10.5H5.00781V4.8125ZM8.1875 10.5L6.89062 7.96484L8.12891 7.95703L9.44141 10.4453V10.5H8.1875Z" fill="#444444"/>
    <rect x="1" y="1.5" width="13" height="13" rx="6.5" stroke="#444444" stroke-width="2"/>
</svg>
