<svg width="37" height="38" viewBox="0 0 37 38" fill="none" xmlns="http://www.w3.org/2000/svg">
    <path fill-rule="evenodd" clip-rule="evenodd"
          d="M4.625 12.8333V8.20833C4.625 6.5125 6.0125 5.125 7.70833 5.125H12.3333C13.1812 5.125 13.875 5.81875 13.875 6.66667C13.875 7.51458 13.1812 8.20833 12.3333 8.20833H9.25C8.40208 8.20833 7.70833 8.90208 7.70833 9.75V12.8333C7.70833 13.6812 7.01458 14.375 6.16667 14.375C5.31875 14.375 4.625 13.6812 4.625 12.8333ZM4.625 25.1667C4.625 24.3188 5.31875 23.625 6.16667 23.625C7.01458 23.625 7.70833 24.3188 7.70833 25.1667V28.25C7.70833 29.0979 8.40208 29.7917 9.25 29.7917H12.3333C13.1812 29.7917 13.875 30.4854 13.875 31.3333C13.875 32.1812 13.1812 32.875 12.3333 32.875H7.70833C6.0125 32.875 4.625 31.4875 4.625 29.7917V25.1667ZM29.2917 28.25C29.2917 29.0979 28.5979 29.7917 27.75 29.7917H24.6667C23.8188 29.7917 23.125 30.4854 23.125 31.3333C23.125 32.1812 23.8188 32.875 24.6667 32.875H29.2917C30.9875 32.875 32.375 31.4875 32.375 29.7917V25.1667C32.375 24.3188 31.6812 23.625 30.8333 23.625C29.9854 23.625 29.2917 24.3188 29.2917 25.1667V28.25ZM24.6667 5.125H29.2917C30.9875 5.125 32.375 6.5125 32.375 8.20833V12.8333C32.375 13.6812 31.6812 14.375 30.8333 14.375C29.9854 14.375 29.2917 13.6812 29.2917 12.8333V9.75C29.2917 8.90208 28.5979 8.20833 27.75 8.20833H24.6667C23.8188 8.20833 23.125 7.51458 23.125 6.66667C23.125 5.81875 23.8188 5.125 24.6667 5.125Z"
          fill="#C4C4C4"/>
    <rect x="7.70831" y="17.459" width="21.5833" height="3.08333" rx="1.54167" fill="#C4C4C4"/>
</svg>
