<svg width="37" height="33" viewBox="0 0 37 33" fill="none" xmlns="http://www.w3.org/2000/svg">
    <path d="M7.77924 3.82361C4.95715 6.64571 3.97852 7.76089 3.97852 8.17055C3.97852 8.58021 4.9799 9.74091 7.89304 12.6768C12.0351 16.8417 12.1945 16.9327 13.651 16.3865C13.9696 16.2727 16.9966 13.4506 20.3421 10.1278C23.8242 6.69123 26.6236 4.09672 26.8739 4.09672C27.2153 4.09672 27.1698 3.98293 26.6236 3.41395C25.5084 2.2305 25.0304 2.41257 22.5042 5.00707L20.2738 7.28296L16.6097 3.64154C13.5372 0.59186 12.8317 0.000131607 12.2627 0.000131607C11.6938 0.000131607 10.9882 0.61462 7.77924 3.82361ZM15.0393 4.4381C16.2 4.77948 17.6338 5.75811 17.3607 6.03122C17.2697 6.12226 16.86 5.94018 16.4504 5.62156C16.0407 5.30294 15.1986 4.89328 14.6069 4.75673C11.762 3.98293 8.75787 6.3726 8.75787 9.37677C8.75787 10.8789 9.25857 11.9713 10.5331 13.2458C11.1475 13.9058 11.4434 14.3382 11.2386 14.3382C10.7151 14.3382 9.30408 12.7678 8.78063 11.6071C7.46062 8.67124 9.05374 5.23466 12.1262 4.41534C13.5372 4.02844 13.7193 4.02844 15.0393 4.4381ZM15.0848 6.23605C15.8131 6.62295 18.5214 9.33125 18.18 9.33125C18.0662 9.33125 17.5883 8.96711 17.1559 8.51193C15.6083 6.8733 14.7207 6.3726 13.3779 6.3726C12.6041 6.3726 12.1945 6.28157 12.2855 6.14501C12.4903 5.80363 14.3793 5.87191 15.0848 6.23605ZM10.6924 8.19331C9.96409 9.5816 10.3282 10.674 12.1034 12.5402C12.8089 13.2685 13.2641 13.883 13.1276 13.883C12.6269 13.883 10.351 11.2658 10.1006 10.4009C9.78202 9.1947 10.2827 7.07813 10.8062 7.39675C10.9427 7.48778 10.8972 7.80641 10.6924 8.19331ZM19.2269 7.62434C19.3862 7.82917 19.4545 8.034 19.3862 8.12503C19.2042 8.28434 18.5442 7.78365 18.5442 7.48779C18.5442 7.16916 18.9083 7.23744 19.2269 7.62434ZM15.8586 9.03539C16.5642 9.74091 17.1104 10.4009 17.0421 10.5147C16.9738 10.6285 16.2683 10.1051 15.4717 9.35401C13.9696 7.89744 13.5145 7.73813 12.6724 8.32986C11.8303 8.89883 12.0124 9.94574 13.1276 11.0837C13.651 11.6071 13.9924 12.1306 13.9014 12.2216C13.8103 12.3127 13.2869 11.9258 12.7179 11.334C11.9669 10.5375 11.7165 10.0823 11.7165 9.55884C11.7165 8.64849 12.0579 7.98848 12.6951 7.73813C13.6283 7.32847 14.5159 7.69261 15.8586 9.03539ZM14.789 10.4692C15.4035 11.0837 15.8586 11.6527 15.7904 11.7209C15.7221 11.7664 15.1076 11.2658 14.4476 10.583C13.7648 9.90022 13.3096 9.33125 13.4462 9.33125C13.56 9.33125 14.1745 9.83194 14.789 10.4692Z" fill="#005AA9"/>
    <path d="M20.8173 10.3322C14.9 16.204 13.8759 17.0688 12.8517 17.0688C12.3738 17.0688 12.6014 17.3874 14.5586 19.3674C17.0621 21.8937 17.5856 22.2351 19.1104 22.4626C21.0677 22.713 21.5911 22.3489 27.4857 16.4316C32.1057 11.7888 32.8795 10.9239 32.8795 10.3322C32.8795 9.78598 32.4243 9.21701 30.3077 7.10044C28.487 5.27973 27.5994 4.55145 27.2125 4.55145C26.8029 4.55145 25.1643 6.03077 20.8173 10.3322Z" fill="#ED1C24"/>
    <path d="M0.108398 24.9664C0.108398 25.1712 2.36152 31.1568 2.63463 31.6803C2.86222 32.1127 4.61465 33.1141 4.81948 32.9092C4.93327 32.8182 6.98157 26.9464 7.48226 25.3078C7.64157 24.8526 7.5733 24.8071 6.86777 24.8071C6.18501 24.8071 6.09397 24.8754 6.18501 25.3078C6.23053 25.6036 5.86638 26.9464 5.38845 28.3347C4.56913 30.5651 4.45534 30.7699 4.27327 30.2692C4.13671 29.9506 3.65878 28.6078 3.18084 27.2423L2.31601 24.8071H1.22358C0.609093 24.8071 0.108398 24.8754 0.108398 24.9664Z" fill="#ED1C24"/>
    <path d="M8.30176 25.0116C8.30176 25.1482 8.41555 25.3075 8.52935 25.3758C8.82521 25.5579 8.82521 31.771 8.52935 32.34C8.30176 32.7269 8.37003 32.7724 9.34866 32.7724C10.2363 32.7724 10.3501 32.7269 10.1452 32.4538C9.96315 32.249 9.89488 31.3386 9.94039 29.8593L10.0087 27.5834L11.8294 29.9503C13.468 32.0896 14.5149 33 15.3342 33C15.5163 33 15.5846 31.8393 15.5846 29.3358C15.5846 27.2648 15.6756 25.4896 15.8122 25.2392C16.0398 24.8523 15.9715 24.8068 15.1977 24.8068H14.3328L14.4011 26.5592C14.5604 30.0414 14.5832 30.0186 12.4439 27.242L10.5549 24.8068H9.4397C8.80245 24.8068 8.30176 24.8979 8.30176 25.0116Z" fill="#ED1C24"/>
    <path d="M17.1306 25.0792C17.5175 25.4661 17.5175 32.1117 17.1306 32.4986C16.9258 32.7035 17.1989 32.7717 18.4279 32.7717C19.6568 32.7717 19.9299 32.7035 19.7251 32.4986C19.543 32.3166 19.452 31.2014 19.452 28.971C19.452 25.9896 19.4748 25.7393 19.8617 25.8758C20.8403 26.2172 21.1589 27.8558 20.4306 28.88L20.0665 29.4262L20.9541 29.2896C22.8431 28.9938 23.5486 26.8089 22.2058 25.4661C21.5458 24.8289 21.4775 24.8061 19.2017 24.8061C17.381 24.8061 16.9258 24.8744 17.1306 25.0792Z" fill="#005BAA"/>
    <path d="M24.3937 25.2158C24.4847 25.6482 22.3681 31.9297 21.9357 32.4531C21.7309 32.7262 21.8674 32.7717 22.7095 32.7717C23.6199 32.7717 23.7337 32.7262 23.6199 32.3393C23.5516 32.089 23.6199 31.52 23.7792 31.0648L24.0523 30.2455L25.4406 30.3138C26.7833 30.3821 26.8289 30.4048 27.0792 31.1786C27.2613 31.6793 27.284 32.1117 27.1475 32.3621C26.9654 32.7262 27.102 32.7717 28.5585 32.7717H30.1516L29.833 32.2483C29.651 31.9752 28.9227 30.1772 28.1944 28.2655L26.9199 24.8061H25.5999C24.4392 24.8061 24.2799 24.8517 24.3937 25.2158ZM25.8957 27.9241C26.1006 28.5386 26.2826 29.0848 26.2826 29.1758C26.2826 29.2896 25.873 29.3579 25.3723 29.3579C24.8716 29.3579 24.4619 29.2896 24.4619 29.1758C24.4619 28.8572 25.2357 26.8544 25.3723 26.8544C25.4406 26.8544 25.6909 27.3324 25.8957 27.9241Z" fill="#005BAA"/>
    <path d="M29.0112 24.9427C29.0112 25.011 29.6257 25.9441 30.3995 27.0137L31.765 28.9482L31.6968 30.86L31.6285 32.7717H33.1078C34.2458 32.7717 34.4961 32.7035 34.2913 32.4986C33.8361 32.0434 33.9499 29.062 34.4278 28.4248C34.6554 28.1289 35.3154 27.1958 35.9299 26.331L36.9996 24.8061H35.8616C34.9285 24.8061 34.7465 24.8744 34.8375 25.1475C34.974 25.4889 33.6768 27.7648 33.3582 27.7648C33.2671 27.7648 32.812 27.1048 32.334 26.2855L31.4692 24.8061H30.2402C29.5574 24.8061 29.0112 24.8744 29.0112 24.9427Z" fill="#005BAA"/>
</svg>
