<svg width="196" height="220" viewBox="0 0 196 220" fill="none" xmlns="http://www.w3.org/2000/svg">
    <defs>
        <linearGradient id="paint0_linear_3845_5867" x1="98.2572" y1="52.3857" x2="98.2572" y2="220" gradientUnits="userSpaceOnUse">
            <stop stop-color="#56CCF2"/>
            <stop offset="1" stop-color="#2696D6"/>
        </linearGradient>
    </defs>
    <path d="M65.1918 7.56337C65.8985 6.9726 66.8407 6.7363 67.7829 6.61814C70.9629 6.26368 74.1429 7.68153 76.6162 9.69014C79.0896 11.6988 80.8562 14.4163 82.3873 17.252C86.0384 23.6323 88.1584 31.5486 92.7518 37.4563C94.0473 38.047 95.2251 37.8107 96.7562 38.2833C93.1051 30.6033 90.9851 22.0963 90.514 13.5892C90.3962 11.6988 90.3962 9.69014 89.8073 7.91783C88.5118 3.6643 84.0362 0.592304 79.5607 0.946765C77.2051 1.18307 75.5562 2.95538 73.2007 3.6643C71.434 4.13692 69.7851 4.72768 68.0185 5.31845C66.9585 5.67291 65.1918 5.67291 64.2496 6.26368C62.8362 7.20891 63.8962 9.45383 63.7785 10.8717C63.7785 10.7535 63.7785 10.7535 63.7785 10.6354C63.7785 9.57199 64.2496 8.27229 65.1918 7.56337Z" fill="#56CCF2"/>
    <path d="M82.3848 17.2522C80.8537 14.4165 78.9693 11.8171 76.6137 9.69037C74.1404 7.68176 70.9604 6.26392 67.7804 6.61838C66.8382 6.73653 65.8959 6.97284 65.1893 7.56361C64.2471 8.27253 63.8937 9.57222 63.7759 10.7538C63.7759 10.8719 63.7759 10.8719 63.7759 10.9901C63.5404 14.1802 65.0715 17.2522 66.9559 19.8516C72.8448 28.2405 83.327 35.0934 93.2204 37.5746C92.9848 37.3383 92.7493 36.9839 92.6315 36.7476C87.9204 30.8399 85.9182 23.7507 82.3848 17.2522Z" fill="#2D9CDB"/>
    <path d="M124.901 5.43507C124.077 4.8443 123.135 4.72615 122.192 4.72615C119.012 4.60799 115.95 6.26215 113.595 8.50707C111.357 10.752 109.708 13.5877 108.295 16.4234C105.115 23.04 103.583 31.1926 99.4613 37.3366C98.2835 38.0455 97.1057 37.8092 95.6924 38.4C98.7546 30.4837 100.286 21.8584 100.168 13.3514C100.168 11.4609 100.05 9.4523 100.403 7.67999C101.463 3.3083 105.703 0 110.061 0C112.417 0 114.183 1.77231 116.657 2.24492C118.423 2.59938 120.19 3.072 121.957 3.54461C123.017 3.78092 124.783 3.78092 125.843 4.25353C127.375 5.08061 126.432 7.44368 126.668 8.74337C126.668 8.62522 126.668 8.62522 126.668 8.50707C126.315 7.32553 125.843 6.14399 124.901 5.43507Z" fill="#56CCF2"/>
    <path d="M108.416 16.4273C109.829 13.5916 111.36 10.7559 113.716 8.51099C115.954 6.26607 119.016 4.61192 122.196 4.73007C123.138 4.73007 124.08 4.96638 124.787 5.439C125.729 6.14792 126.2 7.32946 126.436 8.51099C126.436 8.62915 126.436 8.62915 126.436 8.7473C126.907 11.9375 125.494 15.0094 123.845 17.727C118.545 26.4704 108.652 34.1504 98.876 37.2224C99.1115 36.986 99.2293 36.6316 99.4649 36.3953C103.823 30.2513 105.236 23.0439 108.416 16.4273Z" fill="#2D9CDB"/>
    <path d="M195.262 36.2085H0L0 51.726H195.262V36.2085Z" fill="#2F80ED"/>
    <path d="M105.117 35.9194H84.1523V51.1613H105.117V35.9194Z" fill="#56CCF2"/>
</svg>
