<svg width="22" height="24" viewBox="0 0 22 24" fill="none" xmlns="http://www.w3.org/2000/svg">
    <g filter="url(#filter0_d_64_3352)">
        <path fill-rule="evenodd" clip-rule="evenodd" d="M11 22C10.4826 21.8602 10.5558 21.8599 10.5558 21.8599L10.5535 21.8583L10.5482 21.8546L10.5299 21.8417C10.5143 21.8306 10.4921 21.8148 10.4636 21.7943C10.4068 21.7533 10.3252 21.6936 10.2222 21.6161C10.0164 21.4613 9.72509 21.2353 9.37666 20.9463C8.68107 20.3693 7.75151 19.5358 6.81924 18.5107C4.98741 16.4966 3 13.585 3 10.3334C3 8.12324 3.84285 6.00361 5.34315 4.4408C6.84344 2.87798 8.87827 2 11 2C13.1217 2 15.1566 2.87798 16.6569 4.4408C18.1571 6.00361 19 8.12324 19 10.3334C19 13.585 17.0126 16.4966 15.1808 18.5107C14.2485 19.5358 13.3189 20.3693 12.6233 20.9463C12.2749 21.2353 11.9836 21.4613 11.7778 21.6161C11.6748 21.6936 11.5932 21.7533 11.5364 21.7943C11.5079 21.8148 11.4857 21.8306 11.4701 21.8417L11.4518 21.8546L11.4465 21.8583L11.4448 21.8595C11.4448 21.8595 11.4141 21.8798 11 22ZM11 22L11.4438 21.8602C11.175 22.0468 10.8245 22.0465 10.5558 21.8599L11 22Z" fill="#F4B400"/>
        <path d="M10.5558 21.8599C10.5558 21.8599 10.4826 21.8602 11 22M10.5558 21.8599C10.8245 22.0465 11.175 22.0468 11.4438 21.8602L11 22M10.5558 21.8599L11 22M10.5558 21.8599L10.5535 21.8583L10.5482 21.8546L10.5299 21.8417C10.5143 21.8306 10.4921 21.8148 10.4636 21.7943C10.4068 21.7533 10.3252 21.6936 10.2222 21.6161C10.0164 21.4613 9.72509 21.2353 9.37666 20.9463C8.68107 20.3693 7.75151 19.5358 6.81924 18.5107C4.98741 16.4966 3 13.585 3 10.3334C3 8.12324 3.84285 6.00361 5.34315 4.4408C6.84344 2.87798 8.87827 2 11 2C13.1217 2 15.1566 2.87798 16.6569 4.4408C18.1571 6.00361 19 8.12324 19 10.3334C19 13.585 17.0126 16.4966 15.1808 18.5107C14.2485 19.5358 13.3189 20.3693 12.6233 20.9463C12.2749 21.2353 11.9836 21.4613 11.7778 21.6161C11.6748 21.6936 11.5932 21.7533 11.5364 21.7943C11.5079 21.8148 11.4857 21.8306 11.4701 21.8417L11.4518 21.8546L11.4465 21.8583L11.4448 21.8595C11.4448 21.8595 11.4141 21.8798 11 22" stroke="#F2F2F2" stroke-linecap="round" stroke-linejoin="round"/>
    </g>
    <defs>
        <filter id="filter0_d_64_3352" x="0.5" y="-0.5" width="21" height="25" filterUnits="userSpaceOnUse" color-interpolation-filters="sRGB">
            <feFlood flood-opacity="0" result="BackgroundImageFix"/>
            <feColorMatrix in="SourceAlpha" type="matrix" values="0 0 0 0 0 0 0 0 0 0 0 0 0 0 0 0 0 0 127 0" result="hardAlpha"/>
            <feOffset/>
            <feGaussianBlur stdDeviation="1"/>
            <feColorMatrix type="matrix" values="0 0 0 0 0 0 0 0 0 0 0 0 0 0 0 0 0 0 0.1 0"/>
            <feBlend mode="normal" in2="BackgroundImageFix" result="effect1_dropShadow_64_3352"/>
            <feBlend mode="normal" in="SourceGraphic" in2="effect1_dropShadow_64_3352" result="shape"/>
        </filter>
    </defs>
</svg>
