<svg width="19" height="18" viewBox="0 0 19 18" fill="none" xmlns="http://www.w3.org/2000/svg">
    <g clip-path="url(#clip0_64_42382)">
        <path d="M17.75 3H4C3.34819 3 2.79241 3.47029 2.586 4.125H1.25C0.835781 4.125 0.5 4.50275 0.5 4.96875V14.5312C0.5 15.6186 1.2835 16.5 2.25 16.5H17.75C18.1642 16.5 18.5 16.1222 18.5 15.6562V3.84375C18.5 3.37775 18.1642 3 17.75 3ZM2 14.5312V5.8125H2.5V14.5312C2.5 14.6863 2.38784 14.8125 2.25 14.8125C2.11216 14.8125 2 14.6863 2 14.5312ZM17 14.8125H3.98194C3.99362 14.7206 4 14.6268 4 14.5312V4.6875H17V14.8125ZM5.875 10.5938H10.125C10.3321 10.5938 10.5 10.4049 10.5 10.1719V6.79688C10.5 6.56389 10.3321 6.375 10.125 6.375H5.875C5.66791 6.375 5.5 6.56389 5.5 6.79688V10.1719C5.5 10.4049 5.66791 10.5938 5.875 10.5938ZM6.75 7.78125H9.25V9.1875H6.75V7.78125ZM5.5 12.7031V11.8594C5.5 11.6264 5.66791 11.4375 5.875 11.4375H10.125C10.3321 11.4375 10.5 11.6264 10.5 11.8594V12.7031C10.5 12.9361 10.3321 13.125 10.125 13.125H5.875C5.66791 13.125 5.5 12.9361 5.5 12.7031ZM11.5 12.7031V11.8594C11.5 11.6264 11.6679 11.4375 11.875 11.4375H15.125C15.3321 11.4375 15.5 11.6264 15.5 11.8594V12.7031C15.5 12.9361 15.3321 13.125 15.125 13.125H11.875C11.6679 13.125 11.5 12.9361 11.5 12.7031ZM11.5 7.64062V6.79688C11.5 6.56389 11.6679 6.375 11.875 6.375H15.125C15.3321 6.375 15.5 6.56389 15.5 6.79688V7.64062C15.5 7.87361 15.3321 8.0625 15.125 8.0625H11.875C11.6679 8.0625 11.5 7.87361 11.5 7.64062ZM11.5 10.1719V9.32812C11.5 9.09514 11.6679 8.90625 11.875 8.90625H15.125C15.3321 8.90625 15.5 9.09514 15.5 9.32812V10.1719C15.5 10.4049 15.3321 10.5938 15.125 10.5938H11.875C11.6679 10.5938 11.5 10.4049 11.5 10.1719Z" fill="#9B9B9B"/>
    </g>
    <defs>
        <clipPath id="clip0_64_42382">
            <rect width="18" height="18" fill="white" transform="translate(0.5)"/>
        </clipPath>
    </defs>
</svg>
