<svg width="14" height="14" viewBox="0 0 14 14" fill="none" xmlns="http://www.w3.org/2000/svg">
    <path d="M9.36322 0.0454907C9.18147 0.124669 8.88558 0.502582 8.71853 0.866087C8.53677 1.25584 8.48413 1.51663 8.48413 2.01196C8.48413 2.38416 8.49583 2.48674 8.55147 2.68604C8.86219 3.76443 9.82331 4.83411 10.9018 5.2942C11.5465 5.56968 12.1503 5.60192 12.8067 5.39093C13.3518 5.21802 13.9174 4.79902 13.9672 4.53224C14.0874 3.88169 13.4163 2.69189 12.3056 1.59581C11.8514 1.15041 11.5671 0.913023 11.1364 0.622847C10.3888 0.121672 9.70019 -0.10402 9.36322 0.0454907ZM10.8225 1.11518C11.1272 1.27054 11.5112 1.57826 11.9595 2.02365C12.5808 2.64495 12.9442 3.16952 12.9764 3.48595C12.9911 3.6647 12.9442 3.71164 12.7624 3.6911C12.446 3.65301 11.9273 3.28964 11.3089 2.6742C10.8635 2.22581 10.5586 1.8449 10.4004 1.53717C10.2948 1.32917 10.2597 1.11218 10.3183 1.04199C10.3771 0.971516 10.6028 1.00376 10.8225 1.11518Z" fill="#CB2222"/>
    <path d="M7.19445 3.42445C6.71097 3.76727 6.28298 4.08968 6.24204 4.13947C6.13646 4.27429 6.12191 4.60841 6.21279 4.90429C6.50582 5.87154 7.55796 7.04666 8.60125 7.56538C8.994 7.76168 9.2167 7.82916 9.48048 7.82916C9.80575 7.82617 9.84099 7.79692 10.3303 7.10829C10.5706 6.77132 10.8549 6.36972 10.9663 6.21736C11.0747 6.06499 11.1656 5.93303 11.1656 5.92133C11.1656 5.91249 11.0689 5.8744 10.9546 5.8393C10.3275 5.63715 9.53042 5.08904 9.03224 4.51168C8.65718 4.07799 8.31721 3.50648 8.15015 3.02L8.07397 2.80015L7.19445 3.42445Z" fill="#CB2222"/>
    <path d="M4.43986 3.75559C3.93584 3.83477 3.45806 4.03692 3.05375 4.34165C2.50279 4.7548 2.31519 5.13286 2.31519 5.83033C2.31519 6.41354 2.45885 6.94681 2.80167 7.64729C3.73654 9.54627 5.77619 11.252 7.5609 11.627C7.86577 11.6886 8.41959 11.6973 8.64528 11.6417C8.94715 11.5684 9.20209 11.4249 9.41609 11.208C9.84108 10.7772 10.1077 10.2556 10.2131 9.64899C10.2835 9.25924 10.2688 8.63509 10.1809 8.2071L10.1662 8.12806L9.99031 8.21894C9.33976 8.55306 8.1762 8.09882 7.09782 7.08192C6.62303 6.63353 6.1337 5.97129 5.90216 5.46711C5.61797 4.84582 5.58274 4.27431 5.80543 3.91394L5.86107 3.82021L5.67932 3.78498C5.43622 3.74104 4.66256 3.72335 4.43986 3.75559Z" fill="#CB2222"/>
    <path d="M2.63755 10.6454C2.14522 11.211 1.35102 12.1253 0.873239 12.6763C0.0733287 13.5906 0 13.6844 0 13.7811C0 13.9335 0.137812 14.039 0.272486 13.9862C0.307724 13.9715 0.876235 13.4881 1.53848 12.9137C2.20086 12.3363 3.08294 11.5685 3.50195 11.2052C3.92095 10.8418 4.2873 10.5252 4.31669 10.4988C4.36363 10.4519 4.34309 10.4255 3.95034 10.0329C3.72179 9.80436 3.53419 9.61676 3.53133 9.61676C3.53133 9.61676 3.12988 10.0798 2.63755 10.6454Z" fill="#CB2222"/>
</svg>
