<svg width="19" height="20" viewBox="0 0 19 20" fill="none" xmlns="http://www.w3.org/2000/svg">
<path fill-rule="evenodd" clip-rule="evenodd" d="M2.00004 9.99992C2.00004 5.85778 5.3579 2.49992 9.50004 2.49992C13.6422 2.49992 17 5.85778 17 9.99992C17 14.1421 13.6422 17.4999 9.50004 17.4999C5.3579 17.4999 2.00004 14.1421 2.00004 9.99992ZM9.50004 0.833252C4.43743 0.833252 0.333374 4.93731 0.333374 9.99992C0.333374 15.0625 4.43743 19.1666 9.50004 19.1666C14.5626 19.1666 18.6667 15.0625 18.6667 9.99992C18.6667 4.93731 14.5626 0.833252 9.50004 0.833252ZM9.50004 14.1666C11.8012 14.1666 13.6667 12.3011 13.6667 9.99992C13.6667 7.69873 11.8012 5.83325 9.50004 5.83325C7.19885 5.83325 5.33337 7.69873 5.33337 9.99992C5.33337 12.3011 7.19885 14.1666 9.50004 14.1666Z" fill="#4285F4"/>
</svg>
