<svg width="58" height="58" viewBox="0 0 58 58" fill="none" xmlns="http://www.w3.org/2000/svg">
<path d="M28.9999 4.8335C15.6599 4.8335 4.83325 15.6602 4.83325 29.0002C4.83325 42.3402 15.6599 53.1668 28.9999 53.1668C42.3399 53.1668 53.1666 42.3402 53.1666 29.0002C53.1666 15.6602 42.3399 4.8335 28.9999 4.8335ZM25.5808 39.6693C24.7997 40.4503 23.5334 40.4503 22.7524 39.6693L13.4975 30.4144C12.7164 29.6333 12.7164 28.367 13.4975 27.586L14.0785 27.0049C14.8588 26.2246 16.1236 26.2237 16.905 27.0029L22.7524 32.8341C23.5337 33.6133 24.7985 33.6124 25.5788 32.8321L41.0899 17.3211C41.8729 16.5381 43.1431 16.5403 43.9233 17.3261L44.5123 17.9193C45.2887 18.7011 45.2865 19.9636 44.5074 20.7427L25.5808 39.6693Z" fill="#0F9D58"/>
</svg>
