<svg width="21" height="22" viewBox="0 0 21 22" fill="none" xmlns="http://www.w3.org/2000/svg">
<path d="M1.03882 0.0902348C0.798193 0.197657 0.630615 0.35664 0.510303 0.580078C0.3771 0.825001 0.3771 1.36641 0.510303 1.61563C0.613428 1.80898 0.85835 2.04531 1.02163 2.10547L1.12476 2.14844V6.69023V11.2363L1.22788 11.4512C1.35249 11.7219 1.52007 11.8895 1.79077 12.0141C1.98843 12.1086 2.06577 12.1172 2.65874 12.1172H3.31187L3.32905 14.0379C3.34194 15.718 3.35483 15.9973 3.41929 16.2207C3.72007 17.2391 4.29155 17.9309 5.20249 18.3906C5.50327 18.541 6.04038 18.6914 6.27671 18.6914C6.36265 18.6914 6.47437 18.7043 6.53022 18.7172L6.62476 18.743V20.2684V21.7895L6.73218 21.8926L6.8353 22H10.3115H13.7876L13.8908 21.8883L13.9939 21.7766L14.0068 20.2383L14.0197 18.6957L14.3076 18.6699C15.2228 18.5797 16.2712 18.1973 17.0662 17.6687C18.4626 16.7449 19.4294 15.2883 19.7517 13.6211C19.7904 13.4191 19.8334 12.998 19.8462 12.6887L19.872 12.1172H20.0826C20.4392 12.1172 20.5853 11.9926 20.5896 11.6875C20.5896 11.0773 20.1728 10.3898 19.6357 10.1148C19.163 9.87422 19.3435 9.88281 14.0927 9.88281H9.24585V6.01992V2.16133L9.44351 2.03672C10.1783 1.57266 10.1009 0.43828 9.3103 0.0816402C9.14702 0.00429726 8.92358 0 5.1853 0C1.30093 0 1.22788 0.00429726 1.03882 0.0902348ZM9.06108 0.867968C9.18569 1.00976 9.20288 1.08281 9.13843 1.2332C9.09546 1.33633 9.0353 1.38359 8.91499 1.41797C8.79897 1.45234 7.68179 1.46094 5.06499 1.45234L1.37397 1.43945L1.27085 1.31914C1.13765 1.16445 1.13765 1.01406 1.27515 0.880859L1.37827 0.773438H5.17671H8.97515L9.06108 0.867968ZM8.47241 6.78906V11.3438H5.33569C3.1314 11.3438 2.17319 11.3309 2.10015 11.2965C2.03999 11.2707 1.97124 11.202 1.94546 11.1418C1.91108 11.0688 1.89819 9.77109 1.89819 6.63867V2.23438H5.1853H8.47241V6.78906ZM19.047 10.7078C19.2748 10.7852 19.4982 10.9484 19.6185 11.1246C19.6787 11.2105 19.7302 11.2965 19.7302 11.3137C19.7302 11.3309 17.3712 11.3438 14.488 11.3438H9.24585V11V10.6562H14.0755C17.6462 10.6562 18.9396 10.6691 19.047 10.7078ZM19.0857 12.448C19.0771 15.1035 17.1779 17.3637 14.531 17.8621C14.1572 17.9309 13.7876 17.9395 10.1912 17.9395C6.49585 17.9395 6.24233 17.9352 6.00171 17.8621C5.13804 17.5957 4.51069 16.9941 4.21421 16.1562C4.11968 15.8855 4.11538 15.8254 4.09819 13.9949L4.0853 12.1172H11.5834H19.0857V12.448ZM13.2419 19.9805V21.2266H10.3201H7.39819V19.9805V18.7344H10.3201H13.2419V19.9805Z" fill="black"/>
</svg>
