<svg width="22" height="22" viewBox="0 0 22 22" fill="none" xmlns="http://www.w3.org/2000/svg">
    <path d="M7.03329 19.3647C4.13471 18.0059 2.0605 15.2 1.74139 11.8823H0.411766C0.863838 17.3176 5.42888 21.5882 11.0044 21.5882L11.5895 21.5617L8.21222 18.2L7.03329 19.3647ZM11.0044 0.411743L10.4194 0.438214L13.7966 3.79998L14.9756 2.62645C17.8742 3.9941 19.9484 6.79115 20.2586 10.1088H21.5882C21.145 4.68233 16.58 0.411743 11.0044 0.411743Z" fill="white"/>
    <path d="M5.33411 11.4577H5.98059C6.38677 11.4514 6.70614 11.3429 6.93868 11.1321C7.17123 10.9213 7.28751 10.6367 7.28751 10.2781C7.28751 9.47277 6.89217 9.07012 6.10151 9.07012C5.72944 9.07012 5.43178 9.17865 5.20853 9.3957C4.98839 9.6096 4.87832 9.89428 4.87832 10.2497H4.01789C4.01789 9.70555 4.21323 9.25415 4.60391 8.89554C4.99769 8.53379 5.49689 8.35292 6.10151 8.35292C6.74024 8.35292 7.241 8.52436 7.60377 8.86723C7.96654 9.21011 8.14793 9.68667 8.14793 10.2969C8.14793 10.5958 8.05181 10.8852 7.85957 11.1651C7.67043 11.4451 7.41153 11.6543 7.08286 11.7927C7.45494 11.9122 7.74175 12.1104 7.94329 12.3872C8.14793 12.664 8.25025 13.0022 8.25025 13.4017C8.25025 14.0182 8.05181 14.5074 7.65493 14.8691C7.25805 15.2309 6.74179 15.4117 6.10617 15.4117C5.47054 15.4117 4.95273 15.2372 4.55275 14.888C4.15587 14.5388 3.95743 14.078 3.95743 13.5055H4.8225C4.8225 13.8672 4.93878 14.1566 5.17133 14.3737C5.40387 14.5907 5.71549 14.6993 6.10617 14.6993C6.52165 14.6993 6.83946 14.5892 7.05961 14.369C7.27975 14.1488 7.38983 13.8326 7.38983 13.4205C7.38983 13.0211 7.2689 12.7144 7.02705 12.5004C6.7852 12.2865 6.43638 12.1764 5.98059 12.1702H5.33411V11.4577Z" fill="white"/>
    <path d="M12.8082 8.44257V9.18337H12.65C11.9803 9.19595 11.447 9.39727 11.0501 9.78733C10.6532 10.1774 10.4238 10.7263 10.3618 11.4341C10.7184 11.0189 11.2052 10.8112 11.8222 10.8112C12.4113 10.8112 12.881 11.022 13.2314 11.4435C13.5849 11.865 13.7616 12.4092 13.7616 13.0761C13.7616 13.7839 13.5709 14.3501 13.1896 14.7747C12.8113 15.1994 12.3028 15.4117 11.664 15.4117C11.016 15.4117 10.4905 15.1601 10.0874 14.6568C9.68429 14.1503 9.48275 13.4992 9.48275 12.7033V12.3683C9.48275 11.1038 9.74786 10.1381 10.2781 9.47119C10.8114 8.80117 11.6036 8.4583 12.6547 8.44257H12.8082ZM11.678 11.5379C11.3834 11.5379 11.1121 11.6275 10.8641 11.8068C10.616 11.9861 10.4439 12.2111 10.3478 12.4816V12.8024C10.3478 13.3686 10.4734 13.8248 10.7246 14.1708C10.9757 14.5168 11.2889 14.6898 11.664 14.6898C12.0516 14.6898 12.3555 14.5451 12.5756 14.2557C12.7989 13.9663 12.9105 13.5873 12.9105 13.1186C12.9105 12.6467 12.7973 12.2661 12.571 11.9767C12.3477 11.6842 12.0501 11.5379 11.678 11.5379Z" fill="white"/>
    <path d="M19.0265 12.3872C19.0265 13.4095 18.8544 14.1692 18.5102 14.6662C18.1661 15.1632 17.6281 15.4117 16.8964 15.4117C16.1739 15.4117 15.6391 15.1695 15.2918 14.6851C14.9445 14.1975 14.7647 13.4709 14.7523 12.5052V11.3397C14.7523 10.33 14.9244 9.57972 15.2685 9.089C15.6127 8.59828 16.1522 8.35292 16.8871 8.35292C17.6157 8.35292 18.1521 8.59042 18.4963 9.06541C18.8405 9.53725 19.0172 10.267 19.0265 11.2548V12.3872ZM18.1661 11.1934C18.1661 10.4542 18.0637 9.9163 17.8591 9.57972C17.6545 9.23999 17.3304 9.07012 16.8871 9.07012C16.4468 9.07012 16.1259 9.23842 15.9243 9.575C15.7228 9.91158 15.6189 10.429 15.6127 11.1274V12.524C15.6127 13.2664 15.7181 13.8153 15.929 14.1708C16.1429 14.5231 16.4654 14.6993 16.8964 14.6993C17.3211 14.6993 17.6359 14.5325 17.8405 14.1991C18.0482 13.8657 18.1568 13.3403 18.1661 12.6231V11.1934Z" fill="white"/>
</svg>
