<svg width="58" height="58" viewBox="0 0 58 58" fill="none" xmlns="http://www.w3.org/2000/svg">
    <path d="M2.73804 50.2979C1.96611 51.6313 2.92823 53.3 4.46889 53.3H53.4574C54.9981 53.3 55.9602 51.6313 55.1883 50.2979L30.694 7.98965C29.9237 6.65908 28.0026 6.65908 27.2323 7.98965L2.73804 50.2979ZM31.5053 43.6737C31.5053 44.7783 30.6098 45.6737 29.5053 45.6737H28.4211C27.3165 45.6737 26.4211 44.7783 26.4211 43.6737V42.5895C26.4211 41.4849 27.3165 40.5895 28.4211 40.5895H29.5053C30.6098 40.5895 31.5053 41.4849 31.5053 42.5895V43.6737ZM31.5053 33.5053C31.5053 34.6098 30.6098 35.5053 29.5053 35.5053H28.4211C27.3165 35.5053 26.4211 34.6098 26.4211 33.5053V27.3368C26.4211 26.2323 27.3165 25.3368 28.4211 25.3368H29.5053C30.6098 25.3368 31.5053 26.2323 31.5053 27.3368V33.5053Z" fill="#E29045"/>
</svg>